<?xml version="1.0" standalone="no"?>
<!DOCTYPE svg PUBLIC "-//W3C//DTD SVG 20010904//EN"
 "http://www.w3.org/TR/2001/REC-SVG-20010904/DTD/svg10.dtd">
<svg version="1.0" xmlns="http://www.w3.org/2000/svg"
 width="500.000000pt" height="500.000000pt" viewBox="0 0 500.000000 500.000000"
 preserveAspectRatio="xMidYMid meet">

<g transform="translate(0.000000,500.000000) scale(0.100000,-0.100000)"
fill="#000000" stroke="none">
<path d="M1939 2903 c-27 -31 -108 -188 -132 -255 -4 -10 -14 -18 -24 -18 -15
0 -16 -2 -3 -10 13 -8 11 -17 -13 -64 -16 -30 -45 -71 -65 -92 -24 -24 -28
-33 -13 -25 46 25 94 108 161 279 35 89 102 202 120 202 6 0 9 -8 7 -17 -20
-70 -24 -303 -8 -363 7 -28 8 -21 4 33 -5 53 -3 67 8 67 12 0 12 2 0 9 -11 7
-13 30 -7 117 3 60 9 124 12 142 8 42 -6 41 -47 -5z"/>
<path d="M3007 2893 c-38 -52 -84 -141 -112 -215 -11 -30 -24 -48 -34 -48 -13
0 -13 -2 -3 -9 26 -16 -54 -147 -112 -182 -17 -10 -25 -19 -17 -19 8 0 38 24
66 53 41 43 59 73 99 172 56 139 105 232 137 260 l22 20 -8 -50 c-14 -90 -20
-233 -12 -272 7 -34 5 -40 -18 -56 -33 -24 -32 -60 1 -86 15 -12 32 -21 38
-21 6 0 -4 9 -21 20 -38 23 -45 63 -14 80 16 8 21 5 30 -18 11 -27 11 -26 5 6
-4 23 -2 32 8 32 9 0 9 3 2 8 -6 4 -14 21 -17 39 -5 25 -3 33 11 36 16 4 16 5
0 6 -15 1 -18 11 -18 54 0 51 14 166 26 213 10 41 -21 28 -59 -23z"/>
<path d="M3213 2933 c9 -2 23 -2 30 0 6 3 -1 5 -18 5 -16 0 -22 -2 -12 -5z"/>
<path d="M3266 2915 c3 -8 4 -25 0 -38 -6 -27 -73 -117 -86 -117 -5 0 -11 21
-13 48 -2 26 -4 -8 -5 -75 -1 -67 -5 -128 -8 -137 -3 -9 -1 -16 5 -16 7 0 11
26 11 73 l0 72 55 68 c54 67 71 116 45 132 -6 3 -7 -1 -4 -10z"/>
<path d="M786 2895 c30 -46 29 -192 -3 -410 -10 -69 13 -28 47 85 18 58 46
133 62 167 32 64 82 122 95 109 5 -4 7 -60 6 -124 l-2 -117 24 30 c13 17 39
50 57 74 52 70 58 66 58 -43 0 -58 4 -97 11 -102 6 -3 25 9 43 27 l31 34 -31
-28 c-17 -15 -33 -24 -37 -21 -3 3 -4 43 -1 88 8 126 -20 139 -91 41 -22 -30
-42 -55 -45 -55 -3 0 -3 42 -2 93 3 77 1 95 -13 107 -14 11 -20 10 -42 -6 -32
-24 -87 -120 -110 -191 -9 -29 -19 -53 -22 -53 -3 0 -5 56 -3 123 3 94 0 133
-12 160 -8 21 -20 37 -26 37 -6 0 -4 -10 6 -25z"/>
<path d="M3109 2900 c-13 -10 -20 -19 -16 -20 4 0 17 9 29 20 28 26 17 26 -13
0z"/>
<path d="M2152 2904 c10 -3 21 -18 25 -32 17 -63 -3 -277 -33 -349 -9 -23 -20
-33 -36 -34 -17 -1 -19 -2 -5 -6 10 -3 14 -10 10 -16 -3 -7 2 -4 13 5 15 13
43 18 119 21 l100 3 -97 2 -98 2 10 26 c6 14 17 67 25 117 27 165 16 259 -30
264 -16 1 -16 1 -3 -3z"/>
<path d="M641 2865 c-72 -65 -89 -134 -46 -182 l26 -28 -22 38 c-19 34 -20 43
-10 79 8 24 30 58 58 84 54 52 49 59 -6 9z"/>
<path d="M1255 2874 c-29 -31 -40 -77 -25 -101 10 -15 10 -14 6 9 -7 33 6 70
35 97 13 12 19 21 15 21 -4 0 -18 -12 -31 -26z"/>
<path d="M1308 2888 c18 -18 15 -46 -5 -51 -14 -4 -12 -5 5 -6 21 -1 22 -4 22
-110 0 -107 -1 -110 -35 -167 -40 -65 -50 -96 -41 -120 15 -40 59 24 75 110 5
29 20 60 37 79 16 17 20 24 8 14 -11 -9 -24 -17 -27 -17 -4 0 -7 51 -7 114 0
116 -10 166 -32 166 -9 0 -9 -3 0 -12z m6 -355 c-8 -42 -36 -103 -46 -103 -12
0 -10 14 13 75 21 57 44 76 33 28z"/>
<path d="M3518 2893 c6 -2 18 -2 25 0 6 3 1 5 -13 5 -14 0 -19 -2 -12 -5z"/>
<path d="M3695 2874 c-23 -24 -25 -25 -47 -10 -33 24 -43 19 -15 -6 15 -14 27
-39 30 -61 5 -32 1 -43 -24 -71 -16 -18 -43 -39 -59 -46 -17 -7 -28 -15 -26
-18 9 -8 93 47 110 73 10 15 22 23 29 18 9 -5 9 -3 1 8 -6 8 -11 30 -13 50 -1
27 5 42 25 62 15 15 24 27 20 27 -4 0 -18 -12 -31 -26z"/>
<path d="M3756 2873 c10 -20 14 -63 14 -144 0 -116 0 -117 -35 -175 -40 -65
-50 -96 -41 -120 15 -40 59 24 75 110 5 27 18 58 30 69 l21 21 0 -52 c0 -43 5
-58 25 -77 13 -14 32 -25 42 -24 15 0 14 2 -4 9 -60 24 -68 118 -19 222 33 71
91 138 119 138 17 0 19 2 8 9 -11 7 -7 12 15 25 16 8 24 15 18 16 -5 0 -19 -7
-30 -15 -10 -8 -28 -15 -38 -15 -11 0 -17 -3 -13 -6 3 -4 -12 -30 -33 -58 -22
-29 -50 -77 -64 -107 -22 -51 -51 -87 -61 -78 -7 8 -7 247 0 260 5 7 4 10 -3
5 -6 -3 -13 -2 -17 4 -14 23 -23 8 -9 -17z m-2 -340 c-8 -42 -36 -103 -46
-103 -12 0 -10 14 13 75 21 57 44 76 33 28z"/>
<path d="M3813 2893 c9 -2 23 -2 30 0 6 3 -1 5 -18 5 -16 0 -22 -2 -12 -5z"/>
<path d="M4077 2879 c-4 -16 -3 -18 9 -8 7 6 11 15 8 20 -8 13 -11 11 -17 -12z"/>
<path d="M2071 2855 c-39 -45 -58 -104 -42 -134 7 -11 17 -21 24 -21 8 0 9 2
1 8 -35 23 -18 101 33 155 15 15 24 27 21 27 -3 0 -20 -16 -37 -35z"/>
<path d="M4308 2883 c7 -3 16 -2 19 1 4 3 -2 6 -13 5 -11 0 -14 -3 -6 -6z"/>
<path d="M1400 2862 c0 -7 -10 -12 -22 -13 -22 -1 -22 -1 2 -10 l25 -9 1 -173
c0 -175 7 -233 24 -222 6 3 10 20 10 36 0 17 -4 28 -9 25 -8 -5 -21 93 -21
162 0 46 20 31 21 -16 2 -32 3 -33 6 -8 3 16 0 65 -6 109 -6 45 -7 83 -2 86 4
3 0 15 -10 25 -11 11 -19 14 -19 8z"/>
<path d="M1500 2858 c0 -4 -15 -5 -32 -2 -25 4 -29 3 -18 -5 8 -6 24 -11 35
-11 20 0 21 -5 19 -149 -1 -86 -7 -157 -13 -169 -15 -29 -14 -77 3 -92 13 -10
13 -7 4 18 -9 23 -9 36 -1 54 11 22 12 22 12 -9 2 -63 31 -85 31 -22 0 18 -4
28 -10 24 -6 -3 -10 5 -10 19 0 32 17 43 23 14 4 -20 4 -20 6 4 0 15 9 32 19
38 15 10 15 11 0 6 -9 -3 -19 0 -22 7 -2 7 -5 4 -5 -5 -1 -10 -5 -18 -10 -18
-14 0 -21 27 -21 83 0 57 16 55 23 -3 3 -19 3 -1 1 40 -2 41 -6 96 -10 123
l-7 47 32 0 c19 0 30 4 26 10 -7 11 -75 9 -75 -2z"/>
<path d="M1638 2863 c6 -2 18 -2 25 0 6 3 1 5 -13 5 -14 0 -19 -2 -12 -5z"/>
<path d="M2503 2863 c-7 -2 -13 -12 -13 -21 0 -14 1 -14 13 0 6 9 19 18 27 21
13 5 13 5 0 5 -8 0 -21 -2 -27 -5z"/>
<path d="M3379 2843 l-24 -28 30 25 c17 14 32 26 34 28 2 1 0 2 -6 2 -5 0 -20
-12 -34 -27z"/>
<path d="M4395 2846 c10 -14 19 -26 22 -26 7 0 -17 39 -28 46 -6 3 -3 -5 6
-20z"/>
<path d="M2554 2840 c0 -11 5 -20 10 -20 14 0 -1 -248 -20 -310 -9 -30 -25
-65 -37 -78 -18 -19 -18 -22 -4 -16 10 3 24 18 32 33 8 14 14 20 15 14 0 -15
36 -53 50 -53 5 0 -2 11 -16 25 -28 28 -26 50 8 100 l21 30 -27 -25 -28 -25 6
25 c14 71 18 113 17 200 -1 60 -7 100 -14 108 -10 9 -13 8 -13 -8z"/>
<path d="M2708 2853 c12 -2 32 -2 45 0 12 2 2 4 -23 4 -25 0 -35 -2 -22 -4z"/>
<path d="M4179 2837 c-19 -12 -43 -39 -54 -60 -18 -34 -19 -39 -5 -64 9 -16
39 -45 68 -67 l52 -39 -26 -30 c-23 -28 -24 -31 -8 -48 9 -11 22 -19 28 -19 6
0 3 5 -6 11 -24 13 -23 42 2 64 20 18 21 18 45 -5 26 -24 34 -60 13 -60 -6 0
-8 -3 -5 -6 8 -8 37 14 37 28 0 5 -12 20 -26 33 -15 14 -24 31 -21 38 4 10 -1
13 -16 10 -28 -4 -114 59 -127 92 -13 35 1 66 51 109 49 41 48 47 -2 13z"/>
<path d="M3451 2750 c-2 -71 -6 -97 -11 -80 -6 17 -8 0 -9 -57 -1 -45 2 -89 5
-98 11 -28 24 4 24 62 0 32 5 53 13 56 9 4 9 7 0 14 -8 6 -13 45 -16 108 l-3
100 -3 -105z m-4 -172 c-2 -13 -4 -3 -4 22 0 25 2 35 4 23 2 -13 2 -33 0 -45z"/>
<path d="M3299 2726 c41 -23 66 -88 39 -99 -10 -4 -10 -6 0 -6 27 -2 2 -70
-47 -126 -22 -25 -20 -24 12 5 47 43 70 112 56 164 -9 34 -50 76 -73 76 -6 -1
0 -7 13 -14z"/>
<path d="M1868 2633 c6 -2 18 -2 25 0 6 3 1 5 -13 5 -14 0 -19 -2 -12 -5z"/>
<path d="M2938 2633 c6 -2 18 -2 25 0 6 3 1 5 -13 5 -14 0 -19 -2 -12 -5z"/>
<path d="M4085 2584 c-33 -31 -76 -64 -95 -75 -19 -10 -30 -18 -24 -19 18 0
97 57 144 104 60 62 48 57 -25 -10z"/>
<path d="M3500 2620 c8 -5 20 -10 25 -10 6 0 3 5 -5 10 -8 5 -19 10 -25 10 -5
0 -3 -5 5 -10z"/>
<path d="M1718 2613 c7 -3 16 -2 19 1 4 3 -2 6 -13 5 -11 0 -14 -3 -6 -6z"/>
<path d="M2788 2613 c7 -3 16 -2 19 1 4 3 -2 6 -13 5 -11 0 -14 -3 -6 -6z"/>
<path d="M3268 2613 c7 -3 16 -2 19 1 4 3 -2 6 -13 5 -11 0 -14 -3 -6 -6z"/>
<path d="M2738 2603 c7 -3 16 -2 19 1 4 3 -2 6 -13 5 -11 0 -14 -3 -6 -6z"/>
<path d="M3208 2603 c7 -3 16 -2 19 1 4 3 -2 6 -13 5 -11 0 -14 -3 -6 -6z"/>
<path d="M1443 2550 c0 -25 2 -35 4 -22 2 12 2 32 0 45 -2 12 -4 2 -4 -23z"/>
<path d="M3600 2576 c0 -3 9 -10 20 -16 11 -6 20 -8 20 -6 0 3 -9 10 -20 16
-11 6 -20 8 -20 6z"/>
<path d="M3918 2483 c6 -2 18 -2 25 0 6 3 1 5 -13 5 -14 0 -19 -2 -12 -5z"/>
<path d="M2062 2468 c3 -7 12 -14 22 -14 13 -2 13 -1 1 3 -8 2 -13 9 -10 14 4
5 1 9 -5 9 -7 0 -10 -6 -8 -12z"/>
<path d="M3240 2460 c-9 -6 -10 -10 -3 -10 6 0 15 5 18 10 8 12 4 12 -15 0z"/>
<path d="M2443 2444 c-3 -8 -1 -20 5 -26 7 -7 10 -2 9 16 -2 30 -5 32 -14 10z"/>
<path d="M3078 2433 c7 -3 16 -2 19 1 4 3 -2 6 -13 5 -11 0 -14 -3 -6 -6z"/>
<path d="M3168 2433 c7 -3 16 -2 19 1 4 3 -2 6 -13 5 -11 0 -14 -3 -6 -6z"/>
<path d="M1558 2403 c6 -2 18 -2 25 0 6 3 1 5 -13 5 -14 0 -19 -2 -12 -5z"/>
<path d="M2638 2403 c6 -2 18 -2 25 0 6 3 1 5 -13 5 -14 0 -19 -2 -12 -5z"/>
<path d="M1733 1900 c0 -30 2 -43 4 -27 2 15 2 39 0 55 -2 15 -4 2 -4 -28z"/>
<path d="M2023 1915 c0 -22 2 -30 4 -17 2 12 2 30 0 40 -3 9 -5 -1 -4 -23z"/>
<path d="M2772 1915 c-2 -45 11 -66 43 -64 17 1 16 2 -5 8 -21 6 -26 15 -31
51 l-6 45 -1 -40z"/>
<path d="M2843 1910 c0 -25 2 -35 4 -22 2 12 2 32 0 45 -2 12 -4 2 -4 -23z"/>
<path d="M2923 1900 c0 -30 2 -43 4 -27 2 15 2 39 0 55 -2 15 -4 2 -4 -28z"/>
<path d="M3183 1900 c0 -30 2 -43 4 -27 2 15 2 39 0 55 -2 15 -4 2 -4 -28z"/>
<path d="M3361 1874 c0 -11 3 -14 6 -6 3 7 2 16 -1 19 -3 4 -6 -2 -5 -13z"/>
<path d="M1685 1869 c-4 -6 -5 -12 -2 -15 2 -3 7 2 10 11 7 17 1 20 -8 4z"/>
<path d="M2015 1860 c3 -5 8 -10 11 -10 2 0 4 5 4 10 0 6 -5 10 -11 10 -5 0
-7 -4 -4 -10z"/>
<path d="M2138 1853 c7 -3 16 -2 19 1 4 3 -2 6 -13 5 -11 0 -14 -3 -6 -6z"/>
<path d="M2548 1853 c7 -3 16 -2 19 1 4 3 -2 6 -13 5 -11 0 -14 -3 -6 -6z"/>
<path d="M3073 1853 c9 -2 23 -2 30 0 6 3 -1 5 -18 5 -16 0 -22 -2 -12 -5z"/>
<path d="M3318 1853 c6 -2 18 -2 25 0 6 3 1 5 -13 5 -14 0 -19 -2 -12 -5z"/>
</g>
</svg>
