<?xml version="1.0" encoding="UTF-8"?>
<svg version="1.1" xmlns="http://www.w3.org/2000/svg" width="500" height="500">
<path d="M0 0 C165 0 330 0 500 0 C500 165 500 330 500 500 C335 500 170 500 0 500 C0 335 0 170 0 0 Z " fill="#FEFEFE" transform="translate(0,0)"/>
<path d="M0 0 C0.74378906 -0.02835938 1.48757812 -0.05671875 2.25390625 -0.0859375 C5.35369052 0.56839979 6.48055757 1.92569253 8.4375 4.375 C14.08808713 17.04665249 11.93455462 33.98170782 10.4375 47.375 C10.80101562 46.34761719 11.16453125 45.32023437 11.5390625 44.26171875 C20.38144729 19.69392269 20.38144729 19.69392269 30.4375 11.375 C33.02241402 10.40260323 34.63475769 10.31660954 37.4375 10.375 C41.32386184 16.18924212 40.78124417 21.94736923 40.625 28.75 C40.60469727 30.42642578 40.60469727 30.42642578 40.58398438 32.13671875 C40.54877164 34.88331211 40.49952096 37.62890289 40.4375 40.375 C41.04078125 39.55515625 41.6440625 38.7353125 42.265625 37.890625 C43.07274283 36.80195443 43.88004426 35.71341997 44.6875 34.625 C45.08324219 34.08617187 45.47898437 33.54734375 45.88671875 32.9921875 C48.20288099 29.87865793 50.49237059 26.91411363 53.4375 24.375 C56.5625 23.9375 56.5625 23.9375 59.4375 24.375 C62.02772521 28.26033782 61.69774472 31.50164824 61.625 36 C61.61855469 36.80872559 61.61210937 37.61745117 61.60546875 38.45068359 C61.53629024 43.81742273 61.22481975 49.0605917 60.4375 54.375 C65.44993959 50.53119099 68.6061587 47.0376826 71.4375 41.375 C72.4275 41.375 73.4175 41.375 74.4375 41.375 C74.9325 44.345 74.9325 44.345 75.4375 47.375 C78.19391416 46.87743908 78.19391416 46.87743908 80.4375 45.375 C80.59405027 43.88861008 80.68816943 42.39550873 80.75390625 40.90234375 C80.79580078 40.00322266 80.83769531 39.10410156 80.88085938 38.17773438 C80.92017578 37.23220703 80.95949219 36.28667969 81 35.3125 C81.06477539 33.8884082 81.06477539 33.8884082 81.13085938 32.43554688 C81.23729276 30.08218647 81.33931008 27.72871646 81.4375 25.375 C79.4575 25.375 77.4775 25.375 75.4375 25.375 C75.4375 24.715 75.4375 24.055 75.4375 23.375 C77.4175 23.045 79.3975 22.715 81.4375 22.375 C81.7675 19.075 82.0975 15.775 82.4375 12.375 C83.4275 12.375 84.4175 12.375 85.4375 12.375 C85.4375 16.005 85.4375 19.635 85.4375 23.375 C88.7375 23.375 92.0375 23.375 95.4375 23.375 C95.7675 19.745 96.0975 16.115 96.4375 12.375 C97.4275 12.375 98.4175 12.375 99.4375 12.375 C99.4375 16.005 99.4375 19.635 99.4375 23.375 C103.0675 23.375 106.6975 23.375 110.4375 23.375 C110.4375 24.035 110.4375 24.695 110.4375 25.375 C106.4775 25.375 102.5175 25.375 98.4375 25.375 C98.52531267 27.89734319 98.63228007 30.4165165 98.75 32.9375 C98.77255859 33.64197266 98.79511719 34.34644531 98.81835938 35.07226562 C99.07497309 40.13455442 100.20516402 43.82055581 102.4375 48.375 C105.11859123 48.00598959 106.19074942 47.6678191 107.96484375 45.5625 C108.43019531 44.840625 108.89554688 44.11875 109.375 43.375 C112.09968159 39.49250205 112.09968159 39.49250205 115.3125 38.375 C116.01375 38.375 116.715 38.375 117.4375 38.375 C117.4375 40.375 117.4375 40.375 114.9375 43 C114.1125 43.78375 113.2875 44.5675 112.4375 45.375 C113.4275 44.715 114.4175 44.055 115.4375 43.375 C117.69921875 43.3984375 117.69921875 43.3984375 120.125 43.75 C120.93324219 43.86085937 121.74148437 43.97171875 122.57421875 44.0859375 C123.18910156 44.18132812 123.80398437 44.27671875 124.4375 44.375 C124.42702637 43.8173999 124.41655273 43.2597998 124.40576172 42.68530273 C123.89973752 11.50716627 123.89973752 11.50716627 129.4375 3.375 C131.4175 3.87 131.4175 3.87 133.4375 4.375 C133.90916754 14.60756522 133.29571022 23.88715483 130.86035156 33.86450195 C128.82661408 41.70758759 128.82661408 41.70758759 130.4375 49.375 C132.72444223 49.87879029 132.72444223 49.87879029 135.4375 49.375 C137.33724968 47.52922049 138.81406978 45.48107164 140.4375 43.375 C141.0975 43.375 141.7575 43.375 142.4375 43.375 C141.04620061 48.24454788 138.57082746 50.53840273 134.4375 53.375 C131.8125 53.9375 131.8125 53.9375 129.4375 53.375 C126.64714571 51.1272146 125.57839995 49.79769984 124.4375 46.375 C123.01972818 46.46285338 121.60320961 46.57104647 120.1875 46.6875 C119.39859375 46.74550781 118.6096875 46.80351562 117.796875 46.86328125 C115.35758671 47.21787191 115.35758671 47.21787191 113.484375 48.86328125 C110.92005647 50.75715772 109.09217601 50.96399915 105.9375 51.25 C104.9990625 51.35054687 104.060625 51.45109375 103.09375 51.5546875 C99.95815196 51.34257351 98.72749992 50.45976408 96.4375 48.375 C95.90125 48.87 95.365 49.365 94.8125 49.875 C91.73639257 51.81780469 90.01860811 51.89724493 86.4375 51.375 C84.0625 49.375 84.0625 49.375 82.4375 47.375 C81.880625 47.87 81.32375 48.365 80.75 48.875 C77.99791419 50.66013674 76.65797679 50.61653576 73.4375 50.375 C72.1175 50.375 70.7975 50.375 69.4375 50.375 C68.20997193 51.8932584 66.98531626 53.41469031 65.80859375 54.97265625 C63.66062793 57.16957856 61.40142933 57.23714282 58.4375 57.375 C56.07741183 53.83486775 56.20286356 52.36378045 56.2421875 48.17578125 C56.24863281 46.96728516 56.25507813 45.75878906 56.26171875 44.51367188 C56.28685547 42.6197168 56.28685547 42.6197168 56.3125 40.6875 C56.32152344 39.41326172 56.33054687 38.13902344 56.33984375 36.82617188 C56.36344359 33.67559373 56.39636806 30.52539017 56.4375 27.375 C53.08364471 29.88145752 50.65823953 32.13822026 48.46484375 35.703125 C47.95759766 36.50234375 47.45035156 37.3015625 46.92773438 38.125 C45.8844844 39.80469807 44.8454801 41.48703989 43.81054688 43.171875 C43.30458984 43.9659375 42.79863281 44.76 42.27734375 45.578125 C41.60239868 46.67108887 41.60239868 46.67108887 40.91381836 47.78613281 C40.4266333 48.31045898 39.93944824 48.83478516 39.4375 49.375 C38.1175 49.375 36.7975 49.375 35.4375 49.375 C35.4375 37.825 35.4375 26.275 35.4375 14.375 C29.83948065 15.77450484 28.41376761 18.61014402 25.4375 23.375 C18.71199121 35.54218943 14.45036805 48.08350799 10.609375 61.37890625 C9.33897875 65.75437294 7.92517411 70.06857493 6.4375 74.375 C5.1175 74.045 3.7975 73.715 2.4375 73.375 C2.61925781 72.10946289 2.61925781 72.10946289 2.8046875 70.81835938 C5.82047316 49.52530361 5.82047316 49.52530361 6.8125 28.0625 C6.81378906 27.13566406 6.81507812 26.20882812 6.81640625 25.25390625 C6.64419796 13.76005231 6.64419796 13.76005231 2.4375 3.375 C-2.0652985 2.36187034 -4.82347828 3.88714444 -8.625 6.125 C-10.28139063 7.19212162 -11.92856165 8.27380794 -13.5625 9.375 C-14.47 9.973125 -15.3775 10.57125 -16.3125 11.1875 C-21.56860284 16.29759998 -25.39737261 21.82706998 -25.72265625 29.30859375 C-25.40915284 33.35355236 -24.0036605 35.93783163 -21.15234375 38.78125 C-16.44792826 42.60706307 -11.47279716 43.57823962 -5.5625 44.375 C-5.5625 45.035 -5.5625 45.695 -5.5625 46.375 C-12.68585915 47.03457029 -17.59687412 45.32133327 -23.5625 41.375 C-27.31426036 37.87164386 -29.70025327 34.4863037 -29.9375 29.3125 C-29.85712445 22.17055812 -25.76964749 16.10804381 -21.14453125 10.8515625 C-15.30014483 5.39680184 -8.24545031 0.14339914 0 0 Z " fill="#CB6C69" transform="translate(120.5625,200.625)"/>
<path d="M0 0 C1.32 0 2.64 0 4 0 C7.21094856 6.42189712 5.41322432 15.53607287 3.30712891 22.1496582 C1.7838071 26.56096697 0.19581494 30.87515138 -2 35 C-1.05125 34.79375 -0.1025 34.5875 0.875 34.375 C2.421875 34.189375 2.421875 34.189375 4 34 C6 36 6 36 6.125 38.625 C6.08375 39.40875 6.0425 40.1925 6 41 C6.55429687 40.71125 7.10859375 40.4225 7.6796875 40.125 C8.40414062 39.75375 9.12859375 39.3825 9.875 39 C10.59429687 38.62875 11.31359375 38.2575 12.0546875 37.875 C14 37 14 37 16 37 C16 35.35 16 33.7 16 32 C16.99 31.67 17.98 31.34 19 31 C19.495 32.98 19.495 32.98 20 35 C21.32 35 22.64 35 24 35 C23.67 37.97 23.34 40.94 23 44 C27.31987938 41.40807237 29.48837274 39.30564673 32 35 C32.99 35 33.98 35 35 35 C35 36.98 35 38.96 35 41 C38.73143202 40.067142 40.59181307 39.52298951 43 36.4375 C45 34 45 34 48.25 33.1875 C49.1575 33.125625 50.065 33.06375 51 33 C51 33.66 51 34.32 51 35 C49.34467377 36.01866229 47.67739862 37.01810813 46 38 C45.505 38.99 45.505 38.99 45 40 C48.96 39.34 52.92 38.68 57 38 C57.33 36.35 57.66 34.7 58 33 C59.25 31.1875 59.25 31.1875 61 30 C63.6875 29.8125 63.6875 29.8125 66 30 C66.495 31.98 66.495 31.98 67 34 C65.02 33.67 63.04 33.34 61 33 C62.52555966 37.81122847 62.52555966 37.81122847 66 41 C66.94875 40.34 67.8975 39.68 68.875 39 C72 37 72 37 74 37 C72.9161623 39.7588596 71.98691035 41.01033393 69.625 42.875 C66.80502458 44.93608381 66.80502458 44.93608381 64.875 48.25 C64.25625 49.1575 63.6375 50.065 63 51 C62.01 51 61.02 51 60 51 C60.12568359 50.07767578 60.12568359 50.07767578 60.25390625 49.13671875 C60.35574219 48.32847656 60.45757812 47.52023438 60.5625 46.6875 C60.66691406 45.88699219 60.77132812 45.08648437 60.87890625 44.26171875 C61.14755178 41.83182884 61.14755178 41.83182884 60 39 C59.21496094 39.28875 58.42992187 39.5775 57.62109375 39.875 C51.85881284 41.9112416 47.17485043 43.3632265 41 43 C38.66175408 43.29692012 36.32622311 43.62020847 34 44 C33.67 43.01 33.34 42.02 33 41 C32.39671875 41.44472656 31.7934375 41.88945312 31.171875 42.34765625 C30.37265625 42.91355469 29.5734375 43.47945312 28.75 44.0625 C27.96109375 44.63097656 27.1721875 45.19945312 26.359375 45.78515625 C24 47 24 47 21.765625 46.74609375 C20 46 20 46 19 45 C18.95919217 43.00041636 18.95745644 40.99954746 19 39 C14.06529618 40.90107442 9.23100508 42.81741442 4.5625 45.3125 C1 47 1 47 -2 46 C-1.319375 45.071875 -0.63875 44.14375 0.0625 43.1875 C0.701875 42.135625 1.34125 41.08375 2 40 C1.67 39.01 1.34 38.02 1 37 C0.38125 37.99 -0.2375 38.98 -0.875 40 C-1.926875 41.485 -1.926875 41.485 -3 43 C-3.66 43 -4.32 43 -5 43 C-5.33 42.01 -5.66 41.02 -6 40 C-11.30750819 40.32888405 -14.78452259 40.56516656 -19 44 C-21.25 43.6875 -21.25 43.6875 -23 43 C-23 42.01 -23 41.02 -23 40 C-26.3 39.67 -29.6 39.34 -33 39 C-33.103125 40.36125 -33.20625 41.7225 -33.3125 43.125 C-34.40467869 53.80408055 -35.76877636 65.34462309 -43.3125 73.5 C-46.76746042 75.42835 -49.10244707 75.44123241 -53 75 C-55 73 -55 73 -55.125 69.875 C-55.08375 68.92625 -55.0425 67.9775 -55 67 C-53.02 66.01 -53.02 66.01 -51 65 C-51 67.31 -51 69.62 -51 72 C-48.62102997 72.04510361 -48.62102997 72.04510361 -46 71 C-39.48315161 62.70582933 -37.39506702 50.2741774 -37.95703125 39.9765625 C-37.97121094 39.32429688 -37.98539062 38.67203125 -38 38 C-37.67 37.67 -37.34 37.34 -37 37 C-36.91251793 35.07332493 -36.89302666 33.14348139 -36.90234375 31.21484375 C-36.90717773 29.46010742 -36.90717773 29.46010742 -36.91210938 27.66992188 C-36.92048828 26.43822266 -36.92886719 25.20652344 -36.9375 23.9375 C-36.94201172 22.70193359 -36.94652344 21.46636719 -36.95117188 20.19335938 C-36.96300392 17.12885883 -36.97948827 14.06445279 -37 11 C-37.69867188 10.97421875 -38.39734375 10.9484375 -39.1171875 10.921875 C-40.02726562 10.86515625 -40.93734375 10.8084375 -41.875 10.75 C-43.23238281 10.68039063 -43.23238281 10.68039063 -44.6171875 10.609375 C-47 10 -47 10 -48.3203125 7.953125 C-48.54460937 7.30859375 -48.76890625 6.6640625 -49 6 C-47.33871866 3.98729376 -46.45159728 3.08344732 -43.84375 2.6015625 C-42.68359375 2.61316406 -42.68359375 2.61316406 -41.5 2.625 C-40.7265625 2.61726562 -39.953125 2.60953125 -39.15625 2.6015625 C-36.51504154 3.08961189 -35.808586 4.09176739 -34 6 C-30.14885306 6.37756343 -27.22372513 6.06392147 -23.5 5 C-17.6879159 3.38042716 -7.46744432 2.26627784 -2 5 C-1.855625 4.360625 -1.71125 3.72125 -1.5625 3.0625 C-1 1 -1 1 0 0 Z " fill="#CA6C6A" transform="translate(317,207)"/>
<path d="M0 0 C12.54 0 25.08 0 38 0 C38 0.99 38 1.98 38 3 C33.71 3 29.42 3 25 3 C25.09539062 4.19753906 25.19078125 5.39507812 25.2890625 6.62890625 C25.93240203 15.65244244 26.00408478 23.96387677 24.546875 32.93359375 C23.30210671 41.19606084 23.29643186 49.66014269 23 58 C22.39671875 57.97679687 21.7934375 57.95359375 21.171875 57.9296875 C20.37265625 57.91164062 19.5734375 57.89359375 18.75 57.875 C17.96109375 57.85179687 17.1721875 57.82859375 16.359375 57.8046875 C13.79268059 58.0171622 12.2083933 58.71345895 10 60 C11.04874998 57.37812506 11.64931313 56.20628639 14.125 54.75 C14.74375 54.5025 15.3625 54.255 16 54 C16 53.34 16 52.68 16 52 C10.06107964 54.26244585 7.41662234 57.89929786 4 63 C2.1875 62.9375 2.1875 62.9375 0 62 C-2.98455965 56.78875765 -3.39842911 52.47392364 -3.1875 46.5625 C-3.17396484 45.83095703 -3.16042969 45.09941406 -3.14648438 44.34570312 C-3.11153874 42.56347578 -3.05774805 40.78163427 -3 39 C0.96 39 4.92 39 9 39 C9 38.34 9 37.68 9 37 C5.37 37 1.74 37 -2 37 C-2 33.37 -2 29.74 -2 26 C-2.99 26 -3.98 26 -5 26 C-5.33 29.63 -5.66 33.26 -6 37 C-9.3 37 -12.6 37 -16 37 C-14.515 36.505 -14.515 36.505 -13 36 C-12.24791412 33.96785965 -11.51794201 31.92536501 -10.88818359 29.85205078 C-9.87363664 26.594234 -8.70878216 23.41298244 -7.51953125 20.21484375 C-7.12096924 19.14097412 -6.72240723 18.06710449 -6.31176758 16.96069336 C-5.81700928 15.63303955 -5.32225098 14.30538574 -4.8125 12.9375 C-3.224375 8.668125 -1.63625 4.39875 0 0 Z " fill="#FEE3E3" transform="translate(222,187)"/>
<path d="M0 0 C12.21 0 24.42 0 37 0 C40.16206031 6.95653269 43.03450422 13.5669832 45.4375 20.75 C47.61844161 27.10762218 49.85061315 33.4326032 52.3125 39.6875 C52.78300781 40.88761719 53.25351563 42.08773437 53.73828125 43.32421875 C54.71794344 46.11658206 54.71794344 46.11658206 57 47 C57.5625 49.109375 57.5625 49.109375 58 51.75 C58.65658585 55.38727719 59.42688239 58.62903369 61 62 C59.68 61.67 58.36 61.34 57 61 C57 59.02 57 57.04 57 55 C56.01 55 55.02 55 54 55 C53.91621094 55.56203125 53.83242187 56.1240625 53.74609375 56.703125 C52.77104948 59.70483195 51.17188491 61.41556318 49.0625 63.75 C48.35222656 64.54921875 47.64195312 65.3484375 46.91015625 66.171875 C45 68 45 68 43 68 C43.00523682 67.19256348 43.01047363 66.38512695 43.01586914 65.55322266 C43.03659929 61.91048962 43.04964749 58.26776898 43.0625 54.625 C43.07506836 52.71847656 43.07506836 52.71847656 43.08789062 50.7734375 C43.09111328 49.56171875 43.09433594 48.35 43.09765625 47.1015625 C43.10289307 45.98088379 43.10812988 44.86020508 43.11352539 43.70556641 C43.18621466 41.03132657 43.18621466 41.03132657 42 39 C37.57249849 38.57186452 37.57249849 38.57186452 33.83984375 40.72265625 C33.21207031 41.49480469 32.58429688 42.26695312 31.9375 43.0625 C31.26460937 43.8771875 30.59171875 44.691875 29.8984375 45.53125 C27.51345681 48.63270637 25.24800453 51.79829657 23 55 C22.67 55 22.34 55 22 55 C22.01047363 54.26885986 22.02094727 53.53771973 22.03173828 52.78442383 C22.07340289 49.46048441 22.09935956 46.13660005 22.125 42.8125 C22.14175781 41.66201172 22.15851563 40.51152344 22.17578125 39.32617188 C22.18222656 38.21435547 22.18867188 37.10253906 22.1953125 35.95703125 C22.20578613 34.93585205 22.21625977 33.91467285 22.22705078 32.86254883 C21.98999632 29.87387833 21.25617102 27.70576631 20 25 C16.04 25.495 16.04 25.495 12 26 C11.97421875 24.81921875 11.9484375 23.6384375 11.921875 22.421875 C11.86558603 20.86454677 11.80823886 19.30725653 11.75 17.75 C11.73582031 16.97269531 11.72164062 16.19539063 11.70703125 15.39453125 C11.54765901 11.66522078 11.44028004 9.59969178 9.1875 6.53125 C6.29208486 4.5044594 3.41971963 3.78916607 0 3 C0 2.01 0 1.02 0 0 Z " fill="#FEE2E2" transform="translate(138,187)"/>
<path d="M0 0 C28.38 0 56.76 0 86 0 C86.33 10.56 86.66 21.12 87 32 C85.35 32 83.7 32 82 32 C81.690625 30.1128125 81.690625 30.1128125 81.375 28.1875 C79.7710083 21.08731298 76.60730503 13.59722286 70.75 9 C62.98926168 4.50188009 54.68999404 3.52916067 45.875 3.3125 C44.91851562 3.27833984 43.96203125 3.24417969 42.9765625 3.20898438 C40.65115927 3.12759526 38.32608124 3.05810388 36 3 C36.09539062 4.25296875 36.19078125 5.5059375 36.2890625 6.796875 C36.40163079 8.4478766 36.51357747 10.09892067 36.625 11.75 C36.68945312 12.575 36.75390625 13.4 36.8203125 14.25 C36.871875 15.04921875 36.9234375 15.8484375 36.9765625 16.671875 C37.02893066 17.4050293 37.08129883 18.13818359 37.13525391 18.89355469 C36.97767085 21.34775441 36.22264839 22.88853213 35 25 C33.83082031 24.98839844 32.66164063 24.97679687 31.45703125 24.96484375 C29.90885577 24.95546087 28.36067855 24.9463612 26.8125 24.9375 C26.04357422 24.92912109 25.27464844 24.92074219 24.48242188 24.91210938 C23.35610352 24.90727539 23.35610352 24.90727539 22.20703125 24.90234375 C21.17799683 24.89448853 21.17799683 24.89448853 20.12817383 24.88647461 C17.49967218 24.97560891 17.49967218 24.97560891 13 26 C13 18.41 13 10.82 13 3 C8.71 3 4.42 3 0 3 C0 2.01 0 1.02 0 0 Z " fill="#FEE3E3" transform="translate(280,187)"/>
<path d="M0 0 C0.66 0.33 1.32 0.66 2 1 C1.46930939 4.82097239 0.50298434 7.06171403 -2 10 C-1.505 10.99 -1.505 10.99 -1 12 C-0.98363315 14.10709392 -1.03573856 16.21488448 -1.12109375 18.3203125 C-1.16943359 19.57714844 -1.21777344 20.83398438 -1.26757812 22.12890625 C-1.32365234 23.44761719 -1.37972656 24.76632812 -1.4375 26.125 C-1.49072413 27.46482438 -1.54346451 28.80466808 -1.59570312 30.14453125 C-1.72569893 33.4298797 -1.86224059 36.71496793 -2 40 C2.29 40 6.58 40 11 40 C11 40.99 11 41.98 11 43 C-5.17 43 -21.34 43 -38 43 C-38 42.01 -38 41.02 -38 40 C-33.71 40 -29.42 40 -25 40 C-25 27.79 -25 15.58 -25 3 C-24.34 3.33 -23.68 3.66 -23 4 C-23 4.99 -23 5.98 -23 7 C-19.06924356 6.42547254 -19.06924356 6.42547254 -16 4 C-13.6171875 3.5859375 -13.6171875 3.5859375 -10.875 3.375 C-9.96492188 3.30023438 -9.05484375 3.22546875 -8.1171875 3.1484375 C-7.41851562 3.09945312 -6.71984375 3.05046875 -6 3 C-6 4.32 -6 5.64 -6 7 C-3.72478134 4.83312509 -1.84205838 2.54379491 0 0 Z " fill="#FEE3E3" transform="translate(318,243)"/>
<path d="M0 0 C2.42428744 4.84857488 3.08231706 7.4166669 2.87890625 12.9765625 C2.84348976 14.00443375 2.84348976 14.00443375 2.80735779 15.05307007 C2.73072143 17.24392416 2.64669754 19.43442472 2.5625 21.625 C2.50927924 23.10935764 2.45653884 24.59373259 2.40429688 26.078125 C2.2751067 29.71896737 2.13928926 33.35952844 2 37 C5.96 37 9.92 37 14 37 C14 37.99 14 38.98 14 40 C-1.84 40 -17.68 40 -34 40 C-34 39.01 -34 38.02 -34 37 C-29.71 37 -25.42 37 -21 37 C-21.33 26.77 -21.66 16.54 -22 6 C-18.37 5.01 -14.74 4.02 -11 3 C-10.34 2.34 -9.68 1.68 -9 1 C-6.8359375 0.5859375 -6.8359375 0.5859375 -4.375 0.375 C-3.14910156 0.26285156 -3.14910156 0.26285156 -1.8984375 0.1484375 C-1.27195313 0.09945312 -0.64546875 0.05046875 0 0 Z " fill="#FEE3E3" transform="translate(245,246)"/>
<path d="M0 0 C0.74378906 -0.02835938 1.48757812 -0.05671875 2.25390625 -0.0859375 C5.35369052 0.56839979 6.48055757 1.92569253 8.4375 4.375 C14.08808713 17.04665249 11.93455462 33.98170782 10.4375 47.375 C10.80101562 46.34761719 11.16453125 45.32023437 11.5390625 44.26171875 C20.38144729 19.69392269 20.38144729 19.69392269 30.4375 11.375 C33.02241402 10.40260323 34.63475769 10.31660954 37.4375 10.375 C41.32386184 16.18924212 40.78124417 21.94736923 40.625 28.75 C40.60469727 30.42642578 40.60469727 30.42642578 40.58398438 32.13671875 C40.54877164 34.88331211 40.49952096 37.62890289 40.4375 40.375 C40.76000732 39.89796631 41.08251465 39.42093262 41.41479492 38.92944336 C41.84896729 38.30175049 42.28313965 37.67405762 42.73046875 37.02734375 C43.36891724 36.09523071 43.36891724 36.09523071 44.02026367 35.14428711 C46.14105774 32.49667392 48.51955918 31.07147722 51.4375 29.375 C49.80576255 34.09603812 47.28503599 38.04019664 44.5625 42.1875 C44.12808594 42.88037109 43.69367188 43.57324219 43.24609375 44.28710938 C41.9453125 46.26953125 41.9453125 46.26953125 39.4375 49.375 C38.1175 49.375 36.7975 49.375 35.4375 49.375 C35.4375 37.825 35.4375 26.275 35.4375 14.375 C29.83948065 15.77450484 28.41376761 18.61014402 25.4375 23.375 C18.71199121 35.54218943 14.45036805 48.08350799 10.609375 61.37890625 C9.33897875 65.75437294 7.92517411 70.06857493 6.4375 74.375 C5.1175 74.045 3.7975 73.715 2.4375 73.375 C2.61925781 72.10946289 2.61925781 72.10946289 2.8046875 70.81835938 C5.82047316 49.52530361 5.82047316 49.52530361 6.8125 28.0625 C6.81378906 27.13566406 6.81507812 26.20882812 6.81640625 25.25390625 C6.64419796 13.76005231 6.64419796 13.76005231 2.4375 3.375 C-2.0652985 2.36187034 -4.82347828 3.88714444 -8.625 6.125 C-10.28139063 7.19212162 -11.92856165 8.27380794 -13.5625 9.375 C-14.47 9.973125 -15.3775 10.57125 -16.3125 11.1875 C-21.56860284 16.29759998 -25.39737261 21.82706998 -25.72265625 29.30859375 C-25.40915284 33.35355236 -24.0036605 35.93783163 -21.15234375 38.78125 C-16.44792826 42.60706307 -11.47279716 43.57823962 -5.5625 44.375 C-5.5625 45.035 -5.5625 45.695 -5.5625 46.375 C-12.68585915 47.03457029 -17.59687412 45.32133327 -23.5625 41.375 C-27.31426036 37.87164386 -29.70025327 34.4863037 -29.9375 29.3125 C-29.85712445 22.17055812 -25.76964749 16.10804381 -21.14453125 10.8515625 C-15.30014483 5.39680184 -8.24545031 0.14339914 0 0 Z " fill="#CA6D6A" transform="translate(120.5625,200.625)"/>
<path d="M0 0 C-0.66 10.23 -1.32 20.46 -2 31 C-7 32 -7 32 -9.5625 31.9375 C-12.24263823 32.00622149 -13.71710543 32.64717359 -16 34 C-14.19587357 30.73539027 -13.16605307 29.11070205 -10 27 C-12.93552365 27.43489239 -13.94384309 27.94214136 -16.0625 30.125 C-19 32 -19 32 -30 31 C-30 22.09 -30 13.18 -30 4 C-18.77707163 0.57967897 -12.52946657 0 0 0 Z " fill="#FEE2E2" transform="translate(314,213)"/>
<path d="M0 0 C1.32 0 2.64 0 4 0 C4.26682881 4.91025911 4.49987341 9.82053407 4.7019043 14.73388672 C4.77533898 16.40456624 4.85794933 18.07486893 4.94995117 19.74462891 C5.08071981 22.14705599 5.17827993 24.5489125 5.26953125 26.953125 C5.31721146 27.69806213 5.36489166 28.44299927 5.41401672 29.21051025 C5.47583008 31.33300781 5.47583008 31.33300781 5 35 C2.6081543 37.50292969 2.6081543 37.50292969 0 39 C-0.66 39 -1.32 39 -2 39 C-2.125 32.25 -2.125 32.25 -1 30 C-2.65 30.33 -4.3 30.66 -6 31 C-6 29.35 -6 27.7 -6 26 C-6.66 26.33 -7.32 26.66 -8 27 C-8.04125 27.763125 -8.0825 28.52625 -8.125 29.3125 C-9 32 -9 32 -10.76953125 33.21875 C-16.28236607 36 -16.28236607 36 -19 36 C-19.66 34.02 -20.32 32.04 -21 30 C-22.98 30 -24.96 30 -27 30 C-26.54554036 28.58208592 -26.08625056 27.16571954 -25.625 25.75 C-25.24214844 24.56664062 -25.24214844 24.56664062 -24.8515625 23.359375 C-24.04826333 21.13372042 -23.10288338 19.09068328 -22 17 C-20.91332031 17.06960937 -20.91332031 17.06960937 -19.8046875 17.140625 C-13.67144137 17.36959952 -9.72768727 17.37311072 -5 13 C-1.90857364 9.02530897 -1.0652373 4.8345385 0 0 Z " fill="#FEE3E3" transform="translate(342,212)"/>
<path d="M0 0 C2.140625 0.390625 2.140625 0.390625 4 1 C4.10709533 12.72098848 3.99140649 24.31556633 3 36 C2.34 36 1.68 36 1 36 C1.11063216 39.3756301 1.24108015 42.75021989 1.375 46.125 C1.4059375 47.07632813 1.436875 48.02765625 1.46875 49.0078125 C1.72030593 55.04515482 1.95087286 60.38559641 5.8125 65.3125 C8.25341293 67.19548997 9.96499013 67.66277668 13 68 C13 69.32 13 70.64 13 72 C3.43 72 -6.14 72 -16 72 C-15.67 70.68 -15.34 69.36 -15 68 C-12.68020619 66.96898053 -10.34570085 65.97063483 -8 65 C-4.54840747 61.3183013 -3.8741655 57.96042254 -3.88647461 53.02539062 C-3.88655014 52.01424194 -3.88662567 51.00309326 -3.88670349 49.96130371 C-3.89444542 48.32530212 -3.89444542 48.32530212 -3.90234375 46.65625 C-3.90446617 44.97529236 -3.90446617 44.97529236 -3.90663147 43.26037598 C-3.9122349 39.673557 -3.92478085 36.08680012 -3.9375 32.5 C-3.94251519 30.08203216 -3.94707806 27.66406333 -3.95117188 25.24609375 C-3.96101667 19.92295572 -3.97523692 14.59984973 -3.99327087 9.2767334 C-4.00883325 4.01135704 -4.00883325 4.01135704 -2.25 1.75 C-1.5075 1.1725 -0.765 0.595 0 0 Z " fill="#FEE5E5" transform="translate(153,214)"/>
<path d="M0 0 C0.66 0.66 1.32 1.32 2 2 C1.57589844 3.07894531 1.15179688 4.15789062 0.71484375 5.26953125 C-3.66882786 16.46118725 -7.88140055 27.7082775 -12 39 C-13.32 39 -14.64 39 -16 39 C-17.48768614 34.96141847 -18.96362846 30.91864149 -20.4375 26.875 C-21.06881836 25.16183594 -21.06881836 25.16183594 -21.71289062 23.4140625 C-22.11572266 22.30546875 -22.51855469 21.196875 -22.93359375 20.0546875 C-23.30540771 19.03874512 -23.67722168 18.02280273 -24.06030273 16.97607422 C-25.00358678 13.98864045 -25.56170916 11.09833252 -26 8 C-25.34 8.66 -24.68 9.32 -24 10 C-21.116025 10.21790719 -21.116025 10.21790719 -18 9 C-16.50715088 7.32378001 -16.50715088 7.32378001 -15.125 5.375 C-13.640625 3.4453125 -13.640625 3.4453125 -12 2 C-9.17769495 1.81403416 -6.80941969 2.45624135 -4 3 C-1.51990778 1.72927975 -1.51990778 1.72927975 0 0 Z " fill="#FEE3E3" transform="translate(203,247)"/>
<path d="M0 0 C0.495 1.98 0.495 1.98 1 4 C-0.98 3.67 -2.96 3.34 -5 3 C-3.47444034 7.81122847 -3.47444034 7.81122847 0 11 C0.94875 10.34 1.8975 9.68 2.875 9 C6 7 6 7 8 7 C6.9161623 9.7588596 5.98691035 11.01033393 3.625 12.875 C0.80502458 14.93608381 0.80502458 14.93608381 -1.125 18.25 C-1.74375 19.1575 -2.3625 20.065 -3 21 C-3.99 21 -4.98 21 -6 21 C-5.91621094 20.38511719 -5.83242188 19.77023437 -5.74609375 19.13671875 C-5.64425781 18.32847656 -5.54242188 17.52023438 -5.4375 16.6875 C-5.33308594 15.88699219 -5.22867188 15.08648437 -5.12109375 14.26171875 C-4.85244822 11.83182884 -4.85244822 11.83182884 -6 9 C-6.78503906 9.28875 -7.57007813 9.5775 -8.37890625 9.875 C-14.14118716 11.9112416 -18.82514957 13.3632265 -25 13 C-27.33824592 13.29692012 -29.67377689 13.62020847 -32 14 C-32.495 12.515 -32.495 12.515 -33 11 C-33.60328125 11.44472656 -34.2065625 11.88945312 -34.828125 12.34765625 C-35.62734375 12.91355469 -36.4265625 13.47945312 -37.25 14.0625 C-38.03890625 14.63097656 -38.8278125 15.19945312 -39.640625 15.78515625 C-42 17 -42 17 -44.234375 16.74609375 C-46 16 -46 16 -47 15 C-47.04080783 13.00041636 -47.04254356 10.99954746 -47 9 C-51.93470382 10.90107442 -56.76899492 12.81741442 -61.4375 15.3125 C-65 17 -65 17 -68 16 C-67.360625 15.113125 -66.72125 14.22625 -66.0625 13.3125 C-64.19170243 10.30788572 -63.40576034 8.4489629 -63 5 C-62.01 5.33 -61.02 5.66 -60 6 C-60 7.65 -60 9.3 -60 11 C-59.44570313 10.71125 -58.89140625 10.4225 -58.3203125 10.125 C-57.23363281 9.568125 -57.23363281 9.568125 -56.125 9 C-55.40570313 8.62875 -54.68640625 8.2575 -53.9453125 7.875 C-52 7 -52 7 -50 7 C-50 5.35 -50 3.7 -50 2 C-49.01 1.67 -48.02 1.34 -47 1 C-46.67 2.32 -46.34 3.64 -46 5 C-44.68 5 -43.36 5 -42 5 C-42.33 7.97 -42.66 10.94 -43 14 C-38.68012062 11.40807237 -36.51162726 9.30564673 -34 5 C-33.01 5 -32.02 5 -31 5 C-31 6.98 -31 8.96 -31 11 C-27.26856798 10.067142 -25.40818693 9.52298951 -23 6.4375 C-21 4 -21 4 -17.75 3.1875 C-16.8425 3.125625 -15.935 3.06375 -15 3 C-15 3.66 -15 4.32 -15 5 C-16.65532623 6.01866229 -18.32260138 7.01810813 -20 8 C-20.33 8.66 -20.66 9.32 -21 10 C-17.04 9.34 -13.08 8.68 -9 8 C-8.67 6.35 -8.34 4.7 -8 3 C-5.73951914 -0.27769724 -3.8404654 -0.31138909 0 0 Z " fill="#CB6F6D" transform="translate(383,237)"/>
<path d="M0 0 C1.32 0.33 2.64 0.66 4 1 C4.47166754 11.23256522 3.85821022 20.51215483 1.42285156 30.48950195 C-0.61088592 38.33258759 -0.61088592 38.33258759 1 46 C3.28694223 46.50379029 3.28694223 46.50379029 6 46 C7.89974968 44.15422049 9.37656978 42.10607164 11 40 C11.66 40 12.32 40 13 40 C11.60870061 44.86954788 9.13332746 47.16340273 5 50 C2.375 50.5625 2.375 50.5625 0 50 C-2.79035429 47.7522146 -3.85910005 46.42269984 -5 43 C-5.94875 43.04125 -6.8975 43.0825 -7.875 43.125 C-11 43 -11 43 -13 41 C-9.71023192 39.90341064 -8.28696233 40.20046862 -5 41 C-5.01047363 40.4423999 -5.02094727 39.8847998 -5.03173828 39.31030273 C-5.53776248 8.13216627 -5.53776248 8.13216627 0 0 Z " fill="#D17D7B" transform="translate(250,204)"/>
<path d="M0 0 C0 9.57 0 19.14 0 29 C-2.97 29 -5.94 29 -9 29 C-9 20.09 -9 11.18 -9 2 C-3 0 -3 0 0 0 Z " fill="#FEFDFD" transform="translate(293,215)"/>
<path d="M0 0 C3.3 0 6.6 0 10 0 C10.08078777 3.43796837 10.14039791 6.87404727 10.1875 10.3125 C10.22520508 11.77719727 10.22520508 11.77719727 10.26367188 13.27148438 C10.27817383 14.67817383 10.27817383 14.67817383 10.29296875 16.11328125 C10.31653442 17.40939331 10.31653442 17.40939331 10.34057617 18.73168945 C10 21 10 21 8.6418457 22.80932617 C7 24 7 24 4.4375 23.9375 C2 23 2 23 0.85986328 21.22558594 C-0.08165128 18.78866182 -0.23048799 17.05611104 -0.1953125 14.453125 C-0.18886719 13.60878906 -0.18242187 12.76445312 -0.17578125 11.89453125 C-0.15902344 11.02183594 -0.14226562 10.14914063 -0.125 9.25 C-0.11597656 8.36183594 -0.10695312 7.47367188 -0.09765625 6.55859375 C-0.0741475 4.37227989 -0.03827811 2.18610516 0 0 Z " fill="#FCF7F7" transform="translate(206,226)"/>
<path d="M0 0 C4.03899214 2.01949607 6.56295579 4.20904234 9 8 C8.01 8 7.02 8 6 8 C5.67 7.34 5.34 6.68 5 6 C4.34 6 3.68 6 3 6 C3 6.7425 3 7.485 3 8.25 C1.8073273 11.52984992 1.08221883 11.78898905 -1.9375 13.3125 C-5.61264822 15 -5.61264822 15 -8 15 C-8.66 13.02 -9.32 11.04 -10 9 C-11.98 9 -13.96 9 -16 9 C-13.68676948 -0.6088037 -9.12143547 -1.07003964 0 0 Z " fill="#FDFAFA" transform="translate(331,233)"/>
<path d="M0 0 C2.16150801 3.24226201 3.50164347 6.54102967 4.890625 10.15234375 C5.15889099 10.84888565 5.42715698 11.54542755 5.70355225 12.26307678 C6.26722631 13.73399678 6.82855503 15.2058174 7.38769531 16.6784668 C7.96288531 18.18532779 8.54493631 19.68958759 9.13378906 21.19116211 C9.98442316 23.36027907 10.81465941 25.5362329 11.640625 27.71484375 C11.90715881 28.38474838 12.17369263 29.05465302 12.44830322 29.74485779 C14.18766823 34.4339178 14.18766823 34.4339178 13.22583008 37.33520508 C12.82130615 37.8845874 12.41678223 38.43396973 12 39 C11.58621094 39.63421875 11.17242187 40.2684375 10.74609375 40.921875 C10.31425781 41.52515625 9.88242188 42.1284375 9.4375 42.75 C8.78587891 43.67039062 8.78587891 43.67039062 8.12109375 44.609375 C7.56615234 45.29773438 7.56615234 45.29773438 7 46 C6.67 46 6.34 46 6 46 C6.01047363 45.26885986 6.02094727 44.53771973 6.03173828 43.78442383 C6.07340289 40.46048441 6.09935956 37.13660005 6.125 33.8125 C6.14175781 32.66201172 6.15851563 31.51152344 6.17578125 30.32617188 C6.18544922 28.65844727 6.18544922 28.65844727 6.1953125 26.95703125 C6.20578613 25.93585205 6.21625977 24.91467285 6.22705078 23.86254883 C5.98337525 20.79040299 5.51788059 18.68578044 4 16 C2.68 15.67 1.36 15.34 0 15 C0 10.05 0 5.1 0 0 Z " fill="#FDFAFA" transform="translate(154,196)"/>
<path d="M0 0 C0.66 0.33 1.32 0.66 2 1 C2.18451025 20.00455581 2.18451025 20.00455581 1 28 C-1.61943903 25.38056097 -2.44197838 22.42526027 -3.625 19 C-3.85445312 18.35804688 -4.08390625 17.71609375 -4.3203125 17.0546875 C-6 12.27557664 -6 12.27557664 -6 10 C-6.66 9.67 -7.32 9.34 -8 9 C-5.36 6.03 -2.72 3.06 0 0 Z " fill="#FEE2E2" transform="translate(176,227)"/>
<path d="M0 0 C0.33 1.32 0.66 2.64 1 4 C-1.97 3.505 -1.97 3.505 -5 3 C-3.47444034 7.81122847 -3.47444034 7.81122847 0 11 C0.94875 10.34 1.8975 9.68 2.875 9 C6 7 6 7 8 7 C6.9161623 9.7588596 5.98691035 11.01033393 3.625 12.875 C0.80502458 14.93608381 0.80502458 14.93608381 -1.125 18.25 C-1.74375 19.1575 -2.3625 20.065 -3 21 C-3.99 21 -4.98 21 -6 21 C-5.89300781 20.39671875 -5.78601563 19.7934375 -5.67578125 19.171875 C-4.74537808 14.23350355 -4.74537808 14.23350355 -6.4375 9.75 C-6.953125 9.1725 -7.46875 8.595 -8 8 C-8.42644513 5.08595831 -8.43575437 3.66509877 -6.8125 1.1875 C-4.44017475 -0.36678206 -2.77958655 -0.22537188 0 0 Z " fill="#C96A68" transform="translate(383,237)"/>
<path d="M0 0 C2.125 0.375 2.125 0.375 4 1 C4.3690205 18.85649203 4.3690205 18.85649203 2 27 C1.34 27 0.68 27 0 27 C0.03480469 26.10796875 0.06960937 25.2159375 0.10546875 24.296875 C0.13253906 23.12640625 0.15960938 21.9559375 0.1875 20.75 C0.22230469 19.58984375 0.25710937 18.4296875 0.29296875 17.234375 C-0.02958306 13.67340299 -0.82994969 12.6982107 -3 10 C-3.20130447 7.11644951 -2.60364915 4.87894212 -2 2 C-1.34 1.34 -0.68 0.68 0 0 Z " fill="#C96865" transform="translate(250,204)"/>
<path d="M0 0 C1.65 0 3.3 0 5 0 C5 7.59 5 15.18 5 23 C4.01 22.67 3.02 22.34 2 22 C-0.22587586 17.20920758 -0.24625113 12.78283658 -0.125 7.625 C-0.11597656 6.88894531 -0.10695312 6.15289062 -0.09765625 5.39453125 C-0.07430144 3.5962112 -0.03843836 1.79806089 0 0 Z " fill="#FDF7F7" transform="translate(219,226)"/>
<path d="M0 0 C0.33 0 0.66 0 1 0 C1 8.91 1 17.82 1 27 C-0.32 27 -1.64 27 -3 27 C-3.06058594 26.32453125 -3.12117187 25.6490625 -3.18359375 24.953125 C-3.26738281 24.06109375 -3.35117188 23.1690625 -3.4375 22.25 C-3.51871094 21.36828125 -3.59992188 20.4865625 -3.68359375 19.578125 C-3.89426927 17.0720114 -3.89426927 17.0720114 -4.6875 15.09375 C-5.18440567 11.76448201 -3.82080819 9.31904436 -2.5625 6.25 C-2.08941406 5.07953125 -1.61632812 3.9090625 -1.12890625 2.703125 C-0.75636719 1.81109375 -0.38382813 0.9190625 0 0 Z " fill="#FEFCFC" transform="translate(223,196)"/>
<path d="M0 0 C0 0.66 0 1.32 0 2 C-1.65532623 3.01866229 -3.32260138 4.01810813 -5 5 C-5.33 5.66 -5.66 6.32 -6 7 C-2.04 6.34 1.92 5.68 6 5 C6.33 3.68 6.66 2.36 7 1 C7.33 2.65 7.66 4.3 8 6 C1.82006922 8.5032631 -3.23913393 10.39004997 -10 10 C-12.33824592 10.29692012 -14.67377689 10.62020847 -17 11 C-15 8 -15 8 -12.625 7.125 C-9.35113222 5.72191381 -8.09824833 3.82178224 -6 1 C-4 0 -4 0 0 0 Z " fill="#D07D7A" transform="translate(368,240)"/>
<path d="M0 0 C0.99 0.33 1.98 0.66 3 1 C3.02940458 4.16664666 3.04693315 7.33325747 3.0625 10.5 C3.07087891 11.386875 3.07925781 12.27375 3.08789062 13.1875 C3.10763596 18.55823086 2.78835893 23.68633663 2 29 C1.34 29 0.68 29 0 29 C0 19.43 0 9.86 0 0 Z " fill="#FDF9F9" transform="translate(154,214)"/>
<path d="M0 0 C1.98 0 3.96 0 6 0 C5.35731596 4.45143264 4.29333357 8.58881647 2.9375 12.875 C2.57527344 14.02742187 2.21304688 15.17984375 1.83984375 16.3671875 C1.56269531 17.23601562 1.28554687 18.10484375 1 19 C0.67 19 0.34 19 0 19 C0 12.73 0 6.46 0 0 Z " fill="#FDE5E5" transform="translate(206,226)"/>
<path d="M0 0 C0.66 0 1.32 0 2 0 C2 2.31 2 4.62 2 7 C5.95820859 6.43454163 8.6659053 5.19097652 12 3 C11.64393309 5.58148508 11.16671807 6.82045747 9.375 8.75 C6.11092949 10.46793185 3.63230308 10.33632436 0 10 C-2 8 -2 8 -2.25 5 C-2 2 -2 2 0 0 Z " fill="#CB706D" transform="translate(264,272)"/>
<path d="M0 0 C1.23556641 0.01740234 1.23556641 0.01740234 2.49609375 0.03515625 C3.32238281 0.04417969 4.14867187 0.05320313 5 0.0625 C5.63808594 0.07410156 6.27617187 0.08570313 6.93359375 0.09765625 C5.94359375 0.59265625 5.94359375 0.59265625 4.93359375 1.09765625 C5.59359375 2.41765625 6.25359375 3.73765625 6.93359375 5.09765625 C4.29359375 5.09765625 1.65359375 5.09765625 -1.06640625 5.09765625 C-1.06640625 5.75765625 -1.06640625 6.41765625 -1.06640625 7.09765625 C-2.38640625 6.43765625 -3.70640625 5.77765625 -5.06640625 5.09765625 C-2.6606399 0.12573913 -2.6606399 0.12573913 0 0 Z " fill="#CE7774" transform="translate(273.06640625,209.90234375)"/>
<path d="M0 0 C1.65 0 3.3 0 5 0 C5.66 0.66 6.32 1.32 7 2 C6.69208308 3.671549 6.35613097 5.33805547 6 7 C6.36856864 9.23167185 6.36856864 9.23167185 7 11 C6.566875 10.525625 6.13375 10.05125 5.6875 9.5625 C3.97690387 7.76313043 3.97690387 7.76313043 1 7 C0.67 8.32 0.34 9.64 0 11 C0 7.37 0 3.74 0 0 Z " fill="#DB9B9A" transform="translate(318,304)"/>
<path d="M0 0 C1.65 0 3.3 0 5 0 C5.66 0.66 6.32 1.32 7 2 C6.69208308 3.671549 6.35613097 5.33805547 6 7 C6.36856864 9.23167185 6.36856864 9.23167185 7 11 C6.566875 10.525625 6.13375 10.05125 5.6875 9.5625 C3.97690387 7.76313043 3.97690387 7.76313043 1 7 C0.67 8.32 0.34 9.64 0 11 C0 7.37 0 3.74 0 0 Z " fill="#DB9B9A" transform="translate(292,304)"/>
<path d="M0 0 C0.99 0.33 1.98 0.66 3 1 C3 2.65 3 4.3 3 6 C3.66 6 4.32 6 5 6 C4 9 4 9 1.125 10.75 C-2 12 -2 12 -5 11 C-4.360625 10.113125 -3.72125 9.22625 -3.0625 8.3125 C-1.19170243 5.30788572 -0.40576034 3.4489629 0 0 Z " fill="#C86764" transform="translate(320,242)"/>
<path d="M0 0 C2 1 2 1 2.8515625 3.28515625 C3.10679687 4.20167969 3.36203125 5.11820312 3.625 6.0625 C3.88539063 6.98160156 4.14578125 7.90070313 4.4140625 8.84765625 C4.60742188 9.55792969 4.80078125 10.26820313 5 11 C4.34 11 3.68 11 3 11 C3 10.01 3 9.02 3 8 C1.35 8 -0.3 8 -2 8 C-2.33 8.99 -2.66 9.98 -3 11 C-4 8 -4 8 -3.22265625 5.95703125 C-2.83980469 5.24933594 -2.45695313 4.54164063 -2.0625 3.8125 C-1.68222656 3.09707031 -1.30195313 2.38164062 -0.91015625 1.64453125 C-0.60980469 1.10183594 -0.30945313 0.55914062 0 0 Z " fill="#D99795" transform="translate(184,304)"/>
<path d="M0 0 C0.33 0 0.66 0 1 0 C0.88496731 2.5216376 0.75825223 5.0418119 0.625 7.5625 C0.5940625 8.26697266 0.563125 8.97144531 0.53125 9.69726562 C0.27047442 14.41295741 -0.54658123 18.50385496 -2 23 C-2.33 23 -2.66 23 -3 23 C-3.41467342 14.98298054 -1.85939879 7.78069851 0 0 Z " fill="#F5DEDE" transform="translate(318,211)"/>
<path d="M0 0 C3 1 3 1 4.625 3.875 C6 7 6 7 7 10 C6.01 10 5.02 10 4 10 C3.67 9.01 3.34 8.02 3 7 C2.67 8.32 2.34 9.64 2 11 C1.34 11 0.68 11 0 11 C0 7.37 0 3.74 0 0 Z " fill="#D68E8C" transform="translate(163,304)"/>
<path d="M0 0 C0.99 0 1.98 0 3 0 C3.12375 0.94875 3.2475 1.8975 3.375 2.875 C3.71687177 6.08667191 3.71687177 6.08667191 6 8 C4.35 8 2.7 8 1 8 C1 7.34 1 6.68 1 6 C0.38125 6.495 -0.2375 6.99 -0.875 7.5 C-3 9 -3 9 -5 9 C-3.49901406 5.88256767 -1.97568178 2.84498177 0 0 Z " fill="#C86663" transform="translate(349,242)"/>
<path d="M0 0 C0.61875 0.28875 1.2375 0.5775 1.875 0.875 C6.15866124 2.41711805 10.52928212 3.18398547 15 4 C15 4.66 15 5.32 15 6 C9.01006953 6.3152595 5.36439644 5.68219822 0 3 C0 2.01 0 1.02 0 0 Z " fill="#CE7775" transform="translate(100,241)"/>
<path d="M0 0 C1.98 0 3.96 0 6 0 C4.68 0.33 3.36 0.66 2 1 C2 2.32 2 3.64 2 5 C3.32 5.33 4.64 5.66 6 6 C4.68 6 3.36 6 2 6 C2 7.32 2 8.64 2 10 C3.32 10.33 4.64 10.66 6 11 C4.02 11 2.04 11 0 11 C0 7.37 0 3.74 0 0 Z " fill="#D38582" transform="translate(305,304)"/>
<path d="M0 0 C1.98 0 3.96 0 6 0 C4.68 0.33 3.36 0.66 2 1 C2 2.32 2 3.64 2 5 C3.32 5 4.64 5 6 5 C6 5.66 6 6.32 6 7 C4.68 7 3.36 7 2 7 C2 8.32 2 9.64 2 11 C1.34 11 0.68 11 0 11 C0 7.37 0 3.74 0 0 Z " fill="#D7918F" transform="translate(225,304)"/>
<path d="M0 0 C2.72107452 2.3500189 3.96702492 4.55674975 5 8 C4.67 8.99 4.34 9.98 4 11 C2.515 8.03 2.515 8.03 1 5 C0.01 6.485 0.01 6.485 -1 8 C-1.98095748 9.01868662 -2.97702078 10.02351983 -4 11 C-3.5247412 9.35303396 -3.04468109 7.70745272 -2.5625 6.0625 C-2.29566406 5.14597656 -2.02882812 4.22945313 -1.75390625 3.28515625 C-1 1 -1 1 0 0 Z " fill="#D38583" transform="translate(240,304)"/>
<path d="M0 0 C2.64 0 5.28 0 8 0 C7.01 0.33 6.02 0.66 5 1 C5 4.3 5 7.6 5 11 C4.34 11 3.68 11 3 11 C3 8.03 3 5.06 3 2 C2.01 2 1.02 2 0 2 C0 1.34 0 0.68 0 0 Z " fill="#D89391" transform="translate(263,304)"/>
<path d="M0 0 C0.66 0 1.32 0 2 0 C0.70224692 3.89325923 -0.62890501 6.56532028 -4 9 C-7.25 8.75 -7.25 8.75 -10 8 C-10 7.67 -10 7.34 -10 7 C-9.0925 6.773125 -8.185 6.54625 -7.25 6.3125 C-3.5332207 4.81149298 -2.33489065 3.16878017 0 0 Z " fill="#CF7B79" transform="translate(261,244)"/>
<path d="M0 0 C-3.58752742 1.86551426 -7.27812193 3.42535928 -11 5 C-11 4.01 -11 3.02 -11 2 C-6.89657963 -0.38570952 -4.61380251 -1.49270081 0 0 Z " fill="#CF7A78" transform="translate(336,245)"/>
<path d="M0 0 C0.66 0.33 1.32 0.66 2 1 C1.125 5.75 1.125 5.75 0 8 C-0.66 8 -1.32 8 -2 8 C-2.125 5.125 -2.125 5.125 -2 2 C-1.34 1.34 -0.68 0.68 0 0 Z " fill="#F9EDEC" transform="translate(318,243)"/>
<path d="M0 0 C0.66 0 1.32 0 2 0 C2 3.63 2 7.26 2 11 C1.67 11 1.34 11 1 11 C0.67 9.02 0.34 7.04 0 5 C-0.66 5.66 -1.32 6.32 -2 7 C-1.125 1.125 -1.125 1.125 0 0 Z " fill="#CD7472" transform="translate(172,304)"/>
<path d="M0 0 C2.875 -0.1875 2.875 -0.1875 6 0 C6.66 0.99 7.32 1.98 8 3 C5.36 3 2.72 3 0 3 C0 2.01 0 1.02 0 0 Z " fill="#FBF5F5" transform="translate(272,212)"/>
<path d="M0 0 C0.99 0.33 1.98 0.66 3 1 C-1.30769231 4.93846154 -1.30769231 4.93846154 -4.8125 5.25 C-5.534375 5.1675 -6.25625 5.085 -7 5 C-6.401875 4.731875 -5.80375 4.46375 -5.1875 4.1875 C-3.02775192 3.01506533 -1.64209744 1.80630718 0 0 Z " fill="#D07976" transform="translate(201,246)"/>
<path d="M0 0 C1.32 0.66 2.64 1.32 4 2 C1.33333333 3.33333333 -1.33333333 4.66666667 -4 6 C-1.125 1.125 -1.125 1.125 0 0 Z " fill="#F3C9C8" transform="translate(302,241)"/>
</svg>
