<?xml version="1.0" standalone="no"?>
<!DOCTYPE svg PUBLIC "-//W3C//DTD SVG 20010904//EN"
 "http://www.w3.org/TR/2001/REC-SVG-20010904/DTD/svg10.dtd">
<svg version="1.0" xmlns="http://www.w3.org/2000/svg"
 width="500.000000pt" height="500.000000pt" viewBox="0 0 500.000000 500.000000"
 preserveAspectRatio="xMidYMid meet">

<g transform="translate(0.000000,500.000000) scale(0.100000,-0.100000)"
fill="#000000" stroke="none">
<path d="M0 2500 l0 -2500 2500 0 2500 0 0 2500 0 2500 -2500 0 -2500 0 0
-2500z m2245 2250 c3 -5 17 -10 31 -10 13 0 24 -4 24 -9 0 -5 -32 -8 -72 -6
-52 2 -63 1 -38 -5 35 -7 35 -7 -12 -9 -25 0 -55 -4 -65 -7 -32 -10 18 18 57
33 l35 12 -30 1 c-16 0 -45 -9 -62 -20 -27 -16 -33 -17 -33 -5 0 8 15 19 33
24 44 13 124 13 132 1z m48 3 c-7 -2 -19 -2 -25 0 -7 3 -2 5 12 5 14 0 19 -2
13 -5z m356 -4 c-8 -5 -32 -6 -54 -4 -28 3 -33 2 -15 -3 14 -4 -37 -8 -117 -7
-78 0 -144 2 -146 5 -3 3 16 4 41 3 27 -2 40 0 30 5 -10 4 48 8 129 8 83 1
139 -2 132 -7z m206 -12 c24 -3 22 -4 -12 -6 -34 -1 -43 3 -43 15 0 12 3 14
13 6 6 -6 26 -12 42 -15z m22 17 c-3 -3 -12 -4 -19 -1 -8 3 -5 6 6 6 11 1 17
-2 13 -5z m-127 -14 l-35 -7 35 -5 c32 -4 31 -5 -12 -6 -45 -2 -58 5 -41 21 3
4 25 6 47 6 l41 -2 -35 -7z m-495 -31 c-15 -7 -12 -8 15 -4 65 11 395 16 419
7 13 -5 50 -5 85 0 33 5 72 6 86 2 23 -6 24 -7 5 -14 -16 -6 -13 -9 20 -16 22
-4 62 -8 89 -8 31 0 42 -2 30 -7 -11 -4 -14 -8 -7 -8 6 -1 19 -4 29 -8 13 -5
15 -3 9 7 -5 9 1 8 21 -3 42 -24 148 -57 197 -61 23 -3 53 -9 67 -15 32 -13
10 -14 -24 -1 -14 5 -26 7 -26 5 0 -6 29 -18 70 -29 20 -6 22 -5 10 4 -13 10
-12 11 4 6 27 -9 56 2 49 20 -3 8 1 14 10 14 10 0 13 -8 9 -25 -3 -19 -11 -25
-31 -25 -22 0 -18 -4 24 -26 172 -89 249 -134 332 -190 59 -39 101 -61 111
-58 12 4 13 3 4 -3 -10 -7 -8 -14 8 -28 11 -10 23 -15 27 -11 4 4 1 11 -7 17
-13 8 -13 10 0 19 19 13 30 13 30 0 0 -5 -4 -10 -8 -10 -18 0 -4 -41 23 -70
29 -30 58 -43 36 -16 -15 18 5 34 22 17 9 -9 7 -10 -7 -5 -15 6 -17 4 -10 -7
5 -8 9 -16 9 -19 1 -12 23 -37 60 -70 22 -19 34 -28 28 -20 -16 17 -17 34 -3
25 6 -4 9 -1 8 7 -2 9 11 14 40 16 l43 3 -3 -43 c-3 -40 -5 -43 -31 -42 l-28
1 22 -23 c12 -13 25 -21 28 -18 3 4 0 9 -6 11 -7 3 -13 9 -13 15 0 6 6 5 15
-2 9 -7 14 -19 11 -26 -6 -17 63 -96 77 -87 6 3 7 1 3 -5 -9 -15 52 -92 73
-93 12 0 12 -2 3 -6 -9 -3 -4 -10 14 -19 24 -13 28 -12 40 3 13 17 13 17 14 1
0 -10 -5 -18 -11 -18 -6 0 -8 -10 -4 -22 l6 -23 -17 23 c-9 12 -20 22 -25 22
-4 0 10 -27 31 -60 22 -32 40 -62 40 -65 0 -4 10 -21 23 -38 12 -17 28 -43 34
-57 l13 -25 -6 25 c-4 14 -3 22 1 18 4 -4 9 -22 10 -41 2 -18 17 -56 34 -85
17 -29 31 -57 31 -63 0 -5 4 -17 10 -27 27 -51 93 -260 111 -357 6 -27 13 -57
16 -65 3 -8 7 -36 9 -61 2 -25 8 -57 14 -70 9 -20 10 -18 5 16 -2 23 -1 32 3
22 9 -21 6 -520 -4 -557 -3 -15 -2 -20 3 -13 5 8 8 -6 6 -35 -3 -68 -3 -69
-14 -47 -7 15 -8 13 -3 -12 3 -17 0 -34 -5 -38 -6 -3 -11 -14 -11 -23 0 -13 2
-14 9 -4 15 24 34 -69 22 -109 -11 -34 -11 -34 -6 11 2 25 0 54 -5 65 -7 16
-9 10 -11 -25 l-2 -45 -6 40 -7 40 -6 -45 c-3 -25 -9 -54 -13 -65 -6 -16 -5
-17 4 -5 9 13 11 13 11 -1 0 -9 -7 -22 -15 -29 -19 -16 -19 -30 -1 -30 27 0
40 28 27 57 -6 14 -9 28 -6 31 3 4 8 -4 12 -16 3 -12 9 -22 14 -22 5 0 9 -8 9
-18 0 -27 -35 -56 -60 -49 -12 3 -20 0 -20 -8 0 -16 -48 -164 -60 -188 -7 -11
-7 -17 0 -17 6 0 12 6 14 13 19 63 49 157 50 157 1 0 2 -24 1 -54 0 -37 -6
-60 -18 -73 -9 -11 -17 -27 -17 -36 0 -15 -19 -23 -45 -17 -5 1 -7 -1 -4 -4 3
-4 -11 -41 -31 -84 -27 -54 -35 -81 -28 -90 8 -8 6 -12 -5 -12 -9 0 -15 -9
-16 -22 -2 -73 -1 -103 4 -122 5 -17 3 -17 -9 4 -8 14 -13 33 -10 43 3 9 0 17
-6 17 -6 0 -4 11 6 25 9 14 14 28 11 31 -9 9 -35 -49 -29 -66 2 -8 1 -12 -3
-8 -11 11 -40 -33 -37 -55 2 -10 -2 -25 -10 -34 -10 -13 -10 -17 0 -20 16 -6
15 -20 -2 -26 -11 -4 -13 -1 -9 11 6 15 3 14 -15 -2 -12 -11 -22 -15 -22 -10
0 5 -9 -2 -20 -16 -20 -25 -26 -45 -12 -36 4 2 8 -3 8 -13 0 -10 -6 -18 -12
-18 -7 0 -9 7 -6 16 5 13 3 14 -9 4 -10 -8 -14 -24 -12 -40 3 -23 -2 -31 -29
-46 l-33 -17 28 23 c15 12 27 29 27 37 0 9 -12 3 -30 -17 -18 -20 -27 -39 -24
-48 4 -9 3 -15 -2 -13 -5 1 -23 -8 -41 -21 -26 -19 -30 -28 -23 -42 6 -10 10
-22 10 -28 0 -12 -40 -51 -53 -51 -5 0 1 9 14 20 13 10 18 19 12 20 -7 0 -13
5 -13 11 0 6 7 9 15 5 8 -3 15 -1 15 4 0 19 -18 19 -35 0 -11 -13 -14 -20 -6
-20 7 0 10 -4 6 -10 -3 -5 -11 -7 -18 -4 -7 2 -22 -5 -32 -16 -14 -16 -15 -21
-5 -18 11 2 15 -7 16 -34 1 -21 0 -38 -2 -38 -12 0 -54 25 -54 32 0 13 18 10
23 -4 4 -10 8 -9 16 2 16 22 13 34 -4 20 -12 -10 -15 -10 -15 1 0 7 -10 3 -25
-11 -14 -13 -25 -28 -25 -34 0 -7 3 -6 8 1 4 7 13 9 19 5 7 -5 3 -11 -13 -19
-19 -9 -24 -8 -24 2 0 17 -73 -50 -76 -70 -1 -8 2 -15 7 -15 5 0 9 -10 9 -22
0 -15 -3 -19 -8 -11 -6 9 -17 10 -40 4 -21 -6 -32 -6 -32 0 0 6 -5 7 -10 4
-20 -12 3 -27 33 -22 17 2 37 -1 43 -8 17 -16 -66 -14 -84 2 -11 10 -19 9 -41
-8 -22 -16 -27 -27 -26 -54 2 -27 0 -32 -13 -27 -10 4 -12 7 -4 10 7 2 12 8
12 13 0 4 -8 6 -17 2 -15 -5 -14 -3 2 10 11 9 17 17 13 17 -10 0 -79 -40 -103
-60 -11 -9 -49 -32 -85 -50 -188 -95 -177 -88 -150 -98 23 -9 21 -10 -12 -9
-23 1 -33 4 -25 9 6 4 7 8 1 8 -5 0 -15 -5 -22 -12 -7 -7 -12 -9 -12 -4 0 4
-12 0 -27 -8 -33 -18 -179 -66 -200 -66 -9 0 -13 -6 -10 -14 8 -21 -25 -46
-59 -45 l-29 1 32 9 c32 9 50 25 40 36 -3 3 -12 1 -19 -3 -7 -5 -22 -10 -33
-11 -11 -1 -42 -7 -70 -13 -27 -7 -77 -16 -110 -20 l-60 -8 80 0 c144 -1 153
-1 159 -10 5 -9 -62 -7 -104 4 -18 4 -21 3 -11 -4 15 -11 -11 -10 -141 3 -31
3 -59 2 -62 -3 -3 -5 -103 -7 -223 -5 -216 5 -237 5 -290 1 -16 -1 -55 1 -88
4 -36 4 -50 4 -35 -1 19 -7 13 -8 -27 -7 -75 2 -36 20 42 20 66 -1 69 -2 -95
36 -52 12 -111 26 -130 32 -105 33 -215 75 -290 111 -55 27 -97 40 -122 40
-21 0 -35 3 -32 9 3 5 15 6 27 3 21 -6 21 -5 3 6 -15 9 -25 8 -46 -5 -16 -9
-34 -16 -42 -15 -7 0 2 7 20 15 17 8 32 17 32 22 0 4 -32 25 -72 47 -39 22
-84 51 -100 63 -16 14 -26 18 -22 9 3 -8 -1 -17 -9 -20 -10 -4 -13 1 -10 18 4
17 -4 27 -34 46 -21 13 -42 23 -46 21 -5 -1 -6 2 -3 7 4 5 0 13 -8 18 -15 8
-65 52 -124 107 l-32 30 4 -32 c3 -32 3 -32 -40 -32 l-44 0 0 44 c0 43 0 43
32 40 l32 -4 -24 25 c-26 28 -41 26 -19 -2 13 -16 12 -17 -4 -4 -10 8 -16 20
-13 27 3 7 -9 26 -25 43 -32 34 -53 43 -24 11 18 -20 18 -20 -3 -17 -12 2 -25
7 -29 12 -5 4 -2 5 5 1 15 -9 15 -1 1 26 -8 16 -8 19 1 13 7 -4 -15 26 -47 66
-61 76 -164 227 -184 273 -10 21 -15 24 -27 14 -13 -11 -14 -9 -8 9 5 16 -2
42 -25 85 -17 35 -39 78 -48 96 -14 30 -16 31 -19 11 -2 -12 2 -25 9 -30 8 -4
10 -11 7 -15 -13 -12 -35 21 -35 51 0 17 -3 41 -7 55 -6 20 -4 19 8 -5 25 -51
18 -21 -20 81 -19 55 -40 118 -46 142 -5 23 -13 40 -18 37 -4 -3 -11 3 -15 12
-3 10 -2 19 3 21 6 2 7 12 5 23 -3 12 -9 16 -12 11 -3 -6 -7 21 -7 60 -1 38
-7 75 -13 81 -6 6 -11 26 -11 44 0 18 -5 33 -10 33 -7 0 -8 18 -4 50 4 27 3
57 -1 67 -7 17 -8 17 -15 -2 -7 -17 -9 -16 -10 10 -2 30 -2 30 -10 5 -6 -20
-8 -21 -8 -5 0 11 3 29 8 40 7 17 9 17 9 3 1 -10 7 -18 14 -18 9 0 12 47 11
202 0 111 3 193 7 182 6 -18 7 -9 10 86 0 14 6 31 12 39 7 8 11 48 11 95 0 44
2 65 4 46 l4 -35 14 50 c15 57 17 91 4 60 -6 -15 -9 -9 -9 25 0 25 0 54 -1 65
-1 29 9 65 19 65 6 0 5 -15 0 -36 -6 -19 -7 -50 -3 -67 l7 -32 19 55 c18 50
22 69 27 128 1 15 3 15 11 2 8 -11 9 -7 5 15 -3 17 -2 24 1 16 4 -8 22 22 45
73 46 104 124 249 157 293 16 21 21 39 17 52 -3 11 -2 28 3 37 8 15 10 15 15
0 4 -9 2 -16 -3 -16 -6 0 -10 -6 -10 -12 1 -7 12 0 25 16 13 17 23 33 22 36
-1 3 12 22 29 41 18 19 53 59 79 89 64 75 194 207 250 254 25 21 43 41 40 45
-4 3 -13 -3 -21 -13 -17 -24 -26 -17 -31 29 -4 37 4 42 42 24 17 -8 15 -8 -7
-4 -38 7 -35 -10 3 -24 27 -9 35 -7 65 15 19 15 34 30 34 35 0 5 6 9 13 9 16
0 76 49 60 50 -7 0 -13 -4 -13 -10 0 -5 -7 -6 -17 -3 -10 4 -14 2 -9 -5 3 -6
2 -13 -4 -17 -5 -3 -10 -2 -10 4 0 20 -29 -1 -49 -35 -21 -36 -38 -44 -38 -19
0 8 4 12 9 9 4 -3 8 1 8 9 0 8 15 28 34 45 28 24 41 29 77 27 26 -2 50 3 59
10 8 7 35 25 60 39 25 14 38 26 30 26 -9 0 -21 -5 -28 -12 -8 -8 -15 -9 -23
-1 -7 7 -1 12 21 17 18 3 36 3 41 0 16 -10 49 15 43 34 -5 13 -4 14 4 3 11
-15 36 -6 27 10 -3 5 1 6 9 3 8 -3 19 3 26 15 6 12 18 21 27 21 14 0 14 -2 -3
-16 -19 -15 -19 -15 1 -6 117 55 156 72 179 78 20 5 24 9 14 15 -8 5 -1 7 18
5 18 -3 43 2 57 9 14 7 41 16 59 20 33 8 33 8 8 17 -14 5 -39 7 -56 3 -39 -7
-68 19 -32 29 35 9 57 5 28 -5 -17 -6 -9 -7 25 -2 28 3 101 7 163 7 84 1 115
5 121 15 6 9 19 12 37 8 16 -3 43 1 59 8 35 15 72 19 40 4z m882 -42 c9 -10
-38 -7 -62 3 -15 7 -11 8 17 6 21 -1 41 -6 45 -9z m48 -7 c-28 -12 -37 -12
-30 0 3 6 16 10 28 9 21 0 21 -1 2 -9z m-52 -17 c-7 -2 -19 -2 -25 0 -7 3 -2
5 12 5 14 0 19 -2 13 -5z m57 -3 c-12 -8 -12 -10 -1 -10 8 0 12 -2 10 -5 -3
-2 -15 -2 -28 2 -17 4 -19 8 -9 14 7 5 20 9 28 9 13 0 13 -1 0 -10z m-1360 -4
c0 -3 -14 -11 -30 -20 -17 -8 -28 -10 -24 -5 3 6 16 14 28 19 26 11 26 11 26
6z m-180 -46 c-8 -5 -19 -10 -25 -10 -5 0 -3 5 5 10 8 5 20 10 25 10 6 0 3 -5
-5 -10z m15 -22 c-26 -10 -50 -17 -52 -14 -8 7 72 42 86 37 8 -2 -8 -13 -34
-23z m1721 20 c7 -11 -37 -10 -56 2 -10 6 -5 9 18 8 18 -1 35 -5 38 -10z m54
-54 c0 -8 -5 -12 -10 -9 -6 4 -8 11 -5 16 9 14 15 11 15 -7z m-1965 -23 c18
-7 17 -8 -6 -13 -17 -3 -26 0 -26 9 0 15 3 15 32 4z m2058 -10 c-16 -12 -16
-13 7 -7 14 3 32 6 40 6 13 0 13 1 0 11 -12 8 -12 10 -1 7 8 -2 16 -15 18 -27
3 -20 1 -22 -12 -11 -8 6 -20 10 -27 7 -8 -3 -2 -9 14 -17 15 -7 25 -17 21
-23 -3 -5 -8 -5 -12 0 -3 4 -23 17 -43 28 -26 13 -34 22 -25 28 8 6 4 7 -10 4
-13 -3 -23 -1 -23 4 0 5 16 8 35 6 32 -2 34 -3 18 -16z m-2228 -71 c-13 -6
-15 -9 -5 -9 13 -1 13 -2 0 -11 -8 -5 -11 -12 -7 -16 3 -4 13 -1 22 6 9 7 18
10 21 7 3 -3 -5 -11 -18 -18 -12 -6 -26 -17 -30 -22 -4 -6 -5 7 -3 29 4 48 2
44 23 43 14 0 14 -2 -3 -9z m2432 -11 c7 -6 13 -19 13 -27 0 -12 -4 -10 -16 6
-9 13 -22 21 -30 18 -7 -3 -16 -1 -19 4 -4 6 -11 10 -17 10 -6 0 -5 -6 2 -16
12 -13 10 -14 -14 -3 -19 9 -23 15 -14 21 16 10 77 1 95 -13z m-10 -39 c6 -24
32 -33 70 -24 26 6 26 5 10 -8 -17 -13 -17 -15 -3 -27 9 -8 20 -11 23 -7 4 4
2 11 -6 15 -10 7 -10 9 1 14 10 3 14 -3 14 -23 l0 -29 -40 25 c-23 14 -51 30
-63 36 -13 6 -23 17 -23 24 0 7 -6 15 -12 17 -8 3 -5 6 5 6 11 1 21 -8 24 -19z
m-2678 -196 c2 -2 -3 -4 -12 -4 -8 0 -23 -7 -32 -16 -9 -9 -19 -13 -23 -9 -4
4 -1 10 6 12 17 6 15 23 -3 23 -8 0 -15 -5 -15 -12 0 -6 -3 -9 -6 -5 -3 3 -3
11 1 17 6 9 72 5 84 -6z m-106 -94 c-31 -33 -57 -42 -28 -10 16 17 16 20 2 20
-8 0 -17 -3 -20 -7 -2 -5 -2 -3 -1 4 2 6 -2 14 -9 16 -7 3 7 3 31 2 34 -3 42
0 43 13 0 11 3 12 6 4 2 -6 -8 -26 -24 -42z m3112 20 c3 -5 1 -10 -4 -10 -6 0
-11 5 -11 10 0 6 2 10 4 10 3 0 8 -4 11 -10z m-3205 -80 c12 -7 11 -12 -8 -28
-12 -11 -22 -24 -22 -30 0 -7 -20 -33 -46 -59 -36 -38 -51 -47 -73 -45 -31 3
-47 -11 -54 -48 -4 -22 -4 -22 -6 6 -1 37 14 54 50 54 28 0 43 22 36 51 -2 8
1 4 7 -8 14 -32 27 -29 24 5 -3 24 0 27 25 25 22 -2 27 2 23 13 -3 8 3 25 14
36 22 24 19 38 -5 18 -12 -10 -15 -10 -15 4 0 18 26 21 50 6z m3387 -87 c7
-20 -14 -23 -31 -4 -15 17 -15 18 6 16 12 -1 23 -6 25 -12z m43 -74 c0 -8 5
-7 15 1 9 7 17 11 20 8 2 -2 -4 -12 -15 -21 -18 -15 -20 -15 -30 3 -7 14 -7
20 0 20 5 0 10 -5 10 -11z m-3579 -30 c-17 -7 -22 -15 -18 -29 3 -11 1 -23 -4
-26 -10 -6 -13 49 -2 59 3 4 16 7 27 6 19 0 19 -1 -3 -10z m3619 -5 c0 -8 -5
-12 -10 -9 -6 4 -8 11 -5 16 9 14 15 11 15 -7z m80 -102 c0 -15 -2 -15 -10 -2
-13 20 -13 33 0 25 6 -3 10 -14 10 -23z m-3789 -54 l-26 -36 -12 26 c-19 43
-16 50 25 48 l38 -1 -25 -37z m3780 20 c11 -21 11 -22 -4 -9 -10 7 -17 17 -17
22 0 15 9 10 21 -13z m48 -72 c7 -8 8 -17 3 -20 -6 -3 -12 3 -15 14 -6 24 -4
25 12 6z m33 -18 c-5 -36 -17 -36 -18 0 -1 16 4 29 11 29 6 0 9 -12 7 -29z
m-3898 7 c-4 -8 -8 -15 -10 -15 -2 0 -4 7 -4 15 0 8 4 15 10 15 5 0 7 -7 4
-15z m-70 -72 c-5 -17 -5 -17 9 0 20 25 27 21 14 -8 -7 -14 -16 -23 -22 -22
-14 5 -19 47 -6 47 6 0 8 -8 5 -17z m-13 -70 c-12 -20 -14 -14 -5 12 4 9 9 14
11 11 3 -2 0 -13 -6 -23z m4038 -33 c0 -10 -3 -8 -9 5 -12 27 -12 43 0 25 5
-8 9 -22 9 -30z m28 18 c-3 -8 -6 -5 -6 6 -1 11 2 17 5 13 3 -3 4 -12 1 -19z
m0 -55 c1 -19 -1 -22 -8 -12 -11 17 -12 39 -1 39 4 0 8 -12 9 -27z m-4128 -43
c0 -10 -3 -8 -9 5 -8 19 -9 19 -9 1 -1 -11 -4 -17 -7 -13 -3 3 -3 15 1 28 6
17 9 19 16 8 5 -8 8 -21 8 -29z m31 33 c0 -10 -20 -40 -20 -31 0 3 -3 13 -6
22 -4 11 -1 16 10 16 9 0 16 -3 16 -7z m4133 -90 c2 -10 8 -27 12 -38 12 -30
-9 -6 -23 28 -6 15 -8 27 -3 27 5 0 11 -8 14 -17z m40 -3 c-3 -11 -10 -23 -16
-27 -7 -4 -8 0 -4 11 4 10 7 22 7 27 0 5 4 9 9 9 5 0 7 -9 4 -20z m2 -107 l3
-58 -13 49 c-8 26 -11 55 -8 63 9 24 15 7 18 -54z m-4308 0 c-3 -10 -5 -2 -5
17 0 19 2 27 5 18 2 -10 2 -26 0 -35z m44 -24 c-9 -22 -10 -22 -10 -3 -1 11 2
24 6 27 12 12 14 0 4 -24z m4336 -141 c-1 -29 2 -71 6 -93 l8 -40 -20 24 c-12
13 -21 31 -20 40 0 13 2 12 10 -4 6 -14 7 -8 3 22 -5 38 2 103 11 103 2 0 3
-24 2 -52z m-30 -25 c-2 -16 -4 -5 -4 22 0 28 2 40 4 28 2 -13 2 -35 0 -50z
m-4409 -211 c2 -48 5 -103 7 -122 4 -30 3 -31 -4 -10 -6 16 -8 -27 -6 -120 1
-89 0 -120 -4 -80 l-7 65 -6 -55 c-3 -30 -3 -14 0 35 6 113 6 117 -3 193 -6
45 -5 62 4 62 12 0 10 72 -4 135 -6 29 -6 29 8 7 8 -14 14 -58 15 -110z m32
118 c12 -7 12 -12 2 -22 -6 -6 -12 -20 -12 -31 0 -10 -5 -15 -10 -12 -7 4 -6
13 1 26 7 15 7 24 -2 35 -13 16 -2 18 21 4z m4397 -32 c-3 -8 -6 -5 -6 6 -1
11 2 17 5 13 3 -3 4 -12 1 -19z m-4410 -85 c-3 -10 -5 -4 -5 12 0 17 2 24 5
18 2 -7 2 -21 0 -30z m-20 -610 c-2 -16 -4 -3 -4 27 0 30 2 43 4 28 2 -16 2
-40 0 -55z m-20 45 c-3 -8 -6 -5 -6 6 -1 11 2 17 5 13 3 -3 4 -12 1 -19z m40
-90 c-2 -13 -4 -3 -4 22 0 25 2 35 4 23 2 -13 2 -33 0 -45z m-27 -9 c0 -5 -4
-9 -10 -9 -5 0 -10 7 -10 16 0 8 5 12 10 9 6 -3 10 -10 10 -16z m71 -261 c-6
-18 -8 -13 -8 22 0 35 2 40 8 22 5 -12 5 -32 0 -44z m26 -18 c-1 -27 -4 -45
-6 -39 -2 7 -7 7 -13 -2 -8 -11 -9 -10 -5 3 3 9 9 33 13 52 9 50 12 45 11 -14z
m4363 40 c0 -5 -5 -10 -11 -10 -5 0 -7 5 -4 10 3 6 8 10 11 10 2 0 4 -4 4 -10z
m-4301 -185 c0 -5 -4 -3 -9 5 -5 8 -9 22 -9 30 0 16 17 -16 18 -35z m4216 -22
c-8 -32 -22 -50 -32 -40 -4 4 -1 13 5 19 7 7 12 20 12 30 0 10 5 18 11 18 7 0
9 -10 4 -27z m-4216 -60 c1 -13 -3 -23 -8 -23 -5 0 -9 19 -9 43 0 31 2 37 8
22 5 -11 9 -30 9 -42z m4125 -35 c-14 -20 -15 -20 -9 -3 4 11 10 29 13 40 5
17 7 18 10 3 2 -10 -4 -28 -14 -40z m-4129 -18 c3 -5 1 -10 -4 -10 -6 0 -11 5
-11 10 0 6 2 10 4 10 3 0 8 -4 11 -10z m4141 -20 c0 -12 -4 -16 -9 -11 -5 5
-6 14 -3 20 10 15 12 14 12 -9z m-3 -47 c4 14 5 14 3 1 0 -10 -12 -19 -26 -21
-19 -3 -22 -1 -12 9 6 6 12 19 12 28 -1 12 -4 11 -15 -4 -18 -24 -20 -4 -2 25
11 19 13 18 23 -18 8 -27 13 -33 17 -20z m-4038 -18 c13 -27 22 -51 20 -53 -2
-3 -10 7 -16 21 -7 15 -15 24 -20 22 -4 -3 -11 0 -15 6 -5 8 -3 9 6 4 10 -6
12 -4 7 8 -27 67 -18 63 18 -8z m4 -63 l11 -27 -19 23 c-13 15 -21 18 -24 10
-3 -7 -6 -3 -6 9 -1 30 23 20 38 -15z m61 -59 c0 -5 -5 -15 -10 -23 -8 -12
-10 -11 -10 8 0 12 5 22 10 22 6 0 10 -3 10 -7z m3854 -17 c-6 -16 -24 -23
-24 -8 0 10 22 33 27 28 2 -2 1 -11 -3 -20z m-3824 -36 c0 -10 8 -20 18 -22
11 -2 13 -6 5 -11 -13 -8 -46 20 -38 33 3 5 1 11 -5 15 -5 3 -10 11 -10 17 0
7 6 6 15 -2 8 -7 15 -21 15 -30z m-35 0 c3 -5 1 -10 -4 -10 -6 0 -11 5 -11 10
0 6 2 10 4 10 3 0 8 -4 11 -10z m22 -45 c9 -25 -2 -27 -22 -5 -17 18 -17 20
-1 20 9 0 19 -7 23 -15z m68 -35 c2 -12 29 -56 39 -62 8 -5 7 -8 -1 -8 -7 0
-24 18 -38 40 -14 22 -30 40 -35 40 -6 0 -10 5 -10 11 0 5 5 7 10 4 6 -3 10 0
10 7 1 11 23 -18 25 -32z m0 -60 c3 -5 1 -10 -4 -10 -6 0 -11 5 -11 10 0 6 2
10 4 10 3 0 8 -4 11 -10z m3649 -42 c-9 -33 -24 -48 -43 -47 -14 1 -14 2 1 6
9 2 20 17 23 34 4 16 11 29 16 29 6 0 7 -10 3 -22z m-3539 -46 c-6 -6 -45 33
-45 44 0 4 11 -3 25 -16 14 -13 23 -26 20 -28z m3425 -47 c-7 -9 -10 -19 -6
-23 4 -4 12 2 18 12 8 15 12 16 19 5 14 -22 11 -25 -18 -23 -60 3 -69 5 -53
11 8 4 21 15 29 25 7 11 15 17 18 14 3 -3 0 -12 -7 -21z m-3195 -185 c3 -5 2
-10 -4 -10 -5 0 -13 5 -16 10 -3 6 -2 10 4 10 5 0 13 -4 16 -10z m2975 -39 c0
-5 -7 -11 -15 -15 -8 -3 -15 -12 -15 -21 0 -8 -4 -15 -10 -15 -5 0 -10 5 -10
11 0 5 -5 7 -12 3 -7 -4 -8 -3 -4 4 4 7 13 12 21 12 7 0 15 7 19 15 6 16 26
21 26 6z m-2901 -50 c-7 -2 -15 1 -17 8 -2 6 -7 9 -11 7 -4 -3 -7 4 -7 14 0
18 2 18 24 -3 16 -14 19 -23 11 -26z m2917 24 c-1 -17 -6 -23 -14 -20 -8 3
-16 5 -20 5 -4 0 27 37 34 39 1 1 1 -10 0 -24z m-2820 -80 c16 -8 22 -15 14
-15 -8 1 -24 7 -34 15 -25 19 -16 19 20 0z m-26 -15 c0 -5 -2 -10 -4 -10 -3 0
-8 5 -11 10 -3 6 -1 10 4 10 6 0 11 -4 11 -10z m155 -77 c17 -12 13 -13 -38
-12 -64 2 -78 12 -51 39 20 19 23 18 89 -27z m2412 3 c0 -8 -5 -12 -12 -10 -6
3 -20 -5 -31 -17 -14 -16 -15 -23 -6 -26 6 -3 12 -10 12 -16 0 -8 -4 -7 -12 1
-7 7 -18 12 -26 12 -12 0 -12 -3 -2 -15 10 -12 9 -15 -6 -16 -11 -1 -41 -2
-69 -4 -27 -1 -43 0 -35 3 8 2 27 11 43 19 15 7 26 9 25 4 -2 -5 0 -9 5 -10
19 -3 27 0 25 8 -3 10 69 81 82 81 3 0 7 -6 7 -14z m-2328 -67 c-21 -13 -25
-11 -25 10 0 16 4 18 19 9 16 -8 17 -12 6 -19z m2106 -59 c-16 -17 -16 -20 -2
-20 8 0 17 6 20 13 2 6 4 0 4 -15 0 -26 -1 -27 -20 -13 -12 8 -31 15 -42 15
-16 0 -17 -2 -5 -10 18 -12 2 -12 -25 0 -14 6 -15 9 -5 9 8 1 31 10 50 20 45
25 47 25 25 1z m-1934 -10 c5 0 9 -5 9 -10 0 -7 -6 -7 -19 0 -14 7 -21 6 -24
-3 -3 -7 -6 -4 -6 7 -1 13 4 16 15 12 9 -3 20 -6 25 -6z m44 -30 c3 -5 2 -10
-4 -10 -5 0 -13 5 -16 10 -3 6 -2 10 4 10 5 0 13 -4 16 -10z m-48 -6 c-3 -3
-12 -4 -19 -1 -8 3 -5 6 6 6 11 1 17 -2 13 -5z m1773 -29 c0 -8 -8 -15 -19
-15 -18 0 -45 -23 -37 -31 2 -2 -10 -5 -27 -6 l-32 -1 34 14 c52 23 32 25 -33
3 -32 -11 -60 -18 -62 -16 -3 2 28 14 68 26 40 13 80 26 88 31 20 12 20 12 20
-5z m-1578 -16 c29 -12 67 -25 83 -30 30 -8 30 -8 -5 -5 -19 2 -44 7 -54 11
-11 5 -17 5 -14 -1 4 -5 -14 -9 -38 -9 -24 0 -44 3 -44 6 0 12 31 19 58 14 16
-3 8 3 -18 14 -61 27 -34 26 32 0z m1596 -22 c9 -10 4 -13 -23 -13 -39 0 -47
12 -12 19 12 2 23 5 23 6 1 0 6 -5 12 -12z m-1353 -52 l60 -9 -37 -10 c-21 -5
-38 -13 -38 -18 0 -4 -4 -8 -10 -8 -20 0 -9 29 13 33 14 3 8 5 -15 6 -29 1
-36 -2 -32 -14 4 -8 1 -15 -5 -15 -6 0 -11 15 -11 33 0 17 4 27 8 21 4 -6 34
-15 67 -19z m988 -12 c-7 -2 -21 -2 -30 0 -10 3 -4 5 12 5 17 0 24 -2 18 -5z
m134 -18 c-4 -8 -17 -15 -29 -14 -15 0 -18 3 -8 6 8 3 19 12 23 20 11 18 21 9
14 -12z m-370 -11 c-3 -3 -12 -4 -19 -1 -8 3 -5 6 6 6 11 1 17 -2 13 -5z"/>
<path d="M2218 4743 c7 -3 16 -2 19 1 4 3 -2 6 -13 5 -11 0 -14 -3 -6 -6z"/>
<path d="M2493 4743 c9 -2 23 -2 30 0 6 3 -1 5 -18 5 -16 0 -22 -2 -12 -5z"/>
<path d="M2808 4703 c6 -2 18 -2 25 0 6 3 1 5 -13 5 -14 0 -19 -2 -12 -5z"/>
<path d="M1875 4661 c-39 -15 48 -21 100 -6 l50 14 -65 0 c-36 0 -74 -4 -85
-8z"/>
<path d="M2311 4630 c-283 -27 -567 -112 -811 -242 -1028 -547 -1429 -1803
-908 -2841 189 -378 505 -709 867 -910 33 -18 58 -37 53 -42 -4 -4 -2 -5 4 -2
7 4 51 -11 99 -33 89 -42 341 -130 370 -130 10 0 13 -5 9 -12 -4 -7 -3 -8 5
-4 6 4 45 2 86 -5 41 -7 71 -15 66 -19 -6 -3 9 -6 32 -6 23 -1 128 -5 232 -9
209 -8 342 1 510 38 55 12 115 21 133 21 18 0 28 3 21 6 -16 10 38 22 64 15
17 -5 18 -4 8 4 -12 8 -10 11 11 16 15 4 32 4 39 -1 7 -4 9 -3 5 4 -8 13 59
36 76 26 7 -4 10 -3 5 1 -9 11 132 77 150 71 7 -3 12 0 10 7 -1 7 8 12 20 11
12 0 19 4 16 9 -4 6 1 8 11 4 11 -5 15 -3 10 5 -5 8 -2 9 10 5 9 -4 15 -3 12
2 -3 5 21 25 53 45 62 38 77 44 65 24 -4 -7 -3 -8 5 -4 6 4 9 11 6 15 -2 5 20
25 50 45 58 38 71 43 59 24 -4 -7 -3 -8 5 -4 6 4 9 11 6 16 -7 12 45 51 58 43
5 -3 7 -1 4 4 -4 6 8 22 26 36 93 72 265 256 363 389 25 35 50 63 54 63 5 0
12 4 17 9 5 5 3 6 -4 2 -20 -11 -16 1 24 62 20 31 66 119 103 194 37 76 71
134 75 130 5 -4 5 -1 1 6 -11 18 35 146 46 130 7 -9 8 -8 4 6 -3 10 7 73 24
140 217 887 -153 1809 -929 2311 -232 150 -550 268 -836 309 -131 19 -375 27
-494 16z m207 -237 c-33 -4 -38 -8 -38 -29 0 -20 5 -24 33 -26 l32 -1 -32 -4
c-27 -4 -33 -9 -33 -29 0 -13 -4 -24 -10 -24 -6 0 -10 27 -10 60 l0 60 48 -2
c43 -1 44 -2 10 -5z m274 -78 c9 -33 15 -61 12 -64 -3 -3 -7 5 -11 17 -4 18
-13 22 -43 22 -22 0 -40 -5 -43 -12 -2 -7 -7 -11 -10 -8 -8 8 56 111 68 107 5
-2 17 -30 27 -62z m-693 -79 c28 3 32 2 16 -5 -43 -20 -63 -13 -74 27 -6 20
-10 46 -10 57 1 11 8 -3 16 -32 15 -51 16 -51 52 -47z m970 70 c9 -10 11 -21
6 -33 -5 -10 -9 -29 -9 -43 -1 -23 -4 -25 -49 -23 -27 1 -51 4 -54 6 -3 3 3
31 12 62 16 57 17 57 48 51 17 -4 38 -13 46 -20z m-1209 -91 c24 -25 40 -45
34 -45 -5 0 -15 5 -20 10 -15 15 -59 -6 -72 -34 -9 -18 -11 -14 -11 24 -1 49
7 90 18 90 4 0 27 -20 51 -45z m1440 10 c35 -18 40 -57 11 -77 -10 -7 -21 -22
-24 -33 -4 -18 -5 -18 -6 2 -1 31 -51 58 -51 28 0 -8 -5 -15 -11 -15 -6 0 -9
3 -7 8 2 4 11 28 22 55 21 52 24 54 66 32z m-1701 -73 c-9 -14 -7 -27 11 -61
29 -58 19 -63 -14 -6 -22 36 -31 45 -47 40 -32 -10 -22 3 19 24 46 25 44 25
31 3z m1884 -97 c-37 -60 -52 -58 -18 3 16 26 30 51 33 57 3 5 7 4 10 -3 2 -7
-9 -32 -25 -57z m-2093 -40 c-10 -13 -8 -22 14 -53 26 -38 37 -72 13 -41 -55
71 -55 71 -76 59 -34 -17 -23 3 16 33 37 28 56 29 33 2z m1330 0 c375 -53 711
-241 964 -539 151 -178 270 -427 323 -676 26 -122 26 -478 0 -600 -116 -544
-495 -974 -1015 -1150 -410 -138 -889 -89 -1257 129 -376 222 -632 575 -727
1001 -20 92 -23 131 -23 320 0 172 4 232 19 300 146 673 667 1144 1351 1224
79 9 271 4 365 -9z m998 -48 c6 -5 12 -17 12 -25 0 -12 -4 -11 -16 6 -18 26
-56 29 -78 6 -27 -26 -15 -58 29 -82 20 -11 19 -11 -2 -12 -25 0 -53 35 -53
65 1 53 63 77 108 42z m-2447 -185 c-12 -4 -81 67 -81 83 0 5 20 -11 45 -35
25 -25 41 -46 36 -48z m2634 8 c10 -11 15 -23 12 -26 -4 -4 -15 4 -26 17 -27
33 -45 15 -29 -27 13 -36 6 -64 -17 -64 -21 0 -55 36 -55 58 1 12 5 9 16 -10
8 -16 23 -28 34 -28 23 0 25 9 9 44 -23 50 19 77 56 36z m-2792 -113 c21 -16
36 -32 33 -35 -3 -2 -21 7 -41 22 -40 31 -40 31 -20 -17 8 -20 15 -38 15 -41
0 -2 -19 -2 -42 1 l-43 5 35 -31 c19 -17 31 -31 26 -31 -13 0 -95 63 -96 73 0
5 23 6 50 2 28 -4 50 -5 50 -2 0 2 -7 24 -15 47 -8 23 -15 44 -15 47 0 6 20
-6 63 -40z m2960 -167 c20 -1 21 -2 5 -14 -12 -8 -15 -20 -11 -37 6 -22 5 -23
-11 -10 -14 12 -22 12 -37 3 -17 -11 -19 -9 -19 11 0 13 -5 28 -12 35 -9 9 -7
12 9 12 14 0 23 9 28 28 l7 27 10 -27 c6 -19 17 -28 31 -28z m-3133 -70 c22
-5 23 -7 6 -13 -14 -5 -17 -13 -12 -32 6 -23 5 -24 -13 -13 -16 10 -23 10 -33
0 -18 -18 -27 -15 -21 8 3 11 0 27 -7 35 -10 12 -9 15 4 15 9 0 22 12 28 28
l11 27 6 -25 c4 -15 16 -27 31 -30z m-200 -959 c0 -47 -12 -57 -71 -59 l-47
-1 -4 42 c-3 23 -3 45 -1 50 2 4 31 7 64 7 l59 0 0 -39z m3595 -151 c3 -6 18
-8 33 -4 26 5 26 5 8 -10 -11 -9 -23 -16 -28 -16 -19 0 -6 -38 14 -43 40 -11
12 -18 -46 -11 -53 6 -56 8 -56 35 0 44 10 59 40 59 16 0 32 -5 35 -10z
m-3576 -123 c-1 -43 -3 -42 -13 6 -5 19 -13 27 -27 27 -19 0 -21 -4 -15 -37 5
-28 4 -34 -3 -23 -6 8 -11 23 -11 33 0 10 -8 17 -20 17 -17 0 -20 -7 -21 -42
l-1 -43 -9 44 c-5 25 -7 46 -6 48 6 5 112 19 120 16 4 -2 7 -23 6 -46z m3478
-129 c-19 -53 -19 -58 7 -58 19 0 26 5 26 19 0 11 4 22 9 25 5 3 8 -9 7 -26
-2 -49 29 -50 43 -1 l11 38 -6 -45 c-3 -24 -6 -45 -8 -47 -1 -1 -28 5 -60 14
-50 14 -57 19 -52 37 3 12 6 29 6 39 0 9 5 17 11 17 6 0 9 -6 6 -12z m-3422
-102 c10 -49 3 -69 -27 -84 -36 -17 -71 -2 -87 37 -18 41 -11 52 35 67 64 20
72 18 79 -20z m3386 -136 c10 -6 19 -17 19 -24 0 -9 9 -12 28 -9 26 4 26 3 -5
-11 -36 -17 -43 -39 -15 -55 33 -19 -12 -13 -61 9 -44 20 -46 22 -36 48 8 23
34 52 47 52 2 0 12 -5 23 -10z m-3291 -111 c6 -11 9 -28 7 -37 -4 -13 -5 -13
-6 4 -1 23 -19 44 -38 44 -10 0 -13 -12 -11 -41 3 -61 -42 -77 -63 -22 -12 32
-11 43 2 43 5 0 8 -3 6 -7 -8 -14 12 -53 28 -53 11 0 15 11 15 45 0 41 2 45
25 45 14 0 29 -8 35 -21z m3187 -145 c78 -59 12 -126 -74 -73 -45 28 -34 38
12 10 46 -27 61 -26 76 1 10 19 8 25 -13 42 -14 12 -34 26 -44 33 -13 8 -15
12 -5 12 8 1 29 -10 48 -25z m-3062 -75 c31 -59 -35 -99 -71 -44 -13 20 -20
23 -35 14 -10 -5 -19 -6 -19 -2 0 11 94 71 103 66 4 -2 14 -18 22 -34z m2864
-125 c-11 -14 -11 -18 2 -28 51 -38 71 -57 66 -62 -3 -3 -24 9 -47 27 -31 25
-43 30 -52 21 -29 -29 -27 -8 2 28 18 23 35 39 38 36 3 -3 -1 -13 -9 -22z
m-2706 -76 c25 -34 15 -67 -23 -75 -19 -3 -30 -13 -33 -27 -2 -12 -5 -5 -6 16
-1 42 -15 56 -36 38 -30 -25 -14 5 22 42 41 42 48 43 76 6z m2546 -103 c-35
-19 -43 -43 -24 -71 19 -30 60 -32 77 -4 17 26 32 26 18 0 -31 -58 -120 -40
-120 26 0 28 32 64 58 64 12 -1 10 -5 -9 -15z m-2340 -92 c2 -2 1 -6 -2 -10
-4 -3 -18 4 -31 16 -21 20 -24 20 -37 5 -12 -15 -11 -19 9 -32 12 -8 22 -19
22 -25 0 -5 -8 -3 -18 6 -23 21 -36 21 -51 3 -9 -11 -6 -17 14 -30 14 -9 25
-21 25 -27 0 -5 -13 0 -30 13 -16 12 -30 27 -30 33 0 6 16 30 36 54 l37 42 26
-23 c14 -13 28 -24 30 -25z m2169 -108 c51 -30 70 -52 33 -40 -31 10 -71 -15
-72 -44 l-1 -26 -7 25 c-14 44 -23 122 -14 119 4 -2 32 -17 61 -34z m-1992
-52 c-3 -21 -6 -50 -6 -65 0 -16 -5 -28 -11 -28 -6 0 -9 7 -6 15 8 20 -50 62
-66 46 -13 -13 -31 -15 -23 -2 8 13 97 71 109 71 6 0 7 -16 3 -37z m1764 -28
c0 -2 -13 -11 -29 -20 -22 -11 -28 -20 -24 -35 5 -20 13 -21 61 -3 6 3 12 2
12 -1 0 -4 -11 -11 -25 -16 -21 -8 -24 -14 -19 -35 9 -37 -3 -30 -26 15 -27
52 -25 66 8 84 28 16 42 19 42 11z m-1500 -88 c11 -20 12 -30 2 -51 -6 -15
-19 -29 -27 -32 -23 -9 -85 5 -91 21 -3 7 4 36 16 63 l22 50 31 -13 c18 -7 39
-24 47 -38z m1279 -57 c7 -23 9 -49 6 -60 -7 -22 -37 -34 -64 -25 -18 5 -51
69 -51 97 0 21 17 -5 30 -44 9 -30 17 -38 36 -38 31 0 40 23 27 72 -14 51 1
49 16 -2z m-264 -93 c6 -57 6 -58 -14 -45 -12 7 -21 15 -21 19 0 3 -13 15 -30
27 l-30 22 5 -47 c6 -54 -7 -25 -18 40 -7 44 1 46 34 11 13 -14 33 -30 43 -36
18 -10 19 -7 12 38 -3 29 -3 44 3 39 5 -6 12 -36 16 -68z m-630 16 l18 -47 31
37 c17 20 35 37 39 37 10 0 -3 -102 -15 -115 -6 -6 -7 8 -2 39 l7 49 -30 -33
-30 -34 -20 38 -20 39 -7 -43 c-4 -23 -9 -40 -12 -37 -8 8 7 117 16 117 4 0
15 -21 25 -47z m340 -33 c27 -53 34 -87 11 -57 -17 22 -86 24 -86 2 0 -8 -5
-15 -10 -15 -10 0 -2 23 30 93 7 15 17 27 21 27 5 0 20 -22 34 -50z"/>
<path d="M2747 4337 c-17 -27 -14 -37 15 -37 19 0 22 12 9 44 -7 17 -8 17 -24
-7z"/>
<path d="M2997 4301 c-6 -25 0 -31 35 -31 36 0 38 27 2 40 -33 13 -31 13 -37
-9z"/>
<path d="M2980 4241 c0 -17 25 -31 58 -31 18 0 15 37 -4 44 -31 12 -54 6 -54
-13z"/>
<path d="M1810 4212 c0 -25 3 -29 20 -25 11 3 20 9 20 13 0 4 -9 15 -20 25
-20 18 -20 17 -20 -13z"/>
<path d="M3254 4198 c-4 -15 -1 -25 12 -35 22 -16 34 -13 48 11 9 13 7 20 -8
32 -28 20 -44 18 -52 -8z"/>
<path d="M2340 4009 c-462 -52 -867 -307 -1124 -707 -74 -116 -144 -279 -181
-424 -60 -230 -60 -525 0 -758 117 -460 468 -856 912 -1030 690 -270 1462 -12
1854 621 148 238 218 492 219 787 0 195 -25 345 -85 512 -186 519 -653 906
-1195 990 -98 15 -305 20 -400 9z m-703 -1022 c51 -111 259 -559 314 -675 21
-46 69 -149 106 -228 55 -120 68 -142 77 -127 5 10 33 70 61 133 29 63 120
266 203 450 82 184 170 380 194 435 25 55 51 101 59 103 12 2 14 -81 14 -583
0 -578 0 -585 -20 -585 -20 0 -20 6 -17 547 1 343 -1 542 -7 533 -5 -8 -41
-85 -79 -170 -38 -85 -112 -249 -164 -365 -52 -115 -128 -284 -168 -375 -41
-91 -79 -173 -86 -184 -15 -22 9 -69 -299 594 -232 500 -227 490 -234 490 -3
0 -5 -241 -3 -535 2 -428 0 -535 -10 -535 -10 0 -13 117 -13 585 0 665 -2 654
72 492z m1797 73 c-18 -19 -25 -20 -90 -10 -38 6 -153 13 -256 17 -180 6 -188
5 -188 -13 -1 -10 -1 -145 -1 -299 l0 -280 186 2 c181 2 185 2 185 -19 0 -18
-4 -20 -42 -14 -37 5 -261 10 -310 7 -17 -1 -18 -21 -18 -271 l0 -270 -22 0
-23 0 0 585 0 585 300 0 299 0 -20 -20z"/>
<path d="M632 2468 c2 -21 8 -33 18 -33 10 0 16 12 18 33 3 27 0 32 -18 32
-18 0 -21 -5 -18 -32z"/>
<path d="M680 2486 c0 -25 12 -46 25 -46 7 0 16 7 19 16 12 31 6 44 -19 44
-15 0 -25 -6 -25 -14z"/>
<path d="M4281 2316 c-20 -24 -9 -51 22 -54 27 -3 28 -1 25 30 -3 36 -27 48
-47 24z"/>
<path d="M748 1983 l-48 -14 13 -32 c11 -25 20 -33 45 -35 26 -3 34 1 43 21 7
16 8 34 3 50 -9 24 -10 24 -56 10z"/>
<path d="M4148 1805 c-13 -29 -12 -31 23 -40 23 -6 27 -3 33 20 4 14 4 30 1
35 -12 19 -45 10 -57 -15z"/>
<path d="M980 1512 c-22 -17 -22 -18 -2 -41 23 -30 52 -22 52 12 0 38 -23 51
-50 29z"/>
<path d="M1135 1300 c-18 -19 -17 -21 4 -39 38 -33 73 -3 45 38 -19 26 -26 26
-49 1z"/>
<path d="M3520 985 c0 -28 3 -30 32 -14 21 11 21 12 3 25 -27 20 -35 17 -35
-11z"/>
<path d="M1538 956 c-23 -17 -22 -23 1 -35 16 -9 19 -6 23 19 5 33 1 36 -24
16z"/>
<path d="M1750 827 c-22 -48 -16 -58 31 -60 63 -3 72 72 10 94 -19 8 -24 4
-41 -34z"/>
<path d="M2521 682 c-17 -31 -13 -42 12 -38 22 4 24 16 7 45 -6 11 -10 10 -19
-7z"/>
<path d="M1050 4230 c0 -5 5 -10 10 -10 6 0 10 5 10 10 0 6 -4 10 -10 10 -5 0
-10 -4 -10 -10z"/>
<path d="M4701 2744 c0 -11 3 -14 6 -6 3 7 2 16 -1 19 -3 4 -6 -2 -5 -13z"/>
<path d="M4632 2710 c0 -14 2 -19 5 -12 2 6 2 18 0 25 -3 6 -5 1 -5 -13z"/>
<path d="M4632 2285 c0 -16 2 -22 5 -12 2 9 2 23 0 30 -3 6 -5 -1 -5 -18z"/>
<path d="M4622 2200 c0 -14 2 -19 5 -12 2 6 2 18 0 25 -3 6 -5 1 -5 -13z"/>
<path d="M4611 2134 c0 -11 3 -14 6 -6 3 7 2 16 -1 19 -3 4 -6 -2 -5 -13z"/>
<path d="M4601 2084 c0 -11 3 -14 6 -6 3 7 2 16 -1 19 -3 4 -6 -2 -5 -13z"/>
<path d="M4613 1759 c-7 -18 -11 -35 -8 -37 6 -6 27 48 23 60 -2 5 -9 -6 -15
-23z"/>
<path d="M4350 1420 c-6 -11 -8 -20 -6 -20 3 0 10 9 16 20 6 11 8 20 6 20 -3
0 -10 -9 -16 -20z"/>
<path d="M4362 1294 c-13 -20 -21 -38 -19 -41 7 -6 49 56 45 67 -2 5 -13 -7
-26 -26z"/>
<path d="M3919 893 c-13 -16 -12 -17 4 -4 9 7 17 15 17 17 0 8 -8 3 -21 -13z"/>
<path d="M3865 750 c-10 -11 -13 -20 -8 -20 13 0 38 29 31 35 -3 3 -13 -4 -23
-15z"/>
<path d="M3574 644 c-18 -14 -18 -15 4 -4 12 6 22 13 22 15 0 8 -5 6 -26 -11z"/>
<path d="M2858 383 c7 -3 16 -2 19 1 4 3 -2 6 -13 5 -11 0 -14 -3 -6 -6z"/>
<path d="M2788 373 c7 -3 16 -2 19 1 4 3 -2 6 -13 5 -11 0 -14 -3 -6 -6z"/>
<path d="M2170 300 c8 -5 24 -10 34 -10 26 0 18 6 -19 14 -22 5 -26 4 -15 -4z"/>
<path d="M760 3940 c0 -5 5 -10 10 -10 6 0 10 5 10 10 0 6 -4 10 -10 10 -5 0
-10 -4 -10 -10z"/>
<path d="M590 3701 c0 -5 -3 -18 -6 -28 -6 -16 -5 -16 9 2 19 23 21 35 7 35
-5 0 -10 -4 -10 -9z"/>
<path d="M252 2710 c0 -19 2 -27 5 -17 2 9 2 25 0 35 -3 9 -5 1 -5 -18z"/>
<path d="M1223 633 c-25 -9 -12 -18 27 -19 40 -1 41 -1 14 12 -14 8 -27 14
-28 13 0 0 -7 -3 -13 -6z"/>
</g>
</svg>
