<svg version="1.1" xmlns="http://www.w3.org/2000/svg" width="40" height="40" viewBox="0 0 40 40"><path d="M19.024 -0.026q0.678 0.038 1.356 0.086l0.675 0.03C22.643 0.193 23.818 0.621 25.28 1.28c1.068 0.304 2.155 0.53 3.241 0.759C30.502 2.494 31.932 3.44 33.44 4.8a15.552 15.552 0 0 0 2.14 1.6c2.546 1.811 3.158 5.175 4.1 8l0.32 0.64c0.154 3.009 0.258 5.967 -0.714 8.852 -0.243 0.736 -0.355 1.423 -0.466 2.188 -0.342 1.675 -1.389 2.8 -2.428 4.116 -0.572 0.873 -0.663 1.195 -0.613 2.204 -0.26 1.2 -0.26 1.2 -1.152 1.788a45.76 45.76 0 0 1 -2.244 1.065c-1.182 0.678 -1.561 1.389 -2.304 2.508 -0.782 0.294 -0.782 0.294 -1.64 0.38 -2.135 0.283 -4.227 0.652 -6.04 1.86 -1.99 0.264 -3.362 -0.011 -5.12 -0.96 -0.624 -0.165 -1.251 -0.317 -1.88 -0.46 -1.434 -0.338 -2.636 -0.762 -3.921 -1.473 -0.634 -0.326 -1.26 -0.532 -1.939 -0.748 -1.398 -0.501 -1.948 -1.253 -2.82 -2.44l-0.68 -0.66C5.375 32.573 4.962 31.863 4.48 31.04l-0.6 -0.72L3.2 29.44l-0.426 -0.516C1.003 26.377 1.302 23.143 1.28 20.16H0.64C0.26 19.5 0.26 19.5 0 18.56c0.413 -1.196 0.899 -2.148 1.6 -3.2 0.242 -0.808 0.445 -1.621 0.647 -2.44C2.621 12.011 3.067 11.776 3.84 11.2c0.22 -0.648 0.22 -0.648 0.28 -1.36 0.263 -1.456 0.804 -2.225 1.819 -3.279 0.506 -0.495 0.506 -0.495 0.941 -1.241 0.702 -0.761 1.399 -0.751 2.4 -0.84l-0.02 -0.72C9.6 2.88 9.6 2.88 10.195 2.523q0.764 -0.33 1.539 -0.63C12.537 1.6 12.537 1.6 13.44 1.04c1.142 -0.476 1.996 -0.452 3.215 -0.371C17.741 0.619 17.77 0.003 19.024 -0.026" fill="#62B4F9"/><path d="M10.24 13.76c0.94 0.8 0.94 0.8 1.6 1.6l0.82 -0.8c0.828 -0.685 1.12 -0.803 2.24 -0.98 1.288 0.211 1.82 0.502 2.7 1.46 0.26 0.88 0.26 0.88 0.32 1.6l0.68 -0.48c1.071 -0.559 1.648 -0.658 2.84 -0.48 0.834 0.654 1.232 1.036 1.439 2.087C22.826 20.358 22.384 22.768 21.76 25.28c0.874 -0.504 1.583 -0.943 2.3 -1.66L24.64 23.04h0.64c-0.08 1.361 -0.182 2.072 -1.06 3.14C22.72 27.401 21.817 27.7 19.84 27.52c-0.62 -0.34 -0.62 -0.34 -0.96 -0.96 -0.295 -1.937 0.376 -3.588 1 -5.412 0.262 -0.924 0.337 -1.636 0.28 -2.588 -1.064 0.442 -1.535 0.873 -2.12 1.86l-0.393 0.646c-0.95 1.793 -1.109 3.276 -1.186 5.287 -0.046 0.279 -0.093 0.559 -0.141 0.846 -0.96 0.64 -0.96 0.64 -1.82 0.52L13.76 27.52c-0.177 -2.45 0.208 -4.349 0.995 -6.665C15.155 19.43 15.159 18.106 15.04 16.64c-0.749 -0.039 -0.749 -0.039 -1.6 0.32 -2.02 2.405 -2.344 4.976 -2.365 7.996 -0.057 1.774 -0.057 1.774 -0.794 2.576 -0.888 0.402 -1.367 0.285 -2.281 -0.012 -0.526 -0.526 -0.387 -1.115 -0.4 -1.84 0.01 -1.798 0.384 -3.389 0.826 -5.124 0.315 -1.526 0.298 -3.006 0.214 -4.556l-0.58 0.32C7.36 16.64 7.36 16.64 6.4 16.64c-0.1 -0.72 -0.1 -0.72 0 -1.6 1.164 -1.306 2.127 -1.555 3.84 -1.28" fill="#F6FAFE"/><path d="m33.42 13.72 1.172 0.009q1.424 0.012 2.848 0.031c-0.28 1.88 -0.28 1.88 -0.64 2.24 -0.863 0.023 -1.717 0.029 -2.58 0.02l-0.736 -0.004Q32.582 16.009 31.68 16l-0.64 3.2h3.2c0.014 0.64 0.013 1.28 0 1.92 -0.557 0.557 -1.342 0.439 -2.1 0.5l-0.981 0.081L30.4 21.76c-0.634 1.565 -0.748 3.008 -0.819 4.675L29.44 27.2c-1.099 0.733 -1.595 0.697 -2.88 0.64q-0.013 -1.16 -0.02 -2.32l-0.008 -0.661c-0.005 -1.081 0.01 -2.066 0.348 -3.099h-1.6c0.04 -0.6 0.04 -0.6 0.32 -1.28l0.94 -0.28L27.52 19.84c0.437 -0.885 0.437 -0.885 0.64 -1.92l0.64 -1.92 -0.515 0.258L24.96 17.92c-0.12 -0.86 -0.12 -0.86 0 -1.92 2.37 -2.543 5.184 -2.326 8.46 -2.28" fill="#F6FAFE"/><path d="M33.6 5.44c1.86 0.585 3.135 1.89 4.16 3.52 1.051 2.288 1.051 2.288 0.64 3.52l-0.4 -0.739c-1.133 -2.027 -2.318 -3.77 -3.919 -5.455C33.6 5.76 33.6 5.76 33.6 5.44" fill="#F8FBFE"/><path d="M16.64 0.64v0.64l-0.727 0.224C13.694 2.21 11.649 3.054 9.6 4.16V2.88l0.563 -0.246 0.757 -0.334 0.8 -0.351c0.812 -0.36 0.812 -0.36 1.76 -0.909C14.587 0.559 15.445 0.568 16.64 0.64" fill="#F7FBFE"/><path d="M1.6 15.36c0.496 0.991 0.266 2.004 0.18 3.08l-0.051 0.685Q1.667 19.963 1.6 20.8l-0.32 -0.64H0.64C0.26 19.5 0.26 19.5 0 18.56c0.413 -1.196 0.899 -2.148 1.6 -3.2" fill="#F6FAFE"/><path d="M17.92 0c0.874 -0.036 1.655 -0.016 2.52 0.06l0.699 0.043C22.406 0.198 23.162 0.381 24.32 0.96H17.28z" fill="#EFF7FE"/><path d="m7.36 4.8 1.28 0.32 -0.655 0.644 -0.865 0.856 -0.855 0.844C5.508 8.25 4.826 9.056 4.16 9.92c0.105 -1.729 1.134 -2.624 2.24 -3.84a50.56 50.56 0 0 0 0.96 -1.28" fill="#ECF5FE"/><path d="M1.6 23.68c0.46 0.872 0.795 1.717 1.08 2.66 0.321 1.002 0.694 1.861 1.24 2.76L4.48 30.08l-0.32 0.64a249.6 249.6 0 0 1 -1.18 -1.895c-0.428 -0.697 -0.428 -0.697 -1 -1.445C1.416 26.163 1.523 25 1.6 23.68" fill="#ECF6FE"/><path d="M28.48 2.24c2.028 0.193 3.273 0.943 4.6 2.48L33.6 5.44c-1.004 -0.486 -1.962 -1.028 -2.92 -1.6l-0.843 -0.5C29.12 2.88 29.12 2.88 28.48 2.24" fill="#EEF7FE"/><path d="M7.36 34.24c1.077 0.462 1.763 1.067 2.56 1.92 -0.74 -0.06 -0.74 -0.06 -1.6 -0.32 -0.58 -0.82 -0.58 -0.82 -0.96 -1.6" fill="#EDF6FE"/></svg>