<?xml version="1.0" encoding="UTF-8"?>
<svg version="1.1" xmlns="http://www.w3.org/2000/svg" width="337" height="143">
<path d="M0 0 C111.21 0 222.42 0 337 0 C337 47.19 337 94.38 337 143 C225.79 143 114.58 143 0 143 C0 95.81 0 48.62 0 0 Z " fill="#FDFCFC" transform="translate(0,0)"/>
<path d="M0 0 C4.61063293 3.38113081 5.75564454 6.54544802 7 12 C7.24039927 14.78614054 7.23486176 17.54506154 7.1953125 20.33984375 C7.1924826 21.10680069 7.18965271 21.87375763 7.18673706 22.66395569 C7.17563475 25.08863621 7.15054967 27.51293309 7.125 29.9375 C7.1149573 31.5917915 7.10583372 33.24608885 7.09765625 34.90039062 C7.07572817 38.93373923 7.04126843 42.9668048 7 47 C7.40049561 45.91315918 7.80099121 44.82631836 8.21362305 43.70654297 C8.75034348 42.26003741 9.28721684 40.81358859 9.82421875 39.3671875 C10.08682495 38.65328857 10.34943115 37.93938965 10.61999512 37.20385742 C14.40791633 27.02691744 19.34137522 16.9419583 28 10 C30.58984375 9.54296875 30.58984375 9.54296875 33 10 C34.61865234 11.14111328 34.61865234 11.14111328 36 13 C36.43237305 15.8190918 36.43237305 15.8190918 36.51171875 19.19921875 C36.54716797 20.40771484 36.58261719 21.61621094 36.61914062 22.86132812 C36.64169922 24.12396484 36.66425781 25.38660156 36.6875 26.6875 C36.72166016 27.96173828 36.75582031 29.23597656 36.79101562 30.54882812 C36.87360784 33.69913103 36.94272335 36.84915157 37 40 C37.56267578 39.20658203 38.12535156 38.41316406 38.70507812 37.59570312 C48.09886128 24.40738687 48.09886128 24.40738687 52.625 23.4375 C55 24 55 24 56.6328125 25.6640625 C58.36889091 28.63027647 58.33460925 30.51505572 58.25 33.9375 C58.22421875 35.07445312 58.1984375 36.21140625 58.171875 37.3828125 C57.90811413 42.93377992 57.50719081 48.46618602 57 54 C60.01946824 51.69486905 62.58995462 49.57237105 64.75 46.4375 C65.15734375 45.85871094 65.5646875 45.27992187 65.984375 44.68359375 C67.16861181 42.85959467 67.16861181 42.85959467 68 40 C68.66 40 69.32 40 70 40 C70 39.34 70 38.68 70 38 C69.34 38 68.68 38 68 38 C68 36.68 68 35.36 68 34 C68.99 34 69.98 34 71 34 C71 35.32 71 36.64 71 38 C71.66 38 72.32 38 73 38 C72.67 40.97 72.34 43.94 72 47 C74.49552484 46.21869929 74.49552484 46.21869929 77 45 C77.90238747 42.29283758 78.11851302 40.76223232 78.09765625 37.98828125 C78.09443359 37.23095703 78.09121094 36.47363281 78.08789062 35.69335938 C78.07951172 34.90767578 78.07113281 34.12199219 78.0625 33.3125 C78.05798828 32.51521484 78.05347656 31.71792969 78.04882812 30.89648438 C78.0370585 28.93095743 78.01912348 26.96546915 78 25 C75.69 25 73.38 25 71 25 C71 24.34 71 23.68 71 23 C73.31 23 75.62 23 78 23 C78.33 19.37 78.66 15.74 79 12 C79.99 12 80.98 12 82 12 C82 15.63 82 19.26 82 23 C85.3 23 88.6 23 92 23 C92 19.37 92 15.74 92 12 C92.99 12 93.98 12 95 12 C95 15.63 95 19.26 95 23 C98.96 23 102.92 23 107 23 C107 23.66 107 24.32 107 25 C103.04 25 99.08 25 95 25 C95.08781267 27.52234319 95.19478007 30.0415165 95.3125 32.5625 C95.33505859 33.26697266 95.35761719 33.97144531 95.38085938 34.69726562 C95.63747309 39.75955442 96.76766402 43.44555581 99 48 C100.87880872 47.95231597 100.87880872 47.95231597 103 47 C104.3726682 45.02678947 105.70427617 43.02456848 107 41 C109.65799923 38.58363706 110.35294333 38 114 38 C114 40 114 40 112 42.125 C111.34 42.74375 110.68 43.3625 110 44 C110.886875 43.814375 111.77375 43.62875 112.6875 43.4375 C115.88404352 43.01531501 117.90691415 43.28864295 121 44 C120.98952637 43.41210693 120.97905273 42.82421387 120.96826172 42.21850586 C120.48388286 10.77986565 120.48388286 10.77986565 125 3 C126.65 3.33 128.3 3.66 130 4 C130.53088359 13.73286583 129.52406023 22.33149976 127.43164062 31.83007812 C126.11364431 37.95376496 125.48173949 43.72328939 126 50 C131.52628901 48.80805531 134.17819158 47.4008703 138 43 C137.52470993 47.27761063 135.2331694 49.34161627 132 52 C128.9375 53.0625 128.9375 53.0625 126 53 C123.625 51.25 123.625 51.25 122 49 C122 48.01 122 47.02 122 46 C120.4156683 46.08768248 118.83246433 46.19587329 117.25 46.3125 C116.36828125 46.37050781 115.4865625 46.42851563 114.578125 46.48828125 C111.63164881 47.07311213 110.36865362 48.21546096 108 50 C104.33640445 50.91180396 100.7693472 51.21188638 97 51 C93.8125 49.0625 93.8125 49.0625 92 47 C91.67 47.99 91.34 48.98 91 50 C88.15916359 51.42041821 86.14522722 51.31452272 83 51 C80.625 49 80.625 49 79 47 C78.443125 47.495 77.88625 47.99 77.3125 48.5 C74.58491075 50.26924708 73.19151509 50.4199362 70 50 C69.34 49.34 68.68 48.68 68 48 C67.34644531 48.84884766 67.34644531 48.84884766 66.6796875 49.71484375 C61.75471698 55.78044597 61.75471698 55.78044597 57.5625 57 C56.716875 57 55.87125 57 55 57 C52.63991183 53.45986775 52.76536356 51.98878045 52.8046875 47.80078125 C52.81113281 46.59228516 52.81757812 45.38378906 52.82421875 44.13867188 C52.84935547 42.2447168 52.84935547 42.2447168 52.875 40.3125 C52.88402344 39.03826172 52.89304687 37.76402344 52.90234375 36.45117188 C52.92594359 33.30059373 52.95886806 30.15039017 53 27 C47.19433777 31.34355878 43.85538787 36.36496377 40.05664062 42.46875 C36.58913292 47.79578886 36.58913292 47.79578886 33.16015625 48.984375 C32.44730469 48.98953125 31.73445313 48.9946875 31 49 C31.0721875 48.06542969 31.144375 47.13085938 31.21875 46.16796875 C31.97752224 35.42923379 32.10528838 24.76281168 32 14 C27.46733615 14.82160914 25.56969422 17.37170463 23 21 C15.46093172 33.11245753 11.51970758 46.83279743 7.19921875 60.31640625 C5.68851949 65.00983459 4.07720834 69.52963253 2 74 C1.01 74 0.02 74 -1 74 C-0.53853278 68.39155714 -0.0035204 62.80736611 0.75390625 57.23046875 C4.73891914 30.36966353 4.73891914 30.36966353 0 4 C-0.495 3.505 -0.495 3.505 -1 3 C-9.9413519 3 -15.53590947 6.65782791 -21.859375 12.80859375 C-25.9234134 17.3253097 -29.09478104 21.82762814 -29.375 28.0625 C-28.87049023 33.35985258 -27.48878057 35.62875474 -23.625 39.1875 C-19.09325623 42.31656117 -14.27997018 43.55059642 -9 45 C-9 45.33 -9 45.66 -9 46 C-16.12335915 46.65957029 -21.03437412 44.94633327 -27 41 C-30.72376126 37.52278914 -33.13635601 34.14002431 -33.375 29 C-33.26866099 21.65079296 -29.73866842 15.54971673 -24.8125 10.25 C-17.7665825 3.729436 -9.79747918 -1.0313136 0 0 Z " fill="#B37673" transform="translate(45,26)"/>
<path d="M0 0 C2.4375 0.375 2.4375 0.375 5 1 C8.27843908 7.55687816 5.04526441 16.48071971 3 23 C1.45150356 27.05558591 -0.22336525 31.03943874 -2 35 C-1.05125 34.814375 -0.1025 34.62875 0.875 34.4375 C4 34 4 34 6 35 C6 36.98 6 38.96 6 41 C9.12586629 39.86963623 12.13325156 38.69300427 15 37 C16.2113453 34.3912295 16.2113453 34.3912295 16 32 C16.99 32 17.98 32 19 32 C19.33 32.99 19.66 33.98 20 35 C21.32 35 22.64 35 24 35 C23.67 37.97 23.34 40.94 23 44 C27.31987938 41.40807237 29.48837274 39.30564673 32 35 C32.99 35 33.98 35 35 35 C35 36.98 35 38.96 35 41 C38.76991208 40.03560389 40.7750306 39.2249694 43.5625 36.4375 C46.16460587 33.83539413 47.40873222 33.30782295 51 33 C51 33.66 51 34.32 51 35 C50.360625 35.268125 49.72125 35.53625 49.0625 35.8125 C46.66868314 36.88667752 46.66868314 36.88667752 46 40 C47.79724763 39.63033201 49.58785578 39.2282752 51.375 38.8125 C52.37273437 38.59207031 53.37046875 38.37164062 54.3984375 38.14453125 C57.2183609 37.24469579 57.2183609 37.24469579 58.1640625 34.51171875 C58.43992187 33.68285156 58.71578125 32.85398438 59 32 C62.22791555 29.8480563 63.28400809 29.79913557 67 30 C67 31.32 67 32.64 67 34 C65.02 33.505 65.02 33.505 63 33 C62.21717352 34.79199472 62.21717352 34.79199472 62 37 C63.3516367 39.24755753 63.3516367 39.24755753 65 41 C65.556875 40.71125 66.11375 40.4225 66.6875 40.125 C69.08494645 38.9586747 71.51596939 37.9660119 74 37 C72.55922954 40.36179774 70.75249979 42.59156268 68 45 C67.34 45 66.68 45 66 45 C65.62875 46.2065625 65.62875 46.2065625 65.25 47.4375 C64.8375 48.283125 64.425 49.12875 64 50 C62.68 50.33 61.36 50.66 60 51 C60.495 46.05 60.495 46.05 61 41 C56.84584474 39.96146118 56.32711894 40.01603795 52.625 41.4375 C46.12438966 43.57202877 39.76808513 43.24561599 33 43 C30.82665619 42.81509993 30.82665619 42.81509993 28.75 44.5 C25.57146655 46.23374552 23.56487613 46.24871229 20 46 C18.875 41.25 18.875 41.25 20 39 C14.16378423 40.69705565 9.18477577 42.85008749 4.04296875 46.109375 C1.57700753 47.18440207 0.47895445 46.9135922 -2 46 C-1.360625 45.278125 -0.72125 44.55625 -0.0625 43.8125 C1.98673535 41.01808816 2.61332946 39.38336726 3 36 C0.47411298 38.36292656 -0.88820837 39.66462511 -2 43 C-2.99 42.67 -3.98 42.34 -5 42 C-5 41.34 -5 40.68 -5 40 C-10.35617338 40.33189963 -13.71047846 40.62966165 -18 44 C-20.75 43.6875 -20.75 43.6875 -23 43 C-23 42.01 -23 41.02 -23 40 C-26.3 39.67 -29.6 39.34 -33 39 C-33.03738281 39.71542969 -33.07476562 40.43085937 -33.11328125 41.16796875 C-33.87658819 52.7373072 -35.07666656 63.98308147 -43 73 C-46.67346771 75.44897847 -48.66356399 75.31537716 -53 75 C-55 73 -55 73 -55.25 70 C-55 67 -55 67 -53 65 C-52.01 65 -51.02 65 -50 65 C-50.33 67.31 -50.66 69.62 -51 72 C-48.62766389 71.96219702 -48.62766389 71.96219702 -46 71 C-40.43260096 64.45011877 -38.63943895 55.99197961 -37.875 47.625 C-37.79717285 46.84278076 -37.7193457 46.06056152 -37.63916016 45.25463867 C-36.5680764 33.53895833 -36.32430314 21.75532967 -36 10 C-37.04800781 10.01740234 -37.04800781 10.01740234 -38.1171875 10.03515625 C-39.02726563 10.04417969 -39.93734375 10.05320312 -40.875 10.0625 C-41.77992188 10.07410156 -42.68484375 10.08570313 -43.6171875 10.09765625 C-46 10 -46 10 -48 9 C-47.125 4.125 -47.125 4.125 -46 3 C-44.0390625 2.796875 -44.0390625 2.796875 -41.625 2.75 C-40.83351562 2.72421875 -40.04203125 2.6984375 -39.2265625 2.671875 C-36.48790294 3.07546694 -35.84806947 4.02906719 -34 6 C-30.16863465 6.37562405 -27.26198454 6.07621368 -23.5625 5 C-18.64295098 3.58052538 -13.60707885 3.9544942 -8.54711914 4.25 C-6.26238548 4.37143571 -6.26238548 4.37143571 -3 4 C-0.97173974 2.14506908 -0.97173974 2.14506908 0 0 Z " fill="#B07571" transform="translate(252,32)"/>
<path d="M0 0 C12.21 0 24.42 0 37 0 C42.61102832 13.46646796 42.61102832 13.46646796 44.5625 19.0625 C46.41981352 24.3750063 48.36466429 29.64317963 50.3984375 34.890625 C51 37 51 37 50 39 C52.31 39 54.62 39 57 39 C57.31369235 42.0805394 57.56833632 45.16323354 57.8125 48.25 C57.90208984 49.12269531 57.99167969 49.99539062 58.08398438 50.89453125 C58.55271885 57.35813295 58.55271885 57.35813295 55.69921875 60.671875 C53 62 53 62 50 61 C50.875 54.25 50.875 54.25 52 52 C51.34 52 50.68 52 50 52 C50 50.68 50 49.36 50 48 C49.01 48 48.02 48 47 48 C47 49.32 47 50.64 47 52 C47.66 52 48.32 52 49 52 C49 52.66 49 53.32 49 54 C48.34 54 47.68 54 47 54 C46.91621094 54.72574219 46.83242187 55.45148438 46.74609375 56.19921875 C45.84147259 59.59510028 44.42624616 61.23503357 42.0625 63.8125 C41.35222656 64.60269531 40.64195313 65.39289063 39.91015625 66.20703125 C38 68 38 68 36 68 C36.01047363 67.22809326 36.02094727 66.45618652 36.03173828 65.66088867 C36.07326454 62.16979212 36.09931557 58.67874751 36.125 55.1875 C36.14175781 53.97255859 36.15851563 52.75761719 36.17578125 51.50585938 C36.18222656 50.34248047 36.18867187 49.17910156 36.1953125 47.98046875 C36.20578613 46.90692139 36.21625977 45.83337402 36.22705078 44.72729492 C36.20315543 41.78066259 36.20315543 41.78066259 34 39 C31.61054339 38.36336498 31.61054339 38.36336498 29 39 C26.5715797 40.965182 26.5715797 40.965182 24.4375 43.625 C23.27541016 44.98625 23.27541016 44.98625 22.08984375 46.375 C19.86868469 49.16494185 17.90201963 51.98846892 16 55 C15.67 55 15.34 55 15 55 C14.98018066 54.16227051 14.96036133 53.32454102 14.93994141 52.46142578 C14.86189388 49.35634166 14.77520365 46.25165461 14.68261719 43.14697266 C14.62545964 41.14113029 14.57831404 39.13501082 14.53125 37.12890625 C14.49257812 35.87207031 14.45390625 34.61523438 14.4140625 33.3203125 C14.36693115 31.57645264 14.36693115 31.57645264 14.31884766 29.79736328 C14.27842131 26.86343518 14.27842131 26.86343518 12 25 C11.68115234 23.02880859 11.68115234 23.02880859 11.5859375 20.6484375 C11.54726562 19.79765625 11.50859375 18.946875 11.46875 18.0703125 C11.4378125 17.18085938 11.406875 16.29140625 11.375 15.375 C11.33632812 14.4778125 11.29765625 13.580625 11.2578125 12.65625 C11.16341224 10.43784395 11.08061195 8.21894987 11 6 C7.37 5.01 3.74 4.02 0 3 C0 2.01 0 1.02 0 0 Z " fill="#F8E4E2" transform="translate(66,12)"/>
<path d="M0 0 C1.60279192 0.00015914 3.20558896 0.00585476 4.80834961 0.01586914 C5.65038437 0.01728409 6.49241913 0.01869904 7.35997009 0.02015686 C10.06024671 0.02577276 12.76044163 0.03832791 15.46069336 0.05102539 C17.28686404 0.05603834 19.11303602 0.06060161 20.93920898 0.06469727 C25.42556878 0.07574735 29.9118672 0.0930226 34.39819336 0.11352539 C34.39819336 1.10352539 34.39819336 2.09352539 34.39819336 3.11352539 C30.10819336 3.11352539 25.81819336 3.11352539 21.39819336 3.11352539 C21.39819336 8.06352539 21.39819336 13.01352539 21.39819336 18.11352539 C19.74819336 18.11352539 18.09819336 18.11352539 16.39819336 18.11352539 C13.68726549 27.87286573 13.24634579 37.65397879 12.83569336 47.73852539 C12.79250977 48.74270508 12.74932617 49.74688477 12.70483398 50.78149414 C12.60009477 53.22540922 12.49792079 55.66940156 12.39819336 58.11352539 C11.79491211 58.09032227 11.19163086 58.06711914 10.57006836 58.04321289 C9.77084961 58.02516602 8.97163086 58.00711914 8.14819336 57.98852539 C7.35928711 57.96532227 6.57038086 57.94211914 5.75756836 57.91821289 C3.19087395 58.13068759 1.60658666 58.82698434 -0.60180664 60.11352539 C0.44694333 57.49165045 1.04750649 56.31981178 3.52319336 54.86352539 C4.14194336 54.61602539 4.76069336 54.36852539 5.39819336 54.11352539 C5.39819336 53.45352539 5.39819336 52.79352539 5.39819336 52.11352539 C-0.540727 54.37597124 -3.1851843 58.01282325 -6.60180664 63.11352539 C-8.41430664 63.05102539 -8.41430664 63.05102539 -10.60180664 62.11352539 C-13.58636629 56.90228304 -14.00023576 52.58744903 -13.78930664 46.67602539 C-13.77577148 45.94448242 -13.76223633 45.21293945 -13.74829102 44.45922852 C-13.71334538 42.67700117 -13.65955469 40.89515966 -13.60180664 39.11352539 C-9.64180664 39.11352539 -5.68180664 39.11352539 -1.60180664 39.11352539 C-1.60180664 38.45352539 -1.60180664 37.79352539 -1.60180664 37.11352539 C-5.56180664 37.11352539 -9.52180664 37.11352539 -13.60180664 37.11352539 C-13.60180664 33.48352539 -13.60180664 29.85352539 -13.60180664 26.11352539 C-14.26180664 25.78352539 -14.92180664 25.45352539 -15.60180664 25.11352539 C-14.61180664 24.78352539 -13.62180664 24.45352539 -12.60180664 24.11352539 C-11.45147006 21.83601049 -11.45147006 21.83601049 -10.59399414 19.01977539 C-10.24723633 17.98981445 -9.90047852 16.95985352 -9.54321289 15.89868164 C-9.19129883 14.81458008 -8.83938477 13.73047852 -8.47680664 12.61352539 C-7.76813661 10.47735516 -7.05731571 8.34189686 -6.34399414 6.20727539 C-6.03316895 5.25530273 -5.72234375 4.30333008 -5.40209961 3.32250977 C-4.10770431 -0.25030556 -4.1156994 0.12972278 0 0 Z " fill="#F8E4E3" transform="translate(153.601806640625,11.886474609375)"/>
<path d="M0 0 C28.38 0 56.76 0 86 0 C86.33 10.56 86.66 21.12 87 32 C85.35 32 83.7 32 82 32 C81.773125 30.906875 81.54625 29.81375 81.3125 28.6875 C80.14969336 23.94290941 78.13791212 19.70815289 76.0234375 15.3203125 C75 13 75 13 75 11 C74.34 10.7525 73.68 10.505 73 10.25 C69.93793847 8.97414103 67.07142256 7.48650304 64.16015625 5.90234375 C58.3623864 3.48049052 51.81731595 3.70723531 45.625 3.4375 C42.44875 3.293125 39.2725 3.14875 36 3 C36 9.93 36 16.86 36 24 C33.525 24.185625 33.525 24.185625 31 24.375 C27.4712212 24.6871612 24.16324524 25.11512288 20.75 26.0625 C16.95769717 27.01057571 13.88840654 27.38884065 10 27 C9.34 26.01 8.68 25.02 8 24 C8.66 23.67 9.32 23.34 10 23 C10 23.66 10 24.32 10 25 C10.99 25 11.98 25 13 25 C13 17.74 13 10.48 13 3 C8.71 3 4.42 3 0 3 C0 2.01 0 1.02 0 0 Z " fill="#F8E4E3" transform="translate(208,12)"/>
<path d="M0 0 C4.61063293 3.38113081 5.75564454 6.54544802 7 12 C7.24039927 14.78614054 7.23486176 17.54506154 7.1953125 20.33984375 C7.1924826 21.10680069 7.18965271 21.87375763 7.18673706 22.66395569 C7.17563475 25.08863621 7.15054967 27.51293309 7.125 29.9375 C7.1149573 31.5917915 7.10583372 33.24608885 7.09765625 34.90039062 C7.07572817 38.93373923 7.04126843 42.9668048 7 47 C7.40049561 45.91315918 7.80099121 44.82631836 8.21362305 43.70654297 C8.75034348 42.26003741 9.28721684 40.81358859 9.82421875 39.3671875 C10.08682495 38.65328857 10.34943115 37.93938965 10.61999512 37.20385742 C14.40791633 27.02691744 19.34137522 16.9419583 28 10 C30.58984375 9.54296875 30.58984375 9.54296875 33 10 C34.61865234 11.14111328 34.61865234 11.14111328 36 13 C36.43237305 15.8190918 36.43237305 15.8190918 36.51171875 19.19921875 C36.54716797 20.40771484 36.58261719 21.61621094 36.61914062 22.86132812 C36.64169922 24.12396484 36.66425781 25.38660156 36.6875 26.6875 C36.72166016 27.96173828 36.75582031 29.23597656 36.79101562 30.54882812 C36.87360784 33.69913103 36.94272335 36.84915157 37 40 C37.56267578 39.20658203 38.12535156 38.41316406 38.70507812 37.59570312 C48.09886128 24.40738687 48.09886128 24.40738687 52.625 23.4375 C55 24 55 24 56.6328125 25.6640625 C58.36889091 28.63027647 58.33460925 30.51505572 58.25 33.9375 C58.22421875 35.07445312 58.1984375 36.21140625 58.171875 37.3828125 C57.90811413 42.93377992 57.50719081 48.46618602 57 54 C60.52644602 51.38959174 62.90706808 48.9916202 65.1875 45.25 C66.66796875 42.828125 66.66796875 42.828125 68 41 C68.66 41 69.32 41 70 41 C69.46247242 45.33138169 67.99490032 47.83696493 65.3125 51.25 C64.31669922 52.55710937 64.31669922 52.55710937 63.30078125 53.890625 C60.53645562 56.42498126 58.68433185 56.72591523 55 57 C52.63991183 53.45986775 52.76536356 51.98878045 52.8046875 47.80078125 C52.81113281 46.59228516 52.81757812 45.38378906 52.82421875 44.13867188 C52.84935547 42.2447168 52.84935547 42.2447168 52.875 40.3125 C52.88402344 39.03826172 52.89304687 37.76402344 52.90234375 36.45117188 C52.92594359 33.30059373 52.95886806 30.15039017 53 27 C47.19433777 31.34355878 43.85538787 36.36496377 40.05664062 42.46875 C36.58913292 47.79578886 36.58913292 47.79578886 33.16015625 48.984375 C32.44730469 48.98953125 31.73445313 48.9946875 31 49 C31.0721875 48.06542969 31.144375 47.13085938 31.21875 46.16796875 C31.97752224 35.42923379 32.10528838 24.76281168 32 14 C27.46733615 14.82160914 25.56969422 17.37170463 23 21 C15.46093172 33.11245753 11.51970758 46.83279743 7.19921875 60.31640625 C5.68851949 65.00983459 4.07720834 69.52963253 2 74 C1.01 74 0.02 74 -1 74 C-0.53853278 68.39155714 -0.0035204 62.80736611 0.75390625 57.23046875 C4.73891914 30.36966353 4.73891914 30.36966353 0 4 C-0.495 3.505 -0.495 3.505 -1 3 C-9.9413519 3 -15.53590947 6.65782791 -21.859375 12.80859375 C-25.9234134 17.3253097 -29.09478104 21.82762814 -29.375 28.0625 C-28.87049023 33.35985258 -27.48878057 35.62875474 -23.625 39.1875 C-19.09325623 42.31656117 -14.27997018 43.55059642 -9 45 C-9 45.33 -9 45.66 -9 46 C-16.12335915 46.65957029 -21.03437412 44.94633327 -27 41 C-30.72376126 37.52278914 -33.13635601 34.14002431 -33.375 29 C-33.26866099 21.65079296 -29.73866842 15.54971673 -24.8125 10.25 C-17.7665825 3.729436 -9.79747918 -1.0313136 0 0 Z " fill="#B2726E" transform="translate(45,26)"/>
<path d="M0 0 C2.97 0 5.94 0 9 0 C9 1.32 9 2.64 9 4 C12.37462715 3.45276317 14.08235 2.9451 17 1 C18.98 1 20.96 1 23 1 C23 12.88 23 24.76 23 37 C27.29 37 31.58 37 36 37 C36 37.99 36 38.98 36 40 C19.83 40 3.66 40 -13 40 C-13 39.01 -13 38.02 -13 37 C-8.71 37 -4.42 37 0 37 C0 24.79 0 12.58 0 0 Z " fill="#F8E4E3" transform="translate(221,71)"/>
<path d="M0 0 C1.32451172 0.05414063 1.32451172 0.05414063 2.67578125 0.109375 C3.67158203 0.17898437 3.67158203 0.17898437 4.6875 0.25 C5.3475 1.9 6.0075 3.55 6.6875 5.25 C8.9975 5.58 11.3075 5.91 13.6875 6.25 C13.3575 16.15 13.0275 26.05 12.6875 36.25 C16.6475 36.25 20.6075 36.25 24.6875 36.25 C24.6875 37.24 24.6875 38.23 24.6875 39.25 C8.8475 39.25 -6.9925 39.25 -23.3125 39.25 C-23.3125 38.26 -23.3125 37.27 -23.3125 36.25 C-19.0225 36.25 -14.7325 36.25 -10.3125 36.25 C-10.33868408 35.30157227 -10.36486816 34.35314453 -10.3918457 33.37597656 C-10.47717084 29.8497801 -10.53979529 26.32468335 -10.5871582 22.79785156 C-10.61227103 21.2729357 -10.64636883 19.74813985 -10.68969727 18.22363281 C-10.75050044 16.02899574 -10.77873887 13.8359519 -10.80078125 11.640625 C-10.82696533 10.32094727 -10.85314941 9.00126953 -10.88012695 7.64160156 C-10.3125 4.25 -10.3125 4.25 -7.94921875 1.8125 C-4.97866391 0.05217121 -3.41202532 -0.18197468 0 0 Z " fill="#F8E4E2" transform="translate(162.3125,71.75)"/>
<path d="M0 0 C-0.66 10.23 -1.32 20.46 -2 31 C-7 32 -7 32 -9.5625 31.875 C-12.57589279 32.02953296 -13.78240596 33.0288053 -16 35 C-15.3125 32.625 -15.3125 32.625 -14 30 C-11.375 28.6875 -11.375 28.6875 -9 28 C-9 27.34 -9 26.68 -9 26 C-12.04760712 27.04489387 -13.88151483 27.88151483 -16.1875 30.1875 C-19 32 -19 32 -29 31 C-29.33 22.09 -29.66 13.18 -30 4 C-19.62551705 -0.14979318 -11.712728 0 0 0 Z " fill="#F8E3E1" transform="translate(249,38)"/>
<path d="M0 0 C0.5775 0.61875 1.155 1.2375 1.75 1.875 C3.80249821 3.81347053 5.43366582 4.90014249 8 6 C7.34 6 6.68 6 6 6 C5.59136719 7.22589844 5.18273437 8.45179687 4.76171875 9.71484375 C1.5078125 19.4765625 -1.74609375 29.23828125 -5 39 C-6.32 39 -7.64 39 -9 39 C-10.51075416 35.08739673 -12.00671908 31.16930187 -13.5 27.25 C-13.92925781 26.13882813 -14.35851562 25.02765625 -14.80078125 23.8828125 C-15.20683594 22.81289062 -15.61289063 21.74296875 -16.03125 20.640625 C-16.40830078 19.65610352 -16.78535156 18.67158203 -17.17382812 17.65722656 C-18 15 -18 15 -18 11 C-18.66 10.67 -19.32 10.34 -20 10 C-17 7 -14 4 -11 1 C-10.34 1.66 -9.68 2.32 -9 3 C-3.96494948 2.76135558 -3.96494948 2.76135558 0 0 Z " fill="#F8E4E3" transform="translate(124,72)"/>
<path d="M0 0 C1.32 0 2.64 0 4 0 C4 9.57 4 19.14 4 29 C4.66 29.33 5.32 29.66 6 30 C4.35 30.33 2.7 30.66 1 31 C1 29.68 1 28.36 1 27 C0.01 27 -0.98 27 -2 27 C-2 28.65 -2 30.3 -2 32 C-3.28913487 32.67154933 -4.58140204 33.33708859 -5.875 34 C-6.59429687 34.37125 -7.31359375 34.7425 -8.0546875 35.125 C-10 36 -10 36 -12 36 C-12 34.02 -12 32.04 -12 30 C-14.64 30 -17.28 30 -20 30 C-18.33333333 25 -16.66666667 20 -15 15 C-14.67 15.66 -14.34 16.32 -14 17 C-7.38651806 15.04635845 -7.38651806 15.04635845 -3 10 C-2.62875 9.38125 -2.2575 8.7625 -1.875 8.125 C-0.776156 5.45637886 -0.38870662 2.85051519 0 0 Z " fill="#F6E2E1" transform="translate(270,37)"/>
<path d="M0 0 C2.475 0.495 2.475 0.495 5 1 C5.53088359 10.73286583 4.52406023 19.33149976 2.43164062 28.83007812 C1.11364431 34.95376496 0.48173949 40.72328939 1 47 C6.52628901 45.80805531 9.17819158 44.4008703 13 40 C12.52470993 44.27761063 10.2331694 46.34161627 7 49 C3.9375 50.0625 3.9375 50.0625 1 50 C-1.375 48.25 -1.375 48.25 -3 46 C-3 45.01 -3 44.02 -3 43 C-4.5843317 43.08768248 -6.16753567 43.19587329 -7.75 43.3125 C-8.63171875 43.37050781 -9.5134375 43.42851563 -10.421875 43.48828125 C-13.35262243 44.06999021 -14.69647606 45.15718085 -17 47 C-20.25 47.6875 -20.25 47.6875 -23 48 C-22.25432419 43.15310726 -19.5114557 39.37405064 -15.9375 36.125 C-14 35 -14 35 -11 35 C-11 37 -11 37 -13 39.125 C-13.99 40.053125 -13.99 40.053125 -15 41 C-14.113125 40.814375 -13.22625 40.62875 -12.3125 40.4375 C-9.11595648 40.01531501 -7.09308585 40.28864295 -4 41 C-4.01047363 40.41210693 -4.02094727 39.82421387 -4.03173828 39.21850586 C-4.51611714 7.77986565 -4.51611714 7.77986565 0 0 Z " fill="#B36F6C" transform="translate(170,29)"/>
<path d="M0 0 C2.4375 0.375 2.4375 0.375 5 1 C7.32622007 5.65244014 5.98524838 12.0737581 5 17 C4.34 16.34 3.68 15.68 3 15 C1.68 19.29 0.36 23.58 -1 28 C-1.33 28 -1.66 28 -2 28 C-1.85856168 25.2705414 -1.71200471 22.54151877 -1.5625 19.8125 C-1.52318359 19.04357422 -1.48386719 18.27464844 -1.44335938 17.48242188 C-1.22492966 13.56748925 -0.91307892 9.82879312 0 6 C-0.66 6 -1.32 6 -2 6 C-2.33 6.66 -2.66 7.32 -3 8 C-3 7.34 -3 6.68 -3 6 C-13.06134246 6.40865397 -22.17865725 7.67122801 -32 10 C-32 18.91 -32 27.82 -32 37 C-32.33 37 -32.66 37 -33 37 C-33.33 30.4 -33.66 23.8 -34 17 C-34.33 22.94 -34.66 28.88 -35 35 C-35.33 35 -35.66 35 -36 35 C-36 26.75 -36 18.5 -36 10 C-39.3 10 -42.6 10 -46 10 C-46.66 9.67 -47.32 9.34 -48 9 C-47.125 4.125 -47.125 4.125 -46 3 C-44.0390625 2.796875 -44.0390625 2.796875 -41.625 2.75 C-40.83351562 2.72421875 -40.04203125 2.6984375 -39.2265625 2.671875 C-36.48790294 3.07546694 -35.84806947 4.02906719 -34 6 C-30.16863465 6.37562405 -27.26198454 6.07621368 -23.5625 5 C-18.64295098 3.58052538 -13.60707885 3.9544942 -8.54711914 4.25 C-6.26238548 4.37143571 -6.26238548 4.37143571 -3 4 C-0.97173974 2.14506908 -0.97173974 2.14506908 0 0 Z " fill="#BE8581" transform="translate(252,32)"/>
<path d="M0 0 C0.33 0 0.66 0 1 0 C0.98428955 0.78648926 0.9685791 1.57297852 0.95239258 2.38330078 C0.88984085 5.96379338 0.85094449 9.54417076 0.8125 13.125 C0.78736328 14.3625 0.76222656 15.6 0.73632812 16.875 C0.72666016 18.07382813 0.71699219 19.27265625 0.70703125 20.5078125 C0.6913208 21.60754395 0.67561035 22.70727539 0.65942383 23.84033203 C1.05072604 27.47060673 2.23881774 29.82736589 4 33 C4.33 33.99 4.66 34.98 5 36 C8.465 36.495 8.465 36.495 12 37 C12 37.99 12 38.98 12 40 C2.76 40 -6.48 40 -16 40 C-15.67 38.68 -15.34 37.36 -15 36 C-12.69 35.34 -10.38 34.68 -8 34 C-8 33.34 -8 32.68 -8 32 C-7.34 32 -6.68 32 -6 32 C-4.94161873 25.99139451 -4.88337429 20.15372439 -4.9375 14.0625 C-4.94201172 13.09248047 -4.94652344 12.12246094 -4.95117188 11.12304688 C-4.9628685 8.7486324 -4.97925914 6.37434979 -5 4 C-4.360625 3.71125 -3.72125 3.4225 -3.0625 3.125 C-0.84793921 2.17176549 -0.84793921 2.17176549 0 0 Z " fill="#F7E5E5" transform="translate(82,71)"/>
<path d="M0 0 C3.54222359 7.08444718 6.53081267 14.24465261 9.16796875 21.71484375 C9.94623999 23.98765924 9.94623999 23.98765924 11 26 C11.5 28.625 11.5 28.625 11 32 C8.90720778 34.90898118 6.5247905 37.46232791 4 40 C2.68 39.34 1.36 38.68 0 38 C0 25.46 0 12.92 0 0 Z " fill="#FDFAFA" transform="translate(82,21)"/>
<path d="M0 0 C4.50258126 3.30189292 6.01121882 6.56170352 7 12 C6.625 14.4375 6.625 14.4375 6 16 C5.01 16 4.02 16 3 16 C2.79503906 15.14535156 2.59007812 14.29070313 2.37890625 13.41015625 C2.10949219 12.30542969 1.84007812 11.20070313 1.5625 10.0625 C1.29566406 8.96035156 1.02882812 7.85820313 0.75390625 6.72265625 C0.27004275 4.10578746 0.27004275 4.10578746 -1 3 C-9.9413519 3 -15.53590947 6.65782791 -21.859375 12.80859375 C-25.9234134 17.3253097 -29.09478104 21.82762814 -29.375 28.0625 C-28.87049023 33.35985258 -27.48878057 35.62875474 -23.625 39.1875 C-19.09325623 42.31656117 -14.27997018 43.55059642 -9 45 C-9 45.33 -9 45.66 -9 46 C-16.12335915 46.65957029 -21.03437412 44.94633327 -27 41 C-30.72376126 37.52278914 -33.13635601 34.14002431 -33.375 29 C-33.26866099 21.65079296 -29.73866842 15.54971673 -24.8125 10.25 C-17.7665825 3.729436 -9.79747918 -1.0313136 0 0 Z " fill="#AD7471" transform="translate(45,26)"/>
<path d="M0 0 C3.96 0 7.92 0 12 0 C12.41129032 18.09677419 12.41129032 18.09677419 7 24 C5.1875 23.9375 5.1875 23.9375 3 23 C0.15427406 17.69162661 -0.39991983 13.51570199 -0.1875 7.5625 C-0.17396484 6.83095703 -0.16042969 6.09941406 -0.14648438 5.34570312 C-0.11153874 3.56347578 -0.05774805 1.78163427 0 0 Z " fill="#FDFAF9" transform="translate(140,51)"/>
<path d="M0 0 C0.66 0 1.32 0 2 0 C1.67 6.27 1.34 12.54 1 19 C1.45375 17.370625 1.9075 15.74125 2.375 14.0625 C3.1484375 11.28515625 3.1484375 11.28515625 4 9 C4.66 8.67 5.32 8.34 6 8 C5.60983685 15.80326294 3.24226342 21.92923365 0 29 C0.94875 28.814375 1.8975 28.62875 2.875 28.4375 C6 28 6 28 8 29 C8 30.98 8 32.96 8 35 C8.66 35 9.32 35 10 35 C9 38 9 38 6.6875 39.75 C4 41 4 41 1.6875 40.6875 C1.130625 40.460625 0.57375 40.23375 0 40 C0.639375 39.278125 1.27875 38.55625 1.9375 37.8125 C3.98673535 35.01808816 4.61332946 33.38336726 5 30 C2.47411298 32.36292656 1.11179163 33.66462511 0 37 C-0.99 36.67 -1.98 36.34 -3 36 C-3 35.34 -3 34.68 -3 34 C-5.97 33.67 -8.94 33.34 -12 33 C-11.67 32.34 -11.34 31.68 -11 31 C-8.69 31 -6.38 31 -4 31 C-3.92483154 29.85785034 -3.92483154 29.85785034 -3.84814453 28.69262695 C-3.61558727 25.23195341 -3.37042669 21.77228367 -3.125 18.3125 C-3.00705078 16.51522461 -3.00705078 16.51522461 -2.88671875 14.68164062 C-2.80292969 13.52470703 -2.71914062 12.36777344 -2.6328125 11.17578125 C-2.55949707 10.11270752 -2.48618164 9.04963379 -2.41064453 7.9543457 C-2.00191152 5.01375225 -1.2235661 2.69315173 0 0 Z " fill="#AE6E6A" transform="translate(250,38)"/>
<path d="M0 0 C3.3 0 6.6 0 10 0 C10.27580336 3.24968304 10.52147953 6.49694395 10.75 9.75 C10.83121094 10.67039062 10.91242188 11.59078125 10.99609375 12.5390625 C11.43814167 19.31713056 11.43814167 19.31713056 9.265625 22.703125 C7 24 7 24 4.859375 23.9453125 C2.15627866 22.57104923 1.4693446 20.52236298 0.52734375 17.7421875 C-0.59255095 11.91873508 -0.20752154 5.90283498 0 0 Z " fill="#FAF3F2" transform="translate(126,51)"/>
<path d="M0 0 C0.33 0 0.66 0 1 0 C1 8.58 1 17.16 1 26 C-7 26 -7 26 -9 25 C-4.53741497 4.53741497 -4.53741497 4.53741497 0 0 Z " fill="#FEFBFB" transform="translate(151,23)"/>
<path d="M0 0 C3.44488255 0.09412247 4.20416367 0.44930344 7.1875 2.5625 C9.48492742 5.86505191 9.64511159 7.5020403 9.1875 11.4375 C4.7325 12.9225 4.7325 12.9225 0.1875 14.4375 C0.1875 12.4575 0.1875 10.4775 0.1875 8.4375 C-2.4525 8.4375 -5.0925 8.4375 -7.8125 8.4375 C-5.43436115 0.62361521 -5.43436115 0.62361521 0 0 Z " fill="#FCF7F6" transform="translate(257.8125,58.5625)"/>
<path d="M0 0 C2.4375 0.375 2.4375 0.375 5 1 C7.32622007 5.65244014 5.98524838 12.0737581 5 17 C4.34 16.34 3.68 15.68 3 15 C1.68 19.29 0.36 23.58 -1 28 C-1.33 28 -1.66 28 -2 28 C-1.85856168 25.2705414 -1.71200471 22.54151877 -1.5625 19.8125 C-1.50352539 18.65911133 -1.50352539 18.65911133 -1.44335938 17.48242188 C-1.22492966 13.56748925 -0.91307892 9.82879312 0 6 C-0.66 6 -1.32 6 -2 6 C-2.33 6.66 -2.66 7.32 -3 8 C-3 7.34 -3 6.68 -3 6 C-6.63 5.67 -10.26 5.34 -14 5 C-14 4.67 -14 4.34 -14 4 C-13.24074219 4.04640625 -12.48148438 4.0928125 -11.69921875 4.140625 C-10.70535156 4.17671875 -9.71148437 4.2128125 -8.6875 4.25 C-7.70136719 4.29640625 -6.71523437 4.3428125 -5.69921875 4.390625 C-2.85596306 4.26903428 -2.85596306 4.26903428 -1.14453125 1.984375 C-0.76683594 1.32953125 -0.38914063 0.6746875 0 0 Z " fill="#B57F7B" transform="translate(252,32)"/>
<path d="M0 0 C0.33 0 0.66 0 1 0 C1 9.24 1 18.48 1 28 C2.32 28.33 3.64 28.66 5 29 C1.77208445 31.1519437 0.71599191 31.20086443 -3 31 C-6.11486365 24.77027269 -3.40489982 15.90668397 -2 9.4375 C-1.80921875 8.52419922 -1.6184375 7.61089844 -1.421875 6.66992188 C-0.95588071 4.44479913 -0.48183025 2.22173724 0 0 Z " fill="#F5DAD7" transform="translate(174,45)"/>
<path d="M0 0 C0.33 0 0.66 0 1 0 C1.28453045 3.24794196 1.52153067 6.49767191 1.75 9.75 C1.83121094 10.67039062 1.91242188 11.59078125 1.99609375 12.5390625 C2.44165854 19.37105588 2.44165854 19.37105588 0.1484375 22.63671875 C-2 24 -2 24 -4.125 24.0625 C-6.7577755 22.57059388 -7.13273119 20.81862363 -8 18 C-7.34 18 -6.68 18 -6 18 C-5.18512829 15.75083381 -4.37303082 13.50073022 -3.5625 11.25 C-3.33240234 10.61578125 -3.10230469 9.9815625 -2.86523438 9.328125 C-1.75755231 6.24587924 -0.70338964 3.20163562 0 0 Z " fill="#F7E2E0" transform="translate(135,51)"/>
<path d="M0 0 C0.66 0 1.32 0 2 0 C1.46247242 4.33138169 -0.00509968 6.83696493 -2.6875 10.25 C-3.35136719 11.12140625 -4.01523438 11.9928125 -4.69921875 12.890625 C-7.47658358 15.43693571 -9.2806396 15.8127315 -13 16 C-14 15 -14 15 -14.09765625 12.27734375 C-14.08605469 11.17519531 -14.07445313 10.07304688 -14.0625 8.9375 C-14.05347656 7.83277344 -14.04445313 6.72804688 -14.03515625 5.58984375 C-14.02355469 4.73519531 -14.01195313 3.88054687 -14 3 C-13.01 2.67 -12.02 2.34 -11 2 C-11 5.63 -11 9.26 -11 13 C-6.51279774 9.96453964 -4.1067641 6.36726581 -1.33203125 1.828125 C-0.89246094 1.22484375 -0.45289062 0.6215625 0 0 Z " fill="#B17270" transform="translate(113,67)"/>
<path d="M0 0 C1.32 0 2.64 0 4 0 C4 0.66 4 1.32 4 2 C3.360625 2.268125 2.72125 2.53625 2.0625 2.8125 C-0.33131686 3.88667752 -0.33131686 3.88667752 -1 7 C0.32 6.34 1.64 5.68 3 5 C3.99 6.485 3.99 6.485 5 8 C1.3321148 9.96189209 -1.87248551 11.39301257 -6 12 C-6.33 10.68 -6.66 9.36 -7 8 C-10.3 7.67 -13.6 7.34 -17 7 C-16.67 6.34 -16.34 5.68 -16 5 C-15.26394531 5.05800781 -14.52789062 5.11601563 -13.76953125 5.17578125 C-7.38031651 5.6371101 -7.38031651 5.6371101 -2.0625 2.5 C-1.381875 1.675 -0.70125 0.85 0 0 Z " fill="#B77A77" transform="translate(236,64)"/>
<path d="M0 0 C0.66 0 1.32 0 2 0 C2.19335938 1.12019531 2.38671875 2.24039063 2.5859375 3.39453125 C2.8485886 4.86725349 3.11162983 6.33990619 3.375 7.8125 C3.50132812 8.55048828 3.62765625 9.28847656 3.7578125 10.04882812 C4.40163482 13.60594646 4.96996056 15.95494084 7 19 C7.99 19.33 8.98 19.66 10 20 C10 20.66 10 21.32 10 22 C3.47692308 21.38461538 3.47692308 21.38461538 1.0625 19.4375 C0.711875 18.963125 0.36125 18.48875 0 18 C-0.33 18.99 -0.66 19.98 -1 21 C-1.99 20.34 -2.98 19.68 -4 19 C-3.27876953 18.51080078 -3.27876953 18.51080078 -2.54296875 18.01171875 C-0.17627334 14.92602726 -0.42700473 11.55844033 -0.3125 7.8125 C-0.27833984 7.06291016 -0.24417969 6.31332031 -0.20898438 5.54101562 C-0.12665706 3.69453162 -0.06164719 1.84729006 0 0 Z " fill="#B37776" transform="translate(137,55)"/>
<path d="M0 0 C0.99 0 1.98 0 3 0 C3 3.63 3 7.26 3 11 C6.3 11 9.6 11 13 11 C13 11.66 13 12.32 13 13 C5.81949816 13.71148265 -0.87028851 14.25818438 -8 13 C-8 12.34 -8 11.68 -8 11 C-5.69 11 -3.38 11 -1 11 C-0.67 7.37 -0.34 3.74 0 0 Z " fill="#B07571" transform="translate(124,38)"/>
<path d="M0 0 C1.65 0.33 3.3 0.66 5 1 C4.68756348 1.54366211 4.37512695 2.08732422 4.05322266 2.64746094 C2.83755814 5.36283954 2.49401369 7.68751939 2.1484375 10.640625 C2.01953125 11.71054687 1.890625 12.78046875 1.7578125 13.8828125 C1.63148438 14.99398437 1.50515625 16.10515625 1.375 17.25 C1.2409375 18.37664063 1.106875 19.50328125 0.96875 20.6640625 C0.63916486 23.44199438 0.31650936 26.22055304 0 29 C-0.33 29 -0.66 29 -1 29 C-1 22.73 -1 16.46 -1 10 C-1.66 10.99 -2.32 11.98 -3 13 C-2.88490339 11.58249437 -2.75746342 10.16598831 -2.625 8.75 C-2.55539063 7.96109375 -2.48578125 7.1721875 -2.4140625 6.359375 C-1.98492887 3.914123 -1.21399362 2.15163097 0 0 Z " fill="#D09491" transform="translate(170,29)"/>
<path d="M0 0 C3.3125 -0.1875 3.3125 -0.1875 7 0 C8 1 9 2 10 3 C13.94132147 3.38640407 16.87652665 3.03557707 20.6875 1.9375 C26.10389814 0.40979796 31.49397486 1.32092357 37 2 C37 2.33 37 2.66 37 3 C35.58460938 3.18175781 35.58460938 3.18175781 34.140625 3.3671875 C32.21476562 3.61855469 32.21476562 3.61855469 30.25 3.875 C29.23305054 4.00273804 29.23305054 4.00273804 28.19555664 4.13305664 C23.87824243 4.69138676 19.69189751 5.5009974 15.4375 6.4375 C10.6050298 7.28723637 10.6050298 7.28723637 8.06640625 6.08203125 C6.5 4.75 6.5 4.75 4 2 C1.78412652 0.72147713 1.78412652 0.72147713 0 0 Z " fill="#B6817F" transform="translate(208,35)"/>
<path d="M0 0 C0 2 0 2 -2 4.125 C-2.66 4.74375 -3.32 5.3625 -4 6 C-2.35 6.33 -0.7 6.66 1 7 C-3.38689912 10.32799244 -6.46144362 12.26152582 -12 13 C-11.25432419 8.15310726 -8.5114557 4.37405064 -4.9375 1.125 C-3 0 -3 0 0 0 Z " fill="#B97D7D" transform="translate(159,64)"/>
<path d="M0 0 C0 0.66 0 1.32 0 2 C-0.639375 2.268125 -1.27875 2.53625 -1.9375 2.8125 C-4.33131686 3.88667752 -4.33131686 3.88667752 -5 7 C-1.535 6.505 -1.535 6.505 2 6 C2.33 6.66 2.66 7.32 3 8 C-3.39014027 9.58444052 -8.50448709 10.20287276 -15 9 C-14.4225 8.773125 -13.845 8.54625 -13.25 8.3125 C-10.43086319 6.66800353 -8.98745131 4.5644533 -7 2 C-4 0 -4 0 0 0 Z " fill="#B68380" transform="translate(303,65)"/>
<path d="M0 0 C0.99 0 1.98 0 3 0 C3.12375 1.423125 3.12375 1.423125 3.25 2.875 C3.65074923 6.10461791 3.65074923 6.10461791 6.0625 7.375 C6.701875 7.58125 7.34125 7.7875 8 8 C5 8 2 8 -1 8 C-1.7425 8.495 -2.485 8.99 -3.25 9.5 C-6.42853345 11.23374552 -8.43512387 11.24871229 -12 11 C-11.67 9.68 -11.34 8.36 -11 7 C-10.67 7.66 -10.34 8.32 -10 9 C-4.96956624 6.71378224 -4.96956624 6.71378224 -1 3 C-0.67 2.01 -0.34 1.02 0 0 Z " fill="#AC7371" transform="translate(284,67)"/>
<path d="M0 0 C2.54152079 2.54152079 2.26060808 4.19760983 2.2734375 7.66796875 C2.26570313 8.39628906 2.25796875 9.12460937 2.25 9.875 C2.25773437 10.59558594 2.26546875 11.31617188 2.2734375 12.05859375 C2.25945445 15.85499069 2.12233599 18.78280815 0 22 C-0.33 22 -0.66 22 -1 22 C-1.02887814 18.52085059 -1.04675687 15.04173169 -1.0625 11.5625 C-1.07087891 10.56927734 -1.07925781 9.57605469 -1.08789062 8.55273438 C-1.09111328 7.60849609 -1.09433594 6.66425781 -1.09765625 5.69140625 C-1.10289307 4.81685791 -1.10812988 3.94230957 -1.11352539 3.04125977 C-1 1 -1 1 0 0 Z " fill="#AB6964" transform="translate(50,40)"/>
<path d="M0 0 C0.99 0 1.98 0 3 0 C3 6.93 3 13.86 3 21 C2.01 20.34 1.02 19.68 0 19 C-0.34057617 17.02880859 -0.34057617 17.02880859 -0.29296875 14.6484375 C-0.28330078 13.79765625 -0.27363281 12.946875 -0.26367188 12.0703125 C-0.23853516 11.18085937 -0.21339844 10.29140625 -0.1875 9.375 C-0.17396484 8.4778125 -0.16042969 7.580625 -0.14648438 6.65625 C-0.11106925 4.43690211 -0.06168461 2.21874812 0 0 Z " fill="#AC6A64" transform="translate(78,43)"/>
<path d="M0 0 C1.84765625 0.33984375 1.84765625 0.33984375 4.0625 0.9375 C5.16271484 1.22947266 5.16271484 1.22947266 6.28515625 1.52734375 C7.13400391 1.76130859 7.13400391 1.76130859 8 2 C8.33 3.32 8.66 4.64 9 6 C7.54263913 6.19491452 6.08405407 6.38069358 4.625 6.5625 C3.81289062 6.66691406 3.00078125 6.77132812 2.1640625 6.87890625 C0 7 0 7 -2 6 C-1.125 1.125 -1.125 1.125 0 0 Z " fill="#AF7E7B" transform="translate(206,35)"/>
<path d="M0 0 C0.66 0 1.32 0 2 0 C2.09688221 5.44693314 2.12862175 10.63904667 1 16 C0.01 16 -0.98 16 -2 16 C-2.05402274 13.89611431 -2.09280256 11.79183286 -2.125 9.6875 C-2.14820313 8.51574219 -2.17140625 7.34398437 -2.1953125 6.13671875 C-2 3 -2 3 0 0 Z " fill="#FDF8F7" transform="translate(246,39)"/>
<path d="M0 0 C0.33 0 0.66 0 1 0 C1.33 7.59 1.66 15.18 2 23 C0.35 23.33 -1.3 23.66 -3 24 C-2.84080078 23.42781738 -2.68160156 22.85563477 -2.51757812 22.26611328 C-2.00950632 20.04162156 -1.81446877 18.01856309 -1.71875 15.7421875 C-1.68136719 14.95199219 -1.64398438 14.16179688 -1.60546875 13.34765625 C-1.53482362 11.6914204 -1.46451423 10.03517021 -1.39453125 8.37890625 C-1.35714844 7.59128906 -1.31976563 6.80367187 -1.28125 5.9921875 C-1.25095703 5.27401855 -1.22066406 4.55584961 -1.18945312 3.81591797 C-1 2 -1 2 0 0 Z " fill="#AD6964" transform="translate(218,47)"/>
<path d="M0 0 C2.5 0.125 2.5 0.125 3.5 1.125 C3.625 4.125 3.625 4.125 3.5 7.125 C2.5 8.125 2.5 8.125 0 8.25 C-2.5 8.125 -2.5 8.125 -3.5 7.125 C-3.625 4.125 -3.625 4.125 -3.5 1.125 C-2.5 0.125 -2.5 0.125 0 0 Z " fill="#B0999B" transform="translate(143.5,127.875)"/>
<path d="M0 0 C2.375 -0.125 2.375 -0.125 5 0 C5.66 0.66 6.32 1.32 7 2 C6.44444444 6.55555556 6.44444444 6.55555556 5 8 C3.33382885 8.04063832 1.66611905 8.042721 0 8 C0 5.36 0 2.72 0 0 Z " fill="#AE989A" transform="translate(293,128)"/>
<path d="M0 0 C0.66 0.33 1.32 0.66 2 1 C2 6.28 2 11.56 2 17 C1.67 17 1.34 17 1 17 C0.34 13.04 -0.32 9.08 -1 5 C-1.763125 5.825 -2.52625 6.65 -3.3125 7.5 C-6 10 -6 10 -9 10 C-6.03 6.7 -3.06 3.4 0 0 Z " fill="#F8E2E0" transform="translate(97,52)"/>
<path d="M0 0 C0.99 0 1.98 0 3 0 C3 1.32 3 2.64 3 4 C3.66 4 4.32 4 5 4 C4.83951172 4.92232422 4.83951172 4.92232422 4.67578125 5.86328125 C4.55589844 6.67152344 4.43601562 7.47976562 4.3125 8.3125 C4.18488281 9.11300781 4.05726562 9.91351563 3.92578125 10.73828125 C3.77257193 13.09649679 3.77257193 13.09649679 5.48046875 14.79296875 C5.98191406 15.19128906 6.48335938 15.58960937 7 16 C5.35 16 3.7 16 2 16 C0.875 14.3125 0.875 14.3125 0 12 C0.875 9.25 0.875 9.25 2 7 C1.34 6.67 0.68 6.34 0 6 C0.66 6 1.32 6 2 6 C2 5.34 2 4.68 2 4 C1.34 4 0.68 4 0 4 C0 2.68 0 1.36 0 0 Z " fill="#BD7F7D" transform="translate(113,60)"/>
<path d="M0 0 C0.47308594 0.33773437 0.94617188 0.67546875 1.43359375 1.0234375 C5.97139745 4.08402245 9.79980967 5.69774045 15.21484375 6.54296875 C15.80394531 6.69378906 16.39304687 6.84460938 17 7 C17.33 7.66 17.66 8.32 18 9 C10.91045996 9.65643889 5.98599234 7.85063835 0 4 C-0.33 3.34 -0.66 2.68 -1 2 C-0.67 1.34 -0.34 0.68 0 0 Z " fill="#AE7F81" transform="translate(18,63)"/>
<path d="M0 0 C0.33 0 0.66 0 1 0 C1.51917486 8.34525522 -0.04170706 15.91038514 -2 24 C-2.33 24 -2.66 24 -3 24 C-2.88509088 21.31173136 -2.75836801 18.62486531 -2.625 15.9375 C-2.5940625 15.18533203 -2.563125 14.43316406 -2.53125 13.65820312 C-2.27941541 8.81038719 -1.50831635 4.61691957 0 0 Z " fill="#F1D5D3" transform="translate(253,36)"/>
<path d="M0 0 C0.33 0 0.66 0 1 0 C1 5.94 1 11.88 1 18 C1.66 18 2.32 18 3 18 C2.71758359 19.46015291 2.42373386 20.91809793 2.125 22.375 C1.96257813 23.18710938 1.80015625 23.99921875 1.6328125 24.8359375 C1 27 1 27 -1 29 C-0.67 19.43 -0.34 9.86 0 0 Z " fill="#F4DEDD" transform="translate(52,46)"/>
<path d="M0 0 C0.33 0.99 0.66 1.98 1 3 C-1.16804486 6.29221628 -3.14772624 8.8669783 -7 10 C-10.1875 9.75 -10.1875 9.75 -13 9 C-13.33 8.34 -13.66 7.68 -14 7 C-13.34 7 -12.68 7 -12 7 C-11.67 6.34 -11.34 5.68 -11 5 C-11 5.66 -11 6.32 -11 7 C-5.58657319 5.85485202 -3.0657052 4.65987191 0 0 Z " fill="#B87F7F" transform="translate(182,69)"/>
<path d="M0 0 C1.32 0.33 2.64 0.66 4 1 C4 7.27 4 13.54 4 20 C3.67 20 3.34 20 3 20 C2.67 14.39 2.34 8.78 2 3 C-1.27773504 3.75150023 -1.27773504 3.75150023 -3 7 C-3.66 7 -4.32 7 -5 7 C-5 7.66 -5 8.32 -5 9 C-5.66 8.67 -6.32 8.34 -7 8 C-4.69 5.36 -2.38 2.72 0 0 Z " fill="#F5E4DF" transform="translate(74,39)"/>
<path d="M0 0 C0.66 0 1.32 0 2 0 C2.33 4.62 2.66 9.24 3 14 C1.68 13.67 0.36 13.34 -1 13 C-1.02686553 11.02090602 -1.04633375 9.04171029 -1.0625 7.0625 C-1.07410156 5.96035156 -1.08570312 4.85820313 -1.09765625 3.72265625 C-1 1 -1 1 0 0 Z " fill="#AE6C67" transform="translate(100,69)"/>
<path d="M0 0 C0.33 0 0.66 0 1 0 C1.0810206 2.10353495 1.13919907 4.20795952 1.1875 6.3125 C1.22230469 7.48425781 1.25710937 8.65601563 1.29296875 9.86328125 C1 13 1 13 -0.51171875 14.91796875 C-1.00285156 15.27503906 -1.49398437 15.63210937 -2 16 C-2.05384521 13.70858714 -2.09272087 11.41681812 -2.125 9.125 C-2.14820313 7.84882812 -2.17140625 6.57265625 -2.1953125 5.2578125 C-2 2 -2 2 0 0 Z " fill="#AC6B66" transform="translate(174,32)"/>
<path d="M0 0 C1.65 0 3.3 0 5 0 C5 4.29 5 8.58 5 13 C2.2946129 8.94191935 0 4.95110601 0 0 Z " fill="#FDF5F3" transform="translate(118,51)"/>
<path d="M0 0 C1.65 0 3.3 0 5 0 C6.31625194 2.63250388 5.74813658 3.80179056 5.0625 6.625 C4.86785156 7.44226562 4.67320312 8.25953125 4.47265625 9.1015625 C4.23869141 10.04128906 4.23869141 10.04128906 4 11 C4.66 11.33 5.32 11.66 6 12 C4.68 12 3.36 12 2 12 C2 8.37 2 4.74 2 1 C1.34 0.67 0.68 0.34 0 0 Z " fill="#EDD1CF" transform="translate(138,37)"/>
<path d="M0 0 C1.65 0 3.3 0 5 0 C5.625 2.375 5.625 2.375 6 5 C5.34 5.66 4.68 6.32 4 7 C4 6.34 4 5.68 4 5 C3.34 5 2.68 5 2 5 C2 5.99 2 6.98 2 8 C1.34 8 0.68 8 0 8 C0 5.36 0 2.72 0 0 Z " fill="#CEB8B7" transform="translate(218,128)"/>
<path d="M0 0 C0.33 0 0.66 0 1 0 C1 3.3 1 6.6 1 10 C2.32 10.33 3.64 10.66 5 11 C2 13 2 13 -0.1875 12.625 C-0.785625 12.41875 -1.38375 12.2125 -2 12 C-1.85904936 10.3745692 -1.71207913 8.74965949 -1.5625 7.125 C-1.48128906 6.22007813 -1.40007812 5.31515625 -1.31640625 4.3828125 C-1 2 -1 2 0 0 Z " fill="#F6E7E3" transform="translate(174,63)"/>
<path d="M0 0 C0 0.99 0 1.98 0 3 C-0.66 2.67 -1.32 2.34 -2 2 C-1.34 1.34 -0.68 0.68 0 0 Z M-12 1 C-11.01 1.66 -10.02 2.32 -9 3 C-6.66800612 3.07905064 -4.33167378 3.08798769 -2 3 C-2.33 4.32 -2.66 5.64 -3 7 C-6.3 6.67 -9.6 6.34 -13 6 C-13 3 -13 3 -12 1 Z " fill="#F9E0DA" transform="translate(124,72)"/>
<path d="M0 0 C2.475 0.495 2.475 0.495 5 1 C4.979375 1.78375 4.95875 2.5675 4.9375 3.375 C4.81315937 5.98114961 4.81315937 5.98114961 6 8 C4.02 8 2.04 8 0 8 C0 5.36 0 2.72 0 0 Z " fill="#C6B0AE" transform="translate(264,128)"/>
<path d="M0 0 C0.99 0 1.98 0 3 0 C2.79375 1.093125 2.5875 2.18625 2.375 3.3125 C1.59653475 7.0838401 1.59653475 7.0838401 4 10 C-0.875 9.125 -0.875 9.125 -2 8 C-2.1875 5.0625 -2.1875 5.0625 -2 2 C-1.34 1.34 -0.68 0.68 0 0 Z " fill="#B27E7D" transform="translate(199,97)"/>
<path d="M0 0 C0 0.66 0 1.32 0 2 C-0.99 2.804375 -1.98 3.60875 -3 4.4375 C-4.485 5.7059375 -4.485 5.7059375 -6 7 C-6 7.99 -6 8.98 -6 10 C-6.99 10 -7.98 10 -9 10 C-9.375 7.8125 -9.375 7.8125 -9 5 C-4 0 -4 0 0 0 Z " fill="#B37572" transform="translate(159,64)"/>
<path d="M0 0 C0.99 0 1.98 0 3 0 C3 3.63 3 7.26 3 11 C1.68 10.67 0.36 10.34 -1 10 C-0.67 6.7 -0.34 3.4 0 0 Z " fill="#FDF3F0" transform="translate(244,58)"/>
<path d="M0 0 C0.33 0.66 0.66 1.32 1 2 C2.98 2 4.96 2 7 2 C7 2.99 7 3.98 7 5 C6.39671875 4.97679688 5.7934375 4.95359375 5.171875 4.9296875 C4.37265625 4.91164063 3.5734375 4.89359375 2.75 4.875 C1.56664062 4.84019531 1.56664062 4.84019531 0.359375 4.8046875 C-2.20731941 5.0171622 -3.7916067 5.71345895 -6 7 C-4.60667426 3.63279613 -3.0210714 2.0140476 0 0 Z " fill="#F4D3CD" transform="translate(159,65)"/>
<path d="M0 0 C0.66 0 1.32 0 2 0 C2.33 4.62 2.66 9.24 3 14 C2.01 13.67 1.02 13.34 0 13 C0 8.71 0 4.42 0 0 Z " fill="#AB6964" transform="translate(137,55)"/>
<path d="M0 0 C0.66 0 1.32 0 2 0 C1.67 4.95 1.34 9.9 1 15 C0.67 15 0.34 15 0 15 C0 13.02 0 11.04 0 9 C-0.66 9 -1.32 9 -2 9 C-1.125 2.25 -1.125 2.25 0 0 Z " fill="#AE726D" transform="translate(250,38)"/>
<path d="M0 0 C3.00617269 3.00617269 2.59585316 5.82381598 3 10 C1.66666667 10 0.33333333 10 -1 10 C-2.25 3.375 -2.25 3.375 0 0 Z " fill="#B47775" transform="translate(49,32)"/>
<path d="M0 0 C0.33 0 0.66 0 1 0 C1.10477512 5.78591511 0.99250545 11.29309366 0 17 C0.66 17.33 1.32 17.66 2 18 C0.68 18.33 -0.64 18.66 -2 19 C-1.45118943 12.64780958 -0.83488387 6.32126362 0 0 Z " fill="#B58280" transform="translate(46,81)"/>
<path d="M0 0 C6.4084507 -0.49295775 6.4084507 -0.49295775 9.25 1.875 C9.8275 2.57625 10.405 3.2775 11 4 C11.99 4.66 12.98 5.32 14 6 C12.375 6.8125 12.375 6.8125 10 7 C8.45085581 5.80586802 6.90491309 4.60061856 5.4609375 3.28125 C3.77913084 1.80629657 2.05557894 0.86966801 0 0 Z " fill="#AD6F6B" transform="translate(208,35)"/>
<path d="M0 0 C1.32 0 2.64 0 4 0 C4 6.93 4 13.86 4 21 C3.67 21 3.34 21 3 21 C2.95101562 19.73542969 2.90203125 18.47085938 2.8515625 17.16796875 C2.7765262 15.50779053 2.70097873 13.84763536 2.625 12.1875 C2.57859375 10.93743164 2.57859375 10.93743164 2.53125 9.66210938 C2.49257812 8.85966797 2.45390625 8.05722656 2.4140625 7.23046875 C2.3826416 6.49207764 2.3512207 5.75368652 2.31884766 4.99291992 C2.09165386 2.68650412 2.09165386 2.68650412 0 0 Z " fill="#ECC5C3" transform="translate(78,36)"/>
<path d="M0 0 C1.98 0.495 1.98 0.495 4 1 C3.67 2.65 3.34 4.3 3 6 C1.68 5.67 0.36 5.34 -1 5 C-0.67 3.35 -0.34 1.7 0 0 Z " fill="#FCF7F3" transform="translate(142,129)"/>
<path d="M0 0 C1.65 0 3.3 0 5 0 C4.01 0.33 3.02 0.66 2 1 C2 1.66 2 2.32 2 3 C2.99 3.33 3.98 3.66 5 4 C4.01 4 3.02 4 2 4 C2 4.99 2 5.98 2 7 C2.99 7.33 3.98 7.66 5 8 C3.35 8 1.7 8 0 8 C0 5.36 0 2.72 0 0 Z " fill="#BFA6A7" transform="translate(65,128)"/>
<path d="M0 0 C0.66 0 1.32 0 2 0 C1.67 2.31 1.34 4.62 1 7 C0.01 7 -0.98 7 -2 7 C-2.33 6.01 -2.66 5.02 -3 4 C-1.6875 1.8125 -1.6875 1.8125 0 0 Z " fill="#F8E5E5" transform="translate(253,68)"/>
<path d="M0 0 C0.66 1.32 1.32 2.64 2 4 C0.68 5.32 -0.64 6.64 -2 8 C-2 7.34 -2 6.68 -2 6 C-2.66 6 -3.32 6 -4 6 C-4 4.35 -4 2.7 -4 1 C-3.34 1.66 -2.68 2.32 -2 3 C-1.34 2.01 -0.68 1.02 0 0 Z " fill="#B97B7B" transform="translate(84,63)"/>
<path d="M0 0 C1.65 0.33 3.3 0.66 5 1 C5.33 1.99 5.66 2.98 6 4 C3.36 4 0.72 4 -2 4 C-1.34 2.68 -0.68 1.36 0 0 Z " fill="#F6E3E1" transform="translate(209,36)"/>
<path d="M0 0 C0.66 0 1.32 0 2 0 C2 0.66 2 1.32 2 2 C2.99 2.33 3.98 2.66 5 3 C0.56923077 6.07692308 0.56923077 6.07692308 -2.3125 5.6875 C-2.869375 5.460625 -3.42625 5.23375 -4 5 C-2.71937515 3.2925002 -1.38232443 1.62626404 0 0 Z " fill="#B27773" transform="translate(254,73)"/>
<path d="M0 0 C0.99 0 1.98 0 3 0 C2.67 1.65 2.34 3.3 2 5 C0.68 5.33 -0.64 5.66 -2 6 C-1.125 1.125 -1.125 1.125 0 0 Z " fill="#B06866" transform="translate(79,69)"/>
<path d="M0 0 C0.66 0 1.32 0 2 0 C2 2.97 2 5.94 2 9 C1.01 8.67 0.02 8.34 -1 8 C-1.04241723 5.66705225 -1.04092937 3.33297433 -1 1 C-0.67 0.67 -0.34 0.34 0 0 Z " fill="#AB6E66" transform="translate(13,49)"/>
<path d="M0 0 C1.32 0.66 2.64 1.32 4 2 C1.03 3.32 -1.94 4.64 -5 6 C-5.66 5.34 -6.32 4.68 -7 4 C-1.921875 0.6796875 -1.921875 0.6796875 0 0 Z " fill="#AF7A7A" transform="translate(34,27)"/>
<path d="M0 0 C0.66 0 1.32 0 2 0 C2 2.64 2 5.28 2 8 C0.0625 7.25 0.0625 7.25 -2 6 C-2.75 3.875 -2.75 3.875 -3 2 C-2.01 2.495 -2.01 2.495 -1 3 C-0.67 2.01 -0.34 1.02 0 0 Z " fill="#CAB0B1" transform="translate(178,128)"/>
<path d="M0 0 C-1.49097658 3.7952131 -3.75700849 5.61042731 -7 8 C-6.65930765 4.84859577 -6.41923159 3.39218439 -4.0625 1.1875 C-2 0 -2 0 0 0 Z " fill="#B17A7C" transform="translate(326,69)"/>
<path d="M0 0 C0 0.33 0 0.66 0 1 C-4 2.33333333 -8 3.66666667 -12 5 C-12 4.01 -12 3.02 -12 2 C-4.71428571 -1.57142857 -4.71428571 -1.57142857 0 0 Z " fill="#B58180" transform="translate(272,70)"/>
<path d="M0 0 C0.99 0 1.98 0 3 0 C3 1.32 3 2.64 3 4 C3.66 4 4.32 4 5 4 C4.34 5.32 3.68 6.64 3 8 C2.01 7.34 1.02 6.68 0 6 C0.66 6 1.32 6 2 6 C2 5.34 2 4.68 2 4 C1.34 4 0.68 4 0 4 C0 2.68 0 1.36 0 0 Z " fill="#CFAAA7" transform="translate(113,60)"/>
<path d="M0 0 C1.32 0.33 2.64 0.66 4 1 C3.67 2.65 3.34 4.3 3 6 C2.01 6 1.02 6 0 6 C0 4.02 0 2.04 0 0 Z " fill="#FEF9F4" transform="translate(294,129)"/>
<path d="M0 0 C0.66 0.66 1.32 1.32 2 2 C1.625 5.125 1.625 5.125 1 8 C0.01 8 -0.98 8 -2 8 C-1.47731534 5.23723823 -0.89130413 2.6739124 0 0 Z " fill="#FCF5EF" transform="translate(135,65)"/>
<path d="M0 0 C0 0.99 0 1.98 0 3 C-2 4.6875 -2 4.6875 -4 6 C-4.66 5.67 -5.32 5.34 -6 5 C-5.25 3.0625 -5.25 3.0625 -4 1 C-1.875 0.25 -1.875 0.25 0 0 Z " fill="#F4CFCF" transform="translate(123,68)"/>
<path d="M0 0 C0.33 0.99 0.66 1.98 1 3 C-0.65 4.65 -2.3 6.3 -4 8 C-4.66 7.34 -5.32 6.68 -6 6 C-4 4 -2 2 0 0 Z " fill="#AE7D7A" transform="translate(182,69)"/>
<path d="M0 0 C2 1 2 1 3 3 C2.236875 3.28875 1.47375 3.5775 0.6875 3.875 C-2.15029308 4.96269013 -2.15029308 4.96269013 -5 7 C-3.75023244 3.34683329 -3.32901247 2.21934164 0 0 Z " fill="#F0C7BF" transform="translate(238,66)"/>
<path d="M0 0 C1.65 1.32 3.3 2.64 5 4 C3.02 4.33 1.04 4.66 -1 5 C-1 2 -1 2 0 0 Z " fill="#F6D8D4" transform="translate(112,73)"/>
<path d="M0 0 C1.32 1.32 2.64 2.64 4 4 C3.01 4.495 3.01 4.495 2 5 C1.34786708 7.02463255 1.34786708 7.02463255 1 9 C-1.125 2.25 -1.125 2.25 0 0 Z " fill="#B67C7B" transform="translate(313,69)"/>
</svg>
